;TYPE=PLATED
;Layer: PTH_Through
;EasyEDA Pro v3.2.148, 2026-08-06 13:21:58
;Gerber Generator version 0.3
M48
METRIC,LZ,0000.00000
;Hole size 1 = 0.30500 METRIC
T01C0.30500
;Hole size 2 = 0.60000 METRIC
T02C0.60000
;Hole size 3 = 0.70002 METRIC
T03C0.70002
%
G05
G90
T01
X91.821Y18.542
X88.9Y17.59102
X88.773Y15.875
X88.773Y9.398
X90.805Y9.37298
X83.058Y10.414
X70.993Y7.493
X75.438Y5.969
X77.978Y17.145
X71.628Y17.653
X78.74Y15.50441
X67.056Y14.097
X63.881Y19.812
X62.357Y16.637
X62.357Y15.367
X61.087Y16.002
X54.864Y15.875
X48.387Y16.891
X41.402Y15.367
X36.576Y17.399
X27.432Y12.68908
X30.734Y18.161
T02
X74.78779Y8.12441G85X74.78779Y7.22441
X83.43781Y8.1244G85X83.43781Y7.22437
X74.78779Y3.77439G85X74.78779Y3.17439
X83.43781Y3.77439G85X83.43781Y3.17439
X92.84796Y8.24807G85X93.74796Y8.24807
X92.84797Y16.89809G85X93.748Y16.89809
X97.19798Y8.24807G85X97.79798Y8.24807
X97.19798Y16.89809G85X97.79798Y16.89809
T03
X60.55294Y4.50995G85X60.55294Y3.20998
X47.65294Y4.50995G85X47.65294Y3.20998
X44.29186Y4.53657G85X44.29186Y3.2366
X31.39186Y4.53657G85X31.39186Y3.2366
X28.03078Y4.54907G85X28.03078Y3.24909
X15.13078Y4.54907G85X15.13078Y3.24909
M30