;TYPE=PLATED
;Layer: PTH_Through_Via
;EasyEDA Pro v3.2.148, 2026-08-06 13:21:58
;Gerber Generator version 0.3
M48
METRIC,LZ,0000.00000
;Hole size 1 = 0.30500 METRIC
T01C0.30500
%
G05
G90
T01
X91.821Y18.542
X88.9Y17.59102
X88.773Y15.875
X88.773Y9.398
X90.805Y9.37298
X83.058Y10.414
X70.993Y7.493
X75.438Y5.969
X77.978Y17.145
X71.628Y17.653
X78.74Y15.50441
X67.056Y14.097
X63.881Y19.812
X62.357Y16.637
X62.357Y15.367
X61.087Y16.002
X54.864Y15.875
X48.387Y16.891
X41.402Y15.367
X36.576Y17.399
X27.432Y12.68908
X30.734Y18.161
M30