G04 Layer: TopSilkscreenLayer*
G04 EasyEDA Pro v3.2.148, 2026-08-06 13:21:58*
G04 Gerber Generator version 0.3*
G04 Scale: 100 percent, Rotated: No, Reflected: No*
G04 Dimensions in millimeters*
G04 Leading zeros omitted, absolute positions, 4 integers and 5 decimals*
G04 Generated by one-click*
G04 Object Configs: Pad,Via,Track,Text,Image,Dimension,BoardOutline,BoardCutout,CopperFilled,SolidRegion,FPCStiffener,Line,PlaneZone,ComponentProperty,ComponentSilkscreen,TearDrop*
G04 Layer Configs: 1,2,3,4,5,6,7,8,9,10,11,13,14,56*
G04 Copper Areas: 0*
%FSLAX45Y45*%
%MOMM*%
%ADD10C,0.1524*%
%ADD11C,0.254*%
%ADD12C,0.2333*%
G75*


G04 Text Start*
G36*
G01X7031018Y324455D02*
G01X7021170Y324833D01*
G01X7017382Y325970D01*
G01X7013973Y327106D01*
G01X7011321Y327864D01*
G01X7008670Y329000D01*
G01X7001852Y332409D01*
G01X6998442Y334682D01*
G01X6995791Y336576D01*
G01X6986321Y346046D01*
G01X6984049Y349076D01*
G01X6981397Y352864D01*
G01X6979503Y355894D01*
G01X6977988Y358924D01*
G01X6976473Y362333D01*
G01X6974958Y366121D01*
G01X6973821Y369530D01*
G01X6972306Y377106D01*
G01X6971927Y386197D01*
G01X6972306Y397561D01*
G01X6973064Y402106D01*
G01X6973442Y405136D01*
G01X6974200Y409682D01*
G01X6975336Y413470D01*
G01X6976094Y416879D01*
G01X6977230Y420667D01*
G01X6978746Y424455D01*
G01X6980261Y429000D01*
G01X6981776Y432409D01*
G01X6983291Y435439D01*
G01X6984806Y439227D01*
G01X6987836Y444530D01*
G01X6989730Y448318D01*
G01X6993518Y454379D01*
G01X6998064Y461197D01*
G01X7000715Y464985D01*
G01X7002988Y468015D01*
G01X7004503Y469909D01*
G01X7006018Y472182D01*
G01X7007912Y474454D01*
G01X7012458Y479757D01*
G01X7016246Y483545D01*
G01X7018518Y486197D01*
G01X7021549Y489227D01*
G01X7024200Y491500D01*
G01X7027988Y494530D01*
G01X7030639Y496803D01*
G01X7034048Y499076D01*
G01X7037079Y500970D01*
G01X7039730Y502485D01*
G01X7042761Y504000D01*
G01X7046549Y505515D01*
G01X7051094Y507030D01*
G01X7054882Y508167D01*
G01X7065109Y509303D01*
G01X7068518Y508924D01*
G01X7071548Y508545D01*
G01X7076094Y508167D01*
G01X7079882Y507409D01*
G01X7082533Y507030D01*
G01X7084427Y507788D01*
G01X7085942Y509303D01*
G01X7087836Y510818D01*
G01X7091245Y512333D01*
G01X7095791Y512712D01*
G01X7099200Y511576D01*
G01X7101473Y510061D01*
G01X7103367Y507409D01*
G01X7104882Y504000D01*
G01X7105639Y501349D01*
G01X7106397Y496045D01*
G01X7107533Y482409D01*
G01X7107155Y477864D01*
G01X7106776Y475212D01*
G01X7106018Y472561D01*
G01X7104503Y469530D01*
G01X7102609Y466879D01*
G01X7100336Y465364D01*
G01X7096170Y464606D01*
G01X7092003Y464985D01*
G01X7088973Y466500D01*
G01X7086321Y468773D01*
G01X7084806Y471046D01*
G01X7083291Y474076D01*
G01X7081776Y476727D01*
G01X7080639Y479000D01*
G01X7078367Y482030D01*
G01X7074958Y483545D01*
G01X7072306Y483924D01*
G01X7068518Y484303D01*
G01X7062458Y483924D01*
G01X7056776Y482788D01*
G01X7052609Y481273D01*
G01X7049579Y479757D01*
G01X7046549Y477864D01*
G01X7043897Y475970D01*
G01X7042003Y474833D01*
G01X7040109Y473318D01*
G01X7030639Y463848D01*
G01X7027609Y460061D01*
G01X7025715Y458167D01*
G01X7021170Y452106D01*
G01X7019654Y450212D01*
G01X7017761Y447561D01*
G01X7013215Y440742D01*
G01X7010943Y436955D01*
G01X7009048Y433924D01*
G01X7004503Y424833D01*
G01X7002988Y421424D01*
G01X7000715Y415364D01*
G01X6998442Y407788D01*
G01X6997306Y403243D01*
G01X6996549Y399076D01*
G01X6996170Y389985D01*
G01X6996549Y380894D01*
G01X6997306Y377485D01*
G01X6998442Y373697D01*
G01X6999958Y370288D01*
G01X7001473Y367258D01*
G01X7002988Y364985D01*
G01X7004503Y363091D01*
G01X7006397Y360439D01*
G01X7008670Y357788D01*
G01X7010564Y356273D01*
G01X7013215Y354379D01*
G01X7016246Y352485D01*
G01X7019654Y350970D01*
G01X7023064Y349833D01*
G01X7030261Y349454D01*
G01X7038215Y349833D01*
G01X7042003Y350591D01*
G01X7046549Y351727D01*
G01X7051094Y353242D01*
G01X7060185Y357788D01*
G01X7063215Y359682D01*
G01X7070033Y364227D01*
G01X7075336Y368015D01*
G01X7079124Y370667D01*
G01X7082533Y372939D01*
G01X7085564Y374455D01*
G01X7089730Y374833D01*
G01X7093518Y373697D01*
G01X7095791Y372182D01*
G01X7098442Y369530D01*
G01X7100336Y365364D01*
G01X7100336Y360439D01*
G01X7098821Y356273D01*
G01X7096927Y353621D01*
G01X7092382Y349833D01*
G01X7088594Y346803D01*
G01X7085942Y344530D01*
G01X7080639Y340743D01*
G01X7073064Y336197D01*
G01X7070033Y334303D01*
G01X7067003Y332788D01*
G01X7063594Y331273D01*
G01X7059806Y329758D01*
G01X7051852Y327106D01*
G01X7045791Y325591D01*
G01X7040488Y324833D01*
G01X7031018Y324455D01*
G37*
G36*
G01X7148158Y321708D02*
G01X7144276Y322561D01*
G01X7141624Y324455D01*
G01X7139730Y325970D01*
G01X7137458Y328621D01*
G01X7135564Y332030D01*
G01X7134825Y361955D01*
G01X7158291Y361955D01*
G01X7158670Y346803D01*
G01X7163215Y346424D01*
G01X7168518Y346803D01*
G01X7176852Y347561D01*
G01X7179503Y347939D01*
G01X7182912Y348318D01*
G01X7187458Y349076D01*
G01X7195033Y350591D01*
G01X7200336Y351727D01*
G01X7205261Y353242D01*
G01X7209806Y354757D01*
G01X7213215Y356273D01*
G01X7216245Y357788D01*
G01X7219655Y359682D01*
G01X7222306Y361197D01*
G01X7224200Y362712D01*
G01X7226094Y364606D01*
G01X7229882Y367636D01*
G01X7231776Y369530D01*
G01X7233291Y371424D01*
G01X7234427Y374076D01*
G01X7234049Y377106D01*
G01X7232533Y379379D01*
G01X7229882Y382030D01*
G01X7224200Y385818D01*
G01X7221548Y387333D01*
G01X7213973Y390364D01*
G01X7210564Y391879D01*
G01X7206397Y393394D01*
G01X7201473Y394909D01*
G01X7198064Y396045D01*
G01X7189730Y397561D01*
G01X7167761Y398318D01*
G01X7162836Y398697D01*
G01X7159048Y398697D01*
G01X7159048Y388849D01*
G01X7158670Y377864D01*
G01X7158291Y361955D01*
G01X7158291Y361955D01*
G01X7134825Y361955D01*
G01X7134806Y362712D01*
G01X7135185Y393015D01*
G01X7135943Y407409D01*
G01X7136700Y419530D01*
G01X7137458Y430894D01*
G01X7137481Y431273D01*
G01X7161321Y431273D01*
G01X7161605Y426633D01*
G01X7162458Y424833D01*
G01X7164730Y424076D01*
G01X7170791Y423697D01*
G01X7170791Y423697D01*
G01X7177609Y423318D01*
G01X7180639Y423318D01*
G01X7188594Y424455D01*
G01X7191624Y425212D01*
G01X7195033Y426348D01*
G01X7198064Y427485D01*
G01X7204124Y430515D01*
G01X7206397Y432030D01*
G01X7208291Y433545D01*
G01X7210564Y435061D01*
G01X7212836Y436955D01*
G01X7214352Y438849D01*
G01X7216245Y441500D01*
G01X7218139Y444530D01*
G01X7219276Y446803D01*
G01X7220412Y449455D01*
G01X7221548Y453242D01*
G01X7222306Y458167D01*
G01X7222306Y464227D01*
G01X7221170Y469909D01*
G01X7219276Y473697D01*
G01X7217382Y476727D01*
G01X7215488Y479000D01*
G01X7211700Y482788D01*
G01X7209806Y484303D01*
G01X7205261Y487333D01*
G01X7202609Y488848D01*
G01X7199579Y490364D01*
G01X7196548Y491500D01*
G01X7193140Y492636D01*
G01X7189730Y493394D01*
G01X7186700Y493773D01*
G01X7179124Y494151D01*
G01X7171549Y493773D01*
G01X7167003Y493394D01*
G01X7163594Y493394D01*
G01X7163594Y481273D01*
G01X7163215Y468015D01*
G01X7162458Y452864D01*
G01X7161321Y431273D01*
G01X7137481Y431273D01*
G01X7138215Y443015D01*
G01X7138973Y456652D01*
G01X7139730Y485439D01*
G01X7140488Y499076D01*
G01X7140867Y502106D01*
G01X7141246Y506652D01*
G01X7142382Y510439D01*
G01X7143897Y512712D01*
G01X7146927Y514227D01*
G01X7151473Y515364D01*
G01X7156397Y516500D01*
G01X7160185Y517258D01*
G01X7167003Y518015D01*
G01X7173064Y518394D01*
G01X7179882Y518773D01*
G01X7182912Y518773D01*
G01X7185942Y518394D01*
G01X7191245Y518015D01*
G01X7197306Y516879D01*
G01X7202230Y515364D01*
G01X7206397Y513849D01*
G01X7210185Y512333D01*
G01X7215488Y509303D01*
G01X7218897Y507409D01*
G01X7221548Y505894D01*
G01X7223443Y504379D01*
G01X7228746Y499833D01*
G01X7236321Y492258D01*
G01X7238215Y489606D01*
G01X7240109Y486576D01*
G01X7241624Y483924D01*
G01X7243139Y480894D01*
G01X7244276Y477864D01*
G01X7245791Y471803D01*
G01X7246170Y463848D01*
G01X7245791Y454379D01*
G01X7245033Y449833D01*
G01X7244276Y446803D01*
G01X7243518Y443394D01*
G01X7242382Y439985D01*
G01X7240867Y436576D01*
G01X7239352Y433545D01*
G01X7237836Y430894D01*
G01X7235564Y427106D01*
G01X7233291Y424076D01*
G01X7228746Y419530D01*
G01X7226473Y416879D01*
G01X7224579Y415364D01*
G01X7223064Y413849D01*
G01X7224200Y412333D01*
G01X7226851Y410818D01*
G01X7233670Y407409D01*
G01X7239730Y403621D01*
G01X7242382Y401727D01*
G01X7244655Y400212D01*
G01X7246927Y398318D01*
G01X7250715Y394530D01*
G01X7252230Y392636D01*
G01X7255261Y388091D01*
G01X7256397Y385818D01*
G01X7257533Y382788D01*
G01X7258291Y377864D01*
G01X7257912Y371045D01*
G01X7256776Y366121D01*
G01X7255261Y362712D01*
G01X7253367Y359303D01*
G01X7251473Y356273D01*
G01X7249579Y354000D01*
G01X7247306Y351349D01*
G01X7245033Y349076D01*
G01X7243139Y347561D01*
G01X7240488Y344909D01*
G01X7236700Y341879D01*
G01X7232912Y339227D01*
G01X7229124Y336955D01*
G01X7226094Y335061D01*
G01X7223064Y333545D01*
G01X7219276Y332030D01*
G01X7215109Y330515D01*
G01X7207154Y327864D01*
G01X7203746Y327106D01*
G01X7198821Y325970D01*
G01X7193518Y324833D01*
G01X7189730Y324076D01*
G01X7183670Y323318D01*
G01X7176852Y322561D01*
G01X7167003Y321803D01*
G01X7156018Y321424D01*
G01X7148158Y321708D01*
G37*
G36*
G01X6328556Y314890D02*
G01X6326094Y315742D01*
G01X6322685Y318773D01*
G01X6320791Y322561D01*
G01X6320033Y325591D01*
G01X6319655Y331273D01*
G01X6320033Y336955D01*
G01X6320791Y391500D01*
G01X6321548Y436955D01*
G01X6321927Y464606D01*
G01X6321548Y492258D01*
G01X6321170Y496803D01*
G01X6321548Y502864D01*
G01X6322306Y506652D01*
G01X6323064Y509303D01*
G01X6324579Y511576D01*
G01X6326473Y513470D01*
G01X6329882Y515364D01*
G01X6334427Y515742D01*
G01X6337457Y514985D01*
G01X6340109Y514227D01*
G01X6342760Y514227D01*
G01X6351851Y515742D01*
G01X6357155Y516500D01*
G01X6363215Y517258D01*
G01X6370033Y518015D01*
G01X6379124Y518773D01*
G01X6387458Y519152D01*
G01X6395791Y518773D01*
G01X6398821Y518394D01*
G01X6403367Y518015D01*
G01X6408670Y517258D01*
G01X6413215Y516500D01*
G01X6416245Y515742D01*
G01X6420033Y514985D01*
G01X6425336Y513849D01*
G01X6430261Y512333D01*
G01X6434806Y510818D01*
G01X6437836Y509303D01*
G01X6440488Y507788D01*
G01X6443897Y505136D01*
G01X6445033Y503148D01*
G01X6445412Y500970D01*
G01X6445033Y497561D01*
G01X6443897Y494530D01*
G01X6442003Y491879D01*
G01X6440109Y489985D01*
G01X6436700Y488091D01*
G01X6431397Y488091D01*
G01X6426473Y489606D01*
G01X6423064Y490742D01*
G01X6415488Y492258D01*
G01X6410185Y493015D01*
G01X6402609Y493773D01*
G01X6391246Y494151D01*
G01X6379882Y493773D01*
G01X6371549Y493015D01*
G01X6359427Y491500D01*
G01X6350336Y489985D01*
G01X6347685Y489606D01*
G01X6346548Y483924D01*
G01X6346170Y466879D01*
G01X6345791Y443015D01*
G01X6345412Y440364D01*
G01X6345791Y437712D01*
G01X6346359Y436955D01*
G01X6347306Y436955D01*
G01X6350715Y437712D01*
G01X6355639Y438849D01*
G01X6359427Y439985D01*
G01X6367761Y441500D01*
G01X6373064Y442258D01*
G01X6385564Y442636D01*
G01X6398064Y442258D01*
G01X6407912Y441500D01*
G01X6417003Y440742D01*
G01X6420412Y440364D01*
G01X6424200Y439606D01*
G01X6426852Y438470D01*
G01X6428745Y436955D01*
G01X6430261Y434682D01*
G01X6431397Y430894D01*
G01X6431018Y425591D01*
G01X6429503Y421803D01*
G01X6427988Y419530D01*
G01X6425336Y417257D01*
G01X6422306Y415742D01*
G01X6418139Y415364D01*
G01X6413973Y415742D01*
G01X6403367Y416500D01*
G01X6393518Y417257D01*
G01X6385943Y417636D01*
G01X6376852Y417257D01*
G01X6371549Y416500D01*
G01X6363973Y414985D01*
G01X6358670Y413849D01*
G01X6351094Y411954D01*
G01X6347685Y411197D01*
G01X6345412Y410818D01*
G01X6345412Y402864D01*
G01X6345033Y393773D01*
G01X6344276Y335440D01*
G01X6343897Y329000D01*
G01X6343139Y322561D01*
G01X6342003Y319909D01*
G01X6340488Y317636D01*
G01X6337836Y315742D01*
G01X6335658Y314890D01*
G01X6332154Y314606D01*
G01X6328556Y314890D01*
G37*
G36*
G01X6677988Y322182D02*
G01X6674579Y322561D01*
G01X6671927Y322939D01*
G01X6668518Y323318D01*
G01X6665867Y323697D01*
G01X6661700Y324455D01*
G01X6656776Y325970D01*
G01X6652609Y327485D01*
G01X6649579Y329000D01*
G01X6646927Y330515D01*
G01X6643518Y332788D01*
G01X6640488Y334682D01*
G01X6638594Y336197D01*
G01X6634048Y340743D01*
G01X6631776Y343773D01*
G01X6630261Y345667D01*
G01X6628367Y348318D01*
G01X6626094Y352106D01*
G01X6624200Y355136D01*
G01X6622685Y358167D01*
G01X6621170Y361576D01*
G01X6619655Y365364D01*
G01X6618139Y369909D01*
G01X6616624Y374833D01*
G01X6615488Y378621D01*
G01X6613973Y385439D01*
G01X6612458Y394530D01*
G01X6611700Y401348D01*
G01X6610942Y411954D01*
G01X6610564Y422182D01*
G01X6610704Y425970D01*
G01X6634048Y425970D01*
G01X6634427Y417257D01*
G01X6635185Y405894D01*
G01X6635564Y403243D01*
G01X6635943Y399076D01*
G01X6636700Y393773D01*
G01X6638215Y386197D01*
G01X6639351Y380894D01*
G01X6640867Y375970D01*
G01X6642382Y372182D01*
G01X6643897Y368773D01*
G01X6645791Y364985D01*
G01X6647685Y361955D01*
G01X6649200Y359682D01*
G01X6652230Y355894D01*
G01X6654124Y354000D01*
G01X6656018Y352485D01*
G01X6658291Y350970D01*
G01X6660942Y349454D01*
G01X6663594Y348318D01*
G01X6666624Y347182D01*
G01X6670412Y346424D01*
G01X6670412Y346424D01*
G01X6673064Y346046D01*
G01X6676094Y345667D01*
G01X6681397Y346046D01*
G01X6685942Y346803D01*
G01X6688973Y347561D01*
G01X6692382Y348697D01*
G01X6696170Y350591D01*
G01X6699579Y352864D01*
G01X6702230Y355136D01*
G01X6706018Y358924D01*
G01X6707533Y360818D01*
G01X6709049Y363091D01*
G01X6710564Y365742D01*
G01X6713594Y371803D01*
G01X6714730Y374455D01*
G01X6715867Y377485D01*
G01X6717003Y380894D01*
G01X6718139Y385439D01*
G01X6719276Y389227D01*
G01X6720791Y397561D01*
G01X6721548Y403621D01*
G01X6722306Y412712D01*
G01X6722685Y425591D01*
G01X6722306Y438470D01*
G01X6721548Y446803D01*
G01X6720791Y452106D01*
G01X6720033Y455894D01*
G01X6718897Y461197D01*
G01X6717382Y466121D01*
G01X6715867Y469909D01*
G01X6714352Y473318D01*
G01X6712457Y476727D01*
G01X6710185Y480136D01*
G01X6707912Y482788D01*
G01X6704124Y486576D01*
G01X6701851Y488091D01*
G01X6699200Y489606D01*
G01X6696170Y491121D01*
G01X6692382Y492258D01*
G01X6688973Y493015D01*
G01X6683670Y493394D01*
G01X6676852Y493015D01*
G01X6673064Y492258D01*
G01X6669655Y491500D01*
G01X6666245Y490364D01*
G01X6663215Y488848D01*
G01X6659427Y486576D01*
G01X6656397Y484303D01*
G01X6650715Y478621D01*
G01X6648442Y475591D01*
G01X6646170Y472182D01*
G01X6642382Y465364D01*
G01X6640867Y461955D01*
G01X6639351Y458167D01*
G01X6637836Y453621D01*
G01X6636700Y449833D01*
G01X6635185Y442258D01*
G01X6634427Y434682D01*
G01X6634048Y425970D01*
G01X6610704Y425970D01*
G01X6610942Y432409D01*
G01X6611321Y435818D01*
G01X6611700Y439985D01*
G01X6613215Y449076D01*
G01X6613973Y452106D01*
G01X6614730Y455894D01*
G01X6615867Y460061D01*
G01X6618139Y466879D01*
G01X6619655Y470667D01*
G01X6621170Y474076D01*
G01X6622685Y477106D01*
G01X6625715Y482409D01*
G01X6627609Y485818D01*
G01X6633291Y493773D01*
G01X6635185Y495667D01*
G01X6637079Y497939D01*
G01X6638973Y499833D01*
G01X6640867Y501349D01*
G01X6643518Y504000D01*
G01X6647306Y506652D01*
G01X6649957Y508545D01*
G01X6652609Y510061D01*
G01X6655639Y511576D01*
G01X6658670Y512712D01*
G01X6662079Y513849D01*
G01X6665867Y514985D01*
G01X6669276Y515742D01*
G01X6674579Y516500D01*
G01X6681018Y516879D01*
G01X6687458Y516500D01*
G01X6692003Y515742D01*
G01X6698064Y514606D01*
G01X6702988Y513091D01*
G01X6706397Y511576D01*
G01X6709427Y510061D01*
G01X6712836Y508167D01*
G01X6715488Y506652D01*
G01X6717382Y505136D01*
G01X6719276Y503242D01*
G01X6723064Y500212D01*
G01X6726094Y496424D01*
G01X6727988Y494530D01*
G01X6729882Y491879D01*
G01X6732155Y488470D01*
G01X6734427Y484682D01*
G01X6736321Y481652D01*
G01X6737836Y478621D01*
G01X6739352Y474833D01*
G01X6740867Y470667D01*
G01X6743518Y462712D01*
G01X6745033Y455894D01*
G01X6745791Y450591D01*
G01X6746549Y443773D01*
G01X6746927Y430515D01*
G01X6746549Y417257D01*
G01X6745791Y406651D01*
G01X6744276Y394530D01*
G01X6742761Y386197D01*
G01X6742003Y382788D01*
G01X6740867Y377864D01*
G01X6739730Y374076D01*
G01X6738973Y371045D01*
G01X6737836Y367636D01*
G01X6736700Y364606D01*
G01X6734427Y359303D01*
G01X6733291Y357030D01*
G01X6731776Y354379D01*
G01X6729882Y350591D01*
G01X6727988Y347939D01*
G01X6726851Y346046D01*
G01X6722306Y340364D01*
G01X6720412Y338470D01*
G01X6713594Y332788D01*
G01X6710564Y330894D01*
G01X6707154Y329000D01*
G01X6704124Y327485D01*
G01X6701094Y326349D01*
G01X6697685Y325212D01*
G01X6693518Y324076D01*
G01X6689730Y323318D01*
G01X6682155Y322561D01*
G01X6677988Y322182D01*
G37*
G36*
G01X6853746Y324455D02*
G01X6849200Y325212D01*
G01X6846927Y327106D01*
G01X6845033Y329000D01*
G01X6843518Y331652D01*
G01X6842761Y334682D01*
G01X6842382Y355894D01*
G01X6842761Y377106D01*
G01X6843518Y397561D01*
G01X6844276Y411197D01*
G01X6845033Y423318D01*
G01X6845362Y428242D01*
G01X6867382Y428242D01*
G01X6867666Y425212D01*
G01X6868518Y423697D01*
G01X6873064Y422939D01*
G01X6873064Y422939D01*
G01X6876852Y422560D01*
G01X6881397Y422182D01*
G01X6888973Y422560D01*
G01X6894276Y423318D01*
G01X6900336Y424833D01*
G01X6903745Y425970D01*
G01X6907155Y427485D01*
G01X6910185Y429000D01*
G01X6913215Y430894D01*
G01X6915867Y432788D01*
G01X6919655Y435818D01*
G01X6921170Y437333D01*
G01X6923442Y439985D01*
G01X6925715Y443394D01*
G01X6927230Y446045D01*
G01X6928745Y449455D01*
G01X6929882Y452864D01*
G01X6930639Y458167D01*
G01X6931018Y461197D01*
G01X6930639Y464985D01*
G01X6929882Y468773D01*
G01X6928745Y472561D01*
G01X6926852Y476349D01*
G01X6924958Y479000D01*
G01X6923442Y480894D01*
G01X6920791Y483545D01*
G01X6917761Y485818D01*
G01X6915488Y487333D01*
G01X6910185Y490364D01*
G01X6906776Y491879D01*
G01X6902988Y493394D01*
G01X6898442Y494530D01*
G01X6894276Y495288D01*
G01X6884806Y495667D01*
G01X6875336Y495288D01*
G01X6872306Y494909D01*
G01X6870412Y494909D01*
G01X6870412Y489227D01*
G01X6870033Y482409D01*
G01X6869276Y461197D01*
G01X6868518Y446803D01*
G01X6867761Y433167D01*
G01X6867382Y428242D01*
G01X6845362Y428242D01*
G01X6845791Y434682D01*
G01X6846548Y446803D01*
G01X6847306Y461955D01*
G01X6848064Y499833D01*
G01X6848821Y504379D01*
G01X6849958Y509303D01*
G01X6851094Y511955D01*
G01X6853367Y514606D01*
G01X6855355Y515742D01*
G01X6857533Y516121D01*
G01X6861321Y516500D01*
G01X6863973Y517258D01*
G01X6869276Y518015D01*
G01X6883670Y518773D01*
G01X6886700Y519152D01*
G01X6889730Y518773D01*
G01X6898821Y518015D01*
G01X6902609Y517258D01*
G01X6907533Y516121D01*
G01X6912079Y514606D01*
G01X6915488Y513091D01*
G01X6921549Y510061D01*
G01X6924200Y508545D01*
G01X6927230Y506652D01*
G01X6929882Y504758D01*
G01X6931776Y503242D01*
G01X6934427Y500970D01*
G01X6937458Y498697D01*
G01X6940488Y494909D01*
G01X6942382Y493015D01*
G01X6943897Y491121D01*
G01X6945412Y488848D01*
G01X6947306Y485818D01*
G01X6949200Y482030D01*
G01X6950715Y478242D01*
G01X6951851Y474454D01*
G01X6952609Y471046D01*
G01X6952988Y464985D01*
G01X6952609Y456652D01*
G01X6951851Y452106D01*
G01X6951094Y447939D01*
G01X6949958Y443394D01*
G01X6948821Y440364D01*
G01X6947685Y437712D01*
G01X6944276Y430894D01*
G01X6941624Y427106D01*
G01X6939352Y424076D01*
G01X6931776Y416500D01*
G01X6929124Y414227D01*
G01X6926473Y412333D01*
G01X6921927Y409303D01*
G01X6919276Y407788D01*
G01X6916246Y406273D01*
G01X6913594Y405136D01*
G01X6910564Y404000D01*
G01X6903745Y401727D01*
G01X6899579Y400591D01*
G01X6895791Y399833D01*
G01X6888973Y399076D01*
G01X6883670Y398697D01*
G01X6878367Y399076D01*
G01X6868139Y400212D01*
G01X6865867Y400212D01*
G01X6865867Y396424D01*
G01X6865488Y391500D01*
G01X6865109Y363091D01*
G01X6864352Y333167D01*
G01X6862079Y328621D01*
G01X6858670Y325591D01*
G01X6853746Y324455D01*
G37*
G36*
G01X6559427Y324076D02*
G01X6554124Y324455D01*
G01X6550715Y325970D01*
G01X6548821Y327485D01*
G01X6546927Y329758D01*
G01X6545412Y332788D01*
G01X6544655Y336576D01*
G01X6544276Y339985D01*
G01X6544276Y342258D01*
G01X6544655Y362333D01*
G01X6544655Y381273D01*
G01X6535185Y381273D01*
G01X6524579Y381652D01*
G01X6494276Y382409D01*
G01X6472306Y383167D01*
G01X6467003Y383924D01*
G01X6463973Y384682D01*
G01X6460942Y385818D01*
G01X6458670Y387333D01*
G01X6457154Y389985D01*
G01X6457154Y394530D01*
G01X6458670Y399076D01*
G01X6462963Y405515D01*
G01X6493897Y405515D01*
G01X6507533Y405515D01*
G01X6507533Y405515D01*
G01X6521549Y405136D01*
G01X6533291Y404758D01*
G01X6544655Y404758D01*
G01X6544655Y442636D01*
G01X6544276Y481652D01*
G01X6543708Y482125D01*
G01X6542761Y481273D01*
G01X6540867Y478621D01*
G01X6538973Y475591D01*
G01X6536700Y471803D01*
G01X6534427Y468394D01*
G01X6530639Y462333D01*
G01X6528367Y458924D01*
G01X6526094Y455136D01*
G01X6521549Y448318D01*
G01X6519276Y444530D01*
G01X6498821Y413849D01*
G01X6496927Y411197D01*
G01X6495412Y409303D01*
G01X6494276Y407030D01*
G01X6493897Y405515D01*
G01X6462963Y405515D01*
G01X6463215Y405894D01*
G01X6465488Y408546D01*
G01X6469276Y413091D01*
G01X6472306Y416879D01*
G01X6474579Y419530D01*
G01X6479882Y427106D01*
G01X6484427Y433924D01*
G01X6488215Y439227D01*
G01X6492761Y446045D01*
G01X6498064Y453621D01*
G01X6502609Y460440D01*
G01X6507912Y468015D01*
G01X6512458Y474833D01*
G01X6516246Y480136D01*
G01X6520791Y486955D01*
G01X6526094Y494530D01*
G01X6530639Y501349D01*
G01X6532533Y504000D01*
G01X6534048Y506273D01*
G01X6535942Y508545D01*
G01X6539730Y512333D01*
G01X6541624Y513849D01*
G01X6543897Y514985D01*
G01X6546927Y516121D01*
G01X6551094Y517258D01*
G01X6556397Y517258D01*
G01X6560185Y516500D01*
G01X6563215Y515364D01*
G01X6565867Y513470D01*
G01X6567382Y510818D01*
G01X6568140Y456652D01*
G01X6568140Y404000D01*
G01X6573443Y404000D01*
G01X6580639Y403621D01*
G01X6584427Y402864D01*
G01X6588215Y401727D01*
G01X6591624Y399833D01*
G01X6594276Y397182D01*
G01X6595412Y393015D01*
G01X6594655Y388470D01*
G01X6593139Y385818D01*
G01X6591624Y383924D01*
G01X6588973Y382030D01*
G01X6585942Y380894D01*
G01X6576473Y380515D01*
G01X6568140Y380515D01*
G01X6568140Y357788D01*
G01X6567761Y333167D01*
G01X6566624Y329379D01*
G01X6563973Y325970D01*
G01X6559427Y324076D01*
G37*
G54D10*
G01X5210302Y1717040D02*
G01X5207254Y1723390D01*
G01X5200904Y1729486D01*
G01X5194808Y1732534D01*
G01X5182362Y1732534D01*
G01X5176266Y1729486D01*
G01X5169916Y1723390D01*
G01X5166868Y1717040D01*
G01X5163820Y1707896D01*
G01X5163820Y1692402D01*
G01X5166868Y1683004D01*
G01X5169916Y1676908D01*
G01X5176266Y1670558D01*
G01X5182362Y1667510D01*
G01X5194808Y1667510D01*
G01X5200904Y1670558D01*
G01X5207254Y1676908D01*
G01X5210302Y1683004D01*
G01X5240528Y1720088D02*
G01X5246624Y1723390D01*
G01X5255768Y1732534D01*
G01X5255768Y1667510D01*
G01X3495802Y1844040D02*
G01X3492754Y1850390D01*
G01X3486404Y1856486D01*
G01X3480308Y1859534D01*
G01X3467862Y1859534D01*
G01X3461766Y1856486D01*
G01X3455416Y1850390D01*
G01X3452368Y1844040D01*
G01X3449320Y1834896D01*
G01X3449320Y1819402D01*
G01X3452368Y1810004D01*
G01X3455416Y1803908D01*
G01X3461766Y1797558D01*
G01X3467862Y1794510D01*
G01X3480308Y1794510D01*
G01X3486404Y1797558D01*
G01X3492754Y1803908D01*
G01X3495802Y1810004D01*
G01X3529076Y1844040D02*
G01X3529076Y1847088D01*
G01X3532124Y1853438D01*
G01X3535172Y1856486D01*
G01X3541268Y1859534D01*
G01X3553714Y1859534D01*
G01X3560064Y1856486D01*
G01X3563112Y1853438D01*
G01X3566160Y1847088D01*
G01X3566160Y1840992D01*
G01X3563112Y1834896D01*
G01X3556762Y1825498D01*
G01X3526028Y1794510D01*
G01X3569208Y1794510D01*
G01X2911602Y1767840D02*
G01X2908554Y1774190D01*
G01X2902204Y1780286D01*
G01X2896108Y1783334D01*
G01X2883662Y1783334D01*
G01X2877566Y1780286D01*
G01X2871216Y1774190D01*
G01X2868168Y1767840D01*
G01X2865120Y1758696D01*
G01X2865120Y1743202D01*
G01X2868168Y1733804D01*
G01X2871216Y1727708D01*
G01X2877566Y1721358D01*
G01X2883662Y1718310D01*
G01X2896108Y1718310D01*
G01X2902204Y1721358D01*
G01X2908554Y1727708D01*
G01X2911602Y1733804D01*
G01X2947924Y1783334D02*
G01X2981960Y1783334D01*
G01X2963418Y1758696D01*
G01X2972562Y1758696D01*
G01X2978912Y1755648D01*
G01X2981960Y1752346D01*
G01X2985008Y1743202D01*
G01X2985008Y1736852D01*
G01X2981960Y1727708D01*
G01X2975864Y1721358D01*
G01X2966466Y1718310D01*
G01X2957068Y1718310D01*
G01X2947924Y1721358D01*
G01X2944876Y1724660D01*
G01X2941828Y1730756D01*
G01X7255002Y624840D02*
G01X7251954Y631190D01*
G01X7245604Y637286D01*
G01X7239508Y640334D01*
G01X7227062Y640334D01*
G01X7220966Y637286D01*
G01X7214616Y631190D01*
G01X7211568Y624840D01*
G01X7208520Y615696D01*
G01X7208520Y600202D01*
G01X7211568Y590804D01*
G01X7214616Y584708D01*
G01X7220966Y578358D01*
G01X7227062Y575310D01*
G01X7239508Y575310D01*
G01X7245604Y578358D01*
G01X7251954Y584708D01*
G01X7255002Y590804D01*
G01X7315962Y640334D02*
G01X7285228Y597154D01*
G01X7331456Y597154D01*
G01X7315962Y640334D02*
G01X7315962Y575310D01*
G01X9020302Y1920240D02*
G01X9017254Y1926590D01*
G01X9010904Y1932686D01*
G01X9004808Y1935734D01*
G01X8992362Y1935734D01*
G01X8986266Y1932686D01*
G01X8979916Y1926590D01*
G01X8976868Y1920240D01*
G01X8973820Y1911096D01*
G01X8973820Y1895602D01*
G01X8976868Y1886204D01*
G01X8979916Y1880108D01*
G01X8986266Y1873758D01*
G01X8992362Y1870710D01*
G01X9004808Y1870710D01*
G01X9010904Y1873758D01*
G01X9017254Y1880108D01*
G01X9020302Y1886204D01*
G01X9087612Y1935734D02*
G01X9056624Y1935734D01*
G01X9053576Y1908048D01*
G01X9056624Y1911096D01*
G01X9065768Y1914144D01*
G01X9075166Y1914144D01*
G01X9084564Y1911096D01*
G01X9090660Y1904746D01*
G01X9093708Y1895602D01*
G01X9093708Y1889252D01*
G01X9090660Y1880108D01*
G01X9084564Y1873758D01*
G01X9075166Y1870710D01*
G01X9065768Y1870710D01*
G01X9056624Y1873758D01*
G01X9053576Y1877060D01*
G01X9050528Y1883156D01*
G01X8029702Y1590040D02*
G01X8026654Y1596390D01*
G01X8020304Y1602486D01*
G01X8014208Y1605534D01*
G01X8001762Y1605534D01*
G01X7995666Y1602486D01*
G01X7989316Y1596390D01*
G01X7986268Y1590040D01*
G01X7983220Y1580896D01*
G01X7983220Y1565402D01*
G01X7986268Y1556004D01*
G01X7989316Y1549908D01*
G01X7995666Y1543558D01*
G01X8001762Y1540510D01*
G01X8014208Y1540510D01*
G01X8020304Y1543558D01*
G01X8026654Y1549908D01*
G01X8029702Y1556004D01*
G01X8097012Y1596390D02*
G01X8093964Y1602486D01*
G01X8084566Y1605534D01*
G01X8078470Y1605534D01*
G01X8069072Y1602486D01*
G01X8062976Y1593088D01*
G01X8059928Y1577848D01*
G01X8059928Y1562354D01*
G01X8062976Y1549908D01*
G01X8069072Y1543558D01*
G01X8078470Y1540510D01*
G01X8081518Y1540510D01*
G01X8090662Y1543558D01*
G01X8097012Y1549908D01*
G01X8100060Y1559052D01*
G01X8100060Y1562354D01*
G01X8097012Y1571498D01*
G01X8090662Y1577848D01*
G01X8081518Y1580896D01*
G01X8078470Y1580896D01*
G01X8069072Y1577848D01*
G01X8062976Y1571498D01*
G01X8059928Y1562354D01*
G01X6708902Y1691640D02*
G01X6705854Y1697990D01*
G01X6699504Y1704086D01*
G01X6693408Y1707134D01*
G01X6680962Y1707134D01*
G01X6674866Y1704086D01*
G01X6668516Y1697990D01*
G01X6665468Y1691640D01*
G01X6662420Y1682496D01*
G01X6662420Y1667002D01*
G01X6665468Y1657604D01*
G01X6668516Y1651508D01*
G01X6674866Y1645158D01*
G01X6680962Y1642110D01*
G01X6693408Y1642110D01*
G01X6699504Y1645158D01*
G01X6705854Y1651508D01*
G01X6708902Y1657604D01*
G01X6782308Y1707134D02*
G01X6751320Y1642110D01*
G01X6739128Y1707134D02*
G01X6782308Y1707134D01*
G01X6162802Y1285240D02*
G01X6159754Y1291590D01*
G01X6153404Y1297686D01*
G01X6147308Y1300734D01*
G01X6134862Y1300734D01*
G01X6128766Y1297686D01*
G01X6122416Y1291590D01*
G01X6119368Y1285240D01*
G01X6116320Y1276096D01*
G01X6116320Y1260602D01*
G01X6119368Y1251204D01*
G01X6122416Y1245108D01*
G01X6128766Y1238758D01*
G01X6134862Y1235710D01*
G01X6147308Y1235710D01*
G01X6153404Y1238758D01*
G01X6159754Y1245108D01*
G01X6162802Y1251204D01*
G01X6193028Y1288288D02*
G01X6199124Y1291590D01*
G01X6208268Y1300734D01*
G01X6208268Y1235710D01*
G01X6257036Y1300734D02*
G01X6247638Y1297686D01*
G01X6241542Y1288288D01*
G01X6238494Y1273048D01*
G01X6238494Y1263650D01*
G01X6241542Y1248156D01*
G01X6247638Y1238758D01*
G01X6257036Y1235710D01*
G01X6263132Y1235710D01*
G01X6272530Y1238758D01*
G01X6278626Y1248156D01*
G01X6281674Y1263650D01*
G01X6281674Y1273048D01*
G01X6278626Y1288288D01*
G01X6272530Y1297686D01*
G01X6263132Y1300734D01*
G01X6257036Y1300734D01*
G01X8670290Y1161034D02*
G01X8670290Y1096010D01*
G01X8670290Y1161034D02*
G01X8698230Y1161034D01*
G01X8707374Y1157986D01*
G01X8710422Y1154938D01*
G01X8713724Y1148588D01*
G01X8713724Y1142492D01*
G01X8710422Y1136396D01*
G01X8707374Y1133348D01*
G01X8698230Y1130046D01*
G01X8670290Y1130046D01*
G01X8691880Y1130046D02*
G01X8713724Y1096010D01*
G01X8743950Y1148588D02*
G01X8750046Y1151890D01*
G01X8759190Y1161034D01*
G01X8759190Y1096010D01*
G01X8656320Y1478534D02*
G01X8656320Y1413510D01*
G01X8656320Y1478534D02*
G01X8684260Y1478534D01*
G01X8693404Y1475486D01*
G01X8696452Y1472438D01*
G01X8699754Y1466088D01*
G01X8699754Y1459992D01*
G01X8696452Y1453896D01*
G01X8693404Y1450848D01*
G01X8684260Y1447546D01*
G01X8656320Y1447546D01*
G01X8677910Y1447546D02*
G01X8699754Y1413510D01*
G01X8733028Y1463040D02*
G01X8733028Y1466088D01*
G01X8736076Y1472438D01*
G01X8739124Y1475486D01*
G01X8745220Y1478534D01*
G01X8757666Y1478534D01*
G01X8764016Y1475486D01*
G01X8767064Y1472438D01*
G01X8770112Y1466088D01*
G01X8770112Y1459992D01*
G01X8767064Y1453896D01*
G01X8760714Y1444498D01*
G01X8729980Y1413510D01*
G01X8773160Y1413510D01*
G01X7005320Y1719834D02*
G01X7005320Y1673352D01*
G01X7008368Y1664208D01*
G01X7014718Y1657858D01*
G01X7023862Y1654810D01*
G01X7030212Y1654810D01*
G01X7039356Y1657858D01*
G01X7045452Y1664208D01*
G01X7048754Y1673352D01*
G01X7048754Y1719834D01*
G01X7078980Y1707388D02*
G01X7085076Y1710690D01*
G01X7094220Y1719834D01*
G01X7094220Y1654810D01*
G01X8529320Y373634D02*
G01X8529320Y327152D01*
G01X8532368Y318008D01*
G01X8538718Y311658D01*
G01X8547862Y308610D01*
G01X8554212Y308610D01*
G01X8563356Y311658D01*
G01X8569452Y318008D01*
G01X8572754Y327152D01*
G01X8572754Y373634D01*
G01X8646160Y364490D02*
G01X8640064Y370586D01*
G01X8630666Y373634D01*
G01X8618220Y373634D01*
G01X8609076Y370586D01*
G01X8602980Y364490D01*
G01X8602980Y358140D01*
G01X8606028Y352044D01*
G01X8609076Y348996D01*
G01X8615172Y345948D01*
G01X8633714Y339598D01*
G01X8640064Y336550D01*
G01X8643112Y333502D01*
G01X8646160Y327152D01*
G01X8646160Y318008D01*
G01X8640064Y311658D01*
G01X8630666Y308610D01*
G01X8618220Y308610D01*
G01X8609076Y311658D01*
G01X8602980Y318008D01*
G01X8676386Y373634D02*
G01X8676386Y308610D01*
G01X8676386Y373634D02*
G01X8704072Y373634D01*
G01X8713470Y370586D01*
G01X8716518Y367538D01*
G01X8719566Y361188D01*
G01X8719566Y355092D01*
G01X8716518Y348996D01*
G01X8713470Y345948D01*
G01X8704072Y342646D01*
G01X8676386Y342646D02*
G01X8704072Y342646D01*
G01X8713470Y339598D01*
G01X8716518Y336550D01*
G01X8719566Y330454D01*
G01X8719566Y321056D01*
G01X8716518Y314960D01*
G01X8713470Y311658D01*
G01X8704072Y308610D01*
G01X8676386Y308610D01*
G01X8749792Y361188D02*
G01X8755888Y364490D01*
G01X8765032Y373634D01*
G01X8765032Y308610D01*
G01X4694842Y1298133D02*
G01X4694842Y1251651D01*
G01X4697890Y1242507D01*
G01X4704240Y1236157D01*
G01X4713384Y1233109D01*
G01X4719734Y1233109D01*
G01X4728878Y1236157D01*
G01X4734974Y1242507D01*
G01X4738276Y1251651D01*
G01X4738276Y1298133D01*
G01X4811682Y1288989D02*
G01X4805586Y1295085D01*
G01X4796188Y1298133D01*
G01X4783742Y1298133D01*
G01X4774598Y1295085D01*
G01X4768502Y1288989D01*
G01X4768502Y1282639D01*
G01X4771550Y1276543D01*
G01X4774598Y1273495D01*
G01X4780694Y1270447D01*
G01X4799236Y1264097D01*
G01X4805586Y1261049D01*
G01X4808634Y1258001D01*
G01X4811682Y1251651D01*
G01X4811682Y1242507D01*
G01X4805586Y1236157D01*
G01X4796188Y1233109D01*
G01X4783742Y1233109D01*
G01X4774598Y1236157D01*
G01X4768502Y1242507D01*
G01X4841908Y1298133D02*
G01X4841908Y1233109D01*
G01X4841908Y1298133D02*
G01X4869594Y1298133D01*
G01X4878992Y1295085D01*
G01X4882040Y1292037D01*
G01X4885088Y1285687D01*
G01X4885088Y1279591D01*
G01X4882040Y1273495D01*
G01X4878992Y1270447D01*
G01X4869594Y1267145D01*
G01X4841908Y1267145D02*
G01X4869594Y1267145D01*
G01X4878992Y1264097D01*
G01X4882040Y1261049D01*
G01X4885088Y1254953D01*
G01X4885088Y1245555D01*
G01X4882040Y1239459D01*
G01X4878992Y1236157D01*
G01X4869594Y1233109D01*
G01X4841908Y1233109D01*
G01X4918362Y1282639D02*
G01X4918362Y1285687D01*
G01X4921410Y1292037D01*
G01X4924458Y1295085D01*
G01X4930554Y1298133D01*
G01X4943000Y1298133D01*
G01X4949350Y1295085D01*
G01X4952398Y1292037D01*
G01X4955446Y1285687D01*
G01X4955446Y1279591D01*
G01X4952398Y1273495D01*
G01X4946048Y1264097D01*
G01X4915314Y1233109D01*
G01X4958494Y1233109D01*
G01X3043334Y1300734D02*
G01X3043334Y1254252D01*
G01X3046382Y1245108D01*
G01X3052732Y1238758D01*
G01X3061876Y1235710D01*
G01X3068226Y1235710D01*
G01X3077370Y1238758D01*
G01X3083466Y1245108D01*
G01X3086768Y1254252D01*
G01X3086768Y1300734D01*
G01X3160174Y1291590D02*
G01X3154078Y1297686D01*
G01X3144680Y1300734D01*
G01X3132234Y1300734D01*
G01X3123090Y1297686D01*
G01X3116994Y1291590D01*
G01X3116994Y1285240D01*
G01X3120042Y1279144D01*
G01X3123090Y1276096D01*
G01X3129186Y1273048D01*
G01X3147728Y1266698D01*
G01X3154078Y1263650D01*
G01X3157126Y1260602D01*
G01X3160174Y1254252D01*
G01X3160174Y1245108D01*
G01X3154078Y1238758D01*
G01X3144680Y1235710D01*
G01X3132234Y1235710D01*
G01X3123090Y1238758D01*
G01X3116994Y1245108D01*
G01X3190400Y1300734D02*
G01X3190400Y1235710D01*
G01X3190400Y1300734D02*
G01X3218086Y1300734D01*
G01X3227484Y1297686D01*
G01X3230532Y1294638D01*
G01X3233580Y1288288D01*
G01X3233580Y1282192D01*
G01X3230532Y1276096D01*
G01X3227484Y1273048D01*
G01X3218086Y1269746D01*
G01X3190400Y1269746D02*
G01X3218086Y1269746D01*
G01X3227484Y1266698D01*
G01X3230532Y1263650D01*
G01X3233580Y1257554D01*
G01X3233580Y1248156D01*
G01X3230532Y1242060D01*
G01X3227484Y1238758D01*
G01X3218086Y1235710D01*
G01X3190400Y1235710D01*
G01X3269902Y1300734D02*
G01X3303938Y1300734D01*
G01X3285396Y1276096D01*
G01X3294540Y1276096D01*
G01X3300890Y1273048D01*
G01X3303938Y1269746D01*
G01X3306986Y1260602D01*
G01X3306986Y1254252D01*
G01X3303938Y1245108D01*
G01X3297842Y1238758D01*
G01X3288444Y1235710D01*
G01X3279046Y1235710D01*
G01X3269902Y1238758D01*
G01X3266854Y1242060D01*
G01X3263806Y1248156D01*
G01X1429926Y1313434D02*
G01X1429926Y1266952D01*
G01X1432974Y1257808D01*
G01X1439324Y1251458D01*
G01X1448468Y1248410D01*
G01X1454818Y1248410D01*
G01X1463962Y1251458D01*
G01X1470058Y1257808D01*
G01X1473360Y1266952D01*
G01X1473360Y1313434D01*
G01X1546766Y1304290D02*
G01X1540670Y1310386D01*
G01X1531272Y1313434D01*
G01X1518826Y1313434D01*
G01X1509682Y1310386D01*
G01X1503586Y1304290D01*
G01X1503586Y1297940D01*
G01X1506634Y1291844D01*
G01X1509682Y1288796D01*
G01X1515778Y1285748D01*
G01X1534320Y1279398D01*
G01X1540670Y1276350D01*
G01X1543718Y1273302D01*
G01X1546766Y1266952D01*
G01X1546766Y1257808D01*
G01X1540670Y1251458D01*
G01X1531272Y1248410D01*
G01X1518826Y1248410D01*
G01X1509682Y1251458D01*
G01X1503586Y1257808D01*
G01X1576992Y1313434D02*
G01X1576992Y1248410D01*
G01X1576992Y1313434D02*
G01X1604678Y1313434D01*
G01X1614076Y1310386D01*
G01X1617124Y1307338D01*
G01X1620172Y1300988D01*
G01X1620172Y1294892D01*
G01X1617124Y1288796D01*
G01X1614076Y1285748D01*
G01X1604678Y1282446D01*
G01X1576992Y1282446D02*
G01X1604678Y1282446D01*
G01X1614076Y1279398D01*
G01X1617124Y1276350D01*
G01X1620172Y1270254D01*
G01X1620172Y1260856D01*
G01X1617124Y1254760D01*
G01X1614076Y1251458D01*
G01X1604678Y1248410D01*
G01X1576992Y1248410D01*
G01X1681132Y1313434D02*
G01X1650398Y1270254D01*
G01X1696626Y1270254D01*
G01X1681132Y1313434D02*
G01X1681132Y1248410D01*
G01X9431020Y1897634D02*
G01X9431020Y1851152D01*
G01X9434068Y1842008D01*
G01X9440418Y1835658D01*
G01X9449562Y1832610D01*
G01X9455912Y1832610D01*
G01X9465056Y1835658D01*
G01X9471152Y1842008D01*
G01X9474454Y1851152D01*
G01X9474454Y1897634D01*
G01X9547860Y1888490D02*
G01X9541764Y1894586D01*
G01X9532366Y1897634D01*
G01X9519920Y1897634D01*
G01X9510776Y1894586D01*
G01X9504680Y1888490D01*
G01X9504680Y1882140D01*
G01X9507728Y1876044D01*
G01X9510776Y1872996D01*
G01X9516872Y1869948D01*
G01X9535414Y1863598D01*
G01X9541764Y1860550D01*
G01X9544812Y1857502D01*
G01X9547860Y1851152D01*
G01X9547860Y1842008D01*
G01X9541764Y1835658D01*
G01X9532366Y1832610D01*
G01X9519920Y1832610D01*
G01X9510776Y1835658D01*
G01X9504680Y1842008D01*
G01X9578086Y1897634D02*
G01X9578086Y1832610D01*
G01X9578086Y1897634D02*
G01X9605772Y1897634D01*
G01X9615170Y1894586D01*
G01X9618218Y1891538D01*
G01X9621266Y1885188D01*
G01X9621266Y1879092D01*
G01X9618218Y1872996D01*
G01X9615170Y1869948D01*
G01X9605772Y1866646D01*
G01X9578086Y1866646D02*
G01X9605772Y1866646D01*
G01X9615170Y1863598D01*
G01X9618218Y1860550D01*
G01X9621266Y1854454D01*
G01X9621266Y1845056D01*
G01X9618218Y1838960D01*
G01X9615170Y1835658D01*
G01X9605772Y1832610D01*
G01X9578086Y1832610D01*
G01X9688576Y1888490D02*
G01X9685528Y1894586D01*
G01X9676130Y1897634D01*
G01X9670034Y1897634D01*
G01X9660636Y1894586D01*
G01X9654540Y1885188D01*
G01X9651492Y1869948D01*
G01X9651492Y1854454D01*
G01X9654540Y1842008D01*
G01X9660636Y1835658D01*
G01X9670034Y1832610D01*
G01X9673082Y1832610D01*
G01X9682226Y1835658D01*
G01X9688576Y1842008D01*
G01X9691624Y1851152D01*
G01X9691624Y1854454D01*
G01X9688576Y1863598D01*
G01X9682226Y1869948D01*
G01X9673082Y1872996D01*
G01X9670034Y1872996D01*
G01X9660636Y1869948D01*
G01X9654540Y1863598D01*
G01X9651492Y1854454D01*
G01X6708902Y1844040D02*
G01X6705854Y1850390D01*
G01X6699504Y1856486D01*
G01X6693408Y1859534D01*
G01X6680962Y1859534D01*
G01X6674866Y1856486D01*
G01X6668516Y1850390D01*
G01X6665468Y1844040D01*
G01X6662420Y1834896D01*
G01X6662420Y1819402D01*
G01X6665468Y1810004D01*
G01X6668516Y1803908D01*
G01X6674866Y1797558D01*
G01X6680962Y1794510D01*
G01X6693408Y1794510D01*
G01X6699504Y1797558D01*
G01X6705854Y1803908D01*
G01X6708902Y1810004D01*
G01X6754368Y1859534D02*
G01X6745224Y1856486D01*
G01X6742176Y1850390D01*
G01X6742176Y1844040D01*
G01X6745224Y1837944D01*
G01X6751320Y1834896D01*
G01X6763766Y1831848D01*
G01X6773164Y1828546D01*
G01X6779260Y1822450D01*
G01X6782308Y1816354D01*
G01X6782308Y1806956D01*
G01X6779260Y1800860D01*
G01X6776212Y1797558D01*
G01X6766814Y1794510D01*
G01X6754368Y1794510D01*
G01X6745224Y1797558D01*
G01X6742176Y1800860D01*
G01X6739128Y1806956D01*
G01X6739128Y1816354D01*
G01X6742176Y1822450D01*
G01X6748272Y1828546D01*
G01X6757670Y1831848D01*
G01X6769862Y1834896D01*
G01X6776212Y1837944D01*
G01X6779260Y1844040D01*
G01X6779260Y1850390D01*
G01X6776212Y1856486D01*
G01X6766814Y1859534D01*
G01X6754368Y1859534D01*
G01X7305802Y1856740D02*
G01X7302754Y1863090D01*
G01X7296404Y1869186D01*
G01X7290308Y1872234D01*
G01X7277862Y1872234D01*
G01X7271766Y1869186D01*
G01X7265416Y1863090D01*
G01X7262368Y1856740D01*
G01X7259320Y1847596D01*
G01X7259320Y1832102D01*
G01X7262368Y1822704D01*
G01X7265416Y1816608D01*
G01X7271766Y1810258D01*
G01X7277862Y1807210D01*
G01X7290308Y1807210D01*
G01X7296404Y1810258D01*
G01X7302754Y1816608D01*
G01X7305802Y1822704D01*
G01X7376160Y1850644D02*
G01X7373112Y1841246D01*
G01X7366762Y1835150D01*
G01X7357618Y1832102D01*
G01X7354570Y1832102D01*
G01X7345172Y1835150D01*
G01X7339076Y1841246D01*
G01X7336028Y1850644D01*
G01X7336028Y1853692D01*
G01X7339076Y1863090D01*
G01X7345172Y1869186D01*
G01X7354570Y1872234D01*
G01X7357618Y1872234D01*
G01X7366762Y1869186D01*
G01X7373112Y1863090D01*
G01X7376160Y1850644D01*
G01X7376160Y1835150D01*
G01X7373112Y1819656D01*
G01X7366762Y1810258D01*
G01X7357618Y1807210D01*
G01X7351268Y1807210D01*
G01X7342124Y1810258D01*
G01X7339076Y1816608D01*
G01X6188202Y1463040D02*
G01X6185154Y1469390D01*
G01X6178804Y1475486D01*
G01X6172708Y1478534D01*
G01X6160262Y1478534D01*
G01X6154166Y1475486D01*
G01X6147816Y1469390D01*
G01X6144768Y1463040D01*
G01X6141720Y1453896D01*
G01X6141720Y1438402D01*
G01X6144768Y1429004D01*
G01X6147816Y1422908D01*
G01X6154166Y1416558D01*
G01X6160262Y1413510D01*
G01X6172708Y1413510D01*
G01X6178804Y1416558D01*
G01X6185154Y1422908D01*
G01X6188202Y1429004D01*
G01X6218428Y1466088D02*
G01X6224524Y1469390D01*
G01X6233668Y1478534D01*
G01X6233668Y1413510D01*
G01X6263894Y1466088D02*
G01X6269990Y1469390D01*
G01X6279134Y1478534D01*
G01X6279134Y1413510D01*
G01X7564120Y1224534D02*
G01X7564120Y1159510D01*
G01X7564120Y1224534D02*
G01X7592060Y1224534D01*
G01X7601204Y1221486D01*
G01X7604252Y1218438D01*
G01X7607554Y1212088D01*
G01X7607554Y1205992D01*
G01X7604252Y1199896D01*
G01X7601204Y1196848D01*
G01X7592060Y1193546D01*
G01X7564120Y1193546D01*
G01X7585710Y1193546D02*
G01X7607554Y1159510D01*
G01X7643876Y1224534D02*
G01X7677912Y1224534D01*
G01X7659370Y1199896D01*
G01X7668514Y1199896D01*
G01X7674864Y1196848D01*
G01X7677912Y1193546D01*
G01X7680960Y1184402D01*
G01X7680960Y1178052D01*
G01X7677912Y1168908D01*
G01X7671816Y1162558D01*
G01X7662418Y1159510D01*
G01X7653020Y1159510D01*
G01X7643876Y1162558D01*
G01X7640828Y1165860D01*
G01X7637780Y1171956D01*
G01X8186420Y1224534D02*
G01X8186420Y1159510D01*
G01X8186420Y1224534D02*
G01X8214360Y1224534D01*
G01X8223504Y1221486D01*
G01X8226552Y1218438D01*
G01X8229854Y1212088D01*
G01X8229854Y1205992D01*
G01X8226552Y1199896D01*
G01X8223504Y1196848D01*
G01X8214360Y1193546D01*
G01X8186420Y1193546D01*
G01X8208010Y1193546D02*
G01X8229854Y1159510D01*
G01X8290814Y1224534D02*
G01X8260080Y1181354D01*
G01X8306308Y1181354D01*
G01X8290814Y1224534D02*
G01X8290814Y1159510D01*
G04 Text End*

G04 PolygonModel Start*
G54D11*
G01X4983643Y1640919D02*
G01X4983643Y1720916D01*
G01X4983597Y1584874D02*
G01X4983597Y1504876D01*
G01X5125611Y1640919D02*
G01X5125611Y1720916D01*
G01X5125563Y1584874D02*
G01X5125563Y1504876D01*
G01X5014625Y1751891D02*
G01X5094630Y1751891D01*
G01X5094577Y1473899D02*
G01X5014575Y1473899D01*
G01X5125563Y1504881D02*
G02X5094577Y1473899I-30983J0D01*
G01X5014580Y1473899D02*
G02X4983597Y1504881I0J30983D01*
G01X4983643Y1720911D02*
G02X5014625Y1751891I30983J-3D01*
G01X5094623Y1751891D02*
G02X5125611Y1720911I5J-30983D01*
G01X3370743Y1640919D02*
G01X3370743Y1720916D01*
G01X3370697Y1584874D02*
G01X3370697Y1504876D01*
G01X3512711Y1640919D02*
G01X3512711Y1720916D01*
G01X3512663Y1584874D02*
G01X3512663Y1504876D01*
G01X3401725Y1751891D02*
G01X3481730Y1751891D01*
G01X3481677Y1473899D02*
G01X3401675Y1473899D01*
G01X3512663Y1504881D02*
G02X3481677Y1473899I-30983J0D01*
G01X3401680Y1473899D02*
G02X3370697Y1504881I0J30983D01*
G01X3370743Y1720911D02*
G02X3401725Y1751891I30983J-3D01*
G01X3481723Y1751891D02*
G02X3512711Y1720911I5J-30983D01*
G01X2936320Y1671166D02*
G01X3016317Y1671166D01*
G01X2880275Y1671212D02*
G01X2800278Y1671212D01*
G01X2936320Y1529198D02*
G01X3016317Y1529198D01*
G01X2880275Y1529246D02*
G01X2800278Y1529246D01*
G01X3047293Y1640183D02*
G01X3047293Y1560178D01*
G01X2769300Y1560232D02*
G01X2769300Y1640234D01*
G01X2800283Y1529246D02*
G02X2769300Y1560232I0J30983D01*
G01X2769300Y1640229D02*
G02X2800283Y1671212I30983J0D01*
G01X3016312Y1671166D02*
G02X3047293Y1640183I-3J-30983D01*
G01X3047293Y1560186D02*
G02X3016312Y1529198I-30983J-5D01*
G01X7205878Y858048D02*
G01X7205878Y938045D01*
G01X7205833Y802003D02*
G01X7205833Y722005D01*
G01X7347847Y858048D02*
G01X7347847Y938045D01*
G01X7347798Y802003D02*
G01X7347798Y722005D01*
G01X7236861Y969020D02*
G01X7316866Y969020D01*
G01X7316813Y691028D02*
G01X7236811Y691028D01*
G01X7347798Y722010D02*
G02X7316813Y691028I-30983J0D01*
G01X7236816Y691028D02*
G02X7205833Y722010I0J30983D01*
G01X7205878Y938040D02*
G02X7236861Y969020I30983J-3D01*
G01X7316859Y969020D02*
G02X7347847Y938040I5J-30983D01*
G01X9113357Y1661081D02*
G01X9113357Y1581084D01*
G01X9113403Y1717126D02*
G01X9113403Y1797124D01*
G01X8971389Y1661081D02*
G01X8971389Y1581084D01*
G01X8971437Y1717126D02*
G01X8971437Y1797124D01*
G01X9082375Y1550109D02*
G01X9002370Y1550109D01*
G01X9002423Y1828102D02*
G01X9082425Y1828102D01*
G01X8971437Y1797119D02*
G02X9002423Y1828102I30983J0D01*
G01X9082420Y1828102D02*
G02X9113403Y1797119I0J-30983D01*
G01X9113357Y1581089D02*
G02X9082375Y1550109I-30983J3D01*
G01X9002377Y1550109D02*
G02X8971389Y1581089I-5J30983D01*
G01X7572858Y1634099D02*
G01X7652855Y1634099D01*
G01X7516813Y1634145D02*
G01X7436815Y1634145D01*
G01X7572858Y1492131D02*
G01X7652855Y1492131D01*
G01X7516813Y1492179D02*
G01X7436815Y1492179D01*
G01X7683830Y1603116D02*
G01X7683830Y1523111D01*
G01X7405837Y1523164D02*
G01X7405837Y1603167D01*
G01X7436820Y1492179D02*
G02X7405837Y1523164I0J30983D01*
G01X7405837Y1603162D02*
G02X7436820Y1634145I30983J0D01*
G01X7652850Y1634099D02*
G02X7683830Y1603116I-3J-30983D01*
G01X7683830Y1523119D02*
G02X7652850Y1492131I-30983J-5D01*
G01X6434083Y1557312D02*
G01X6354086Y1557312D01*
G01X6490128Y1557267D02*
G01X6570125Y1557267D01*
G01X6434083Y1699281D02*
G01X6354086Y1699281D01*
G01X6490128Y1699232D02*
G01X6570125Y1699232D01*
G01X6323110Y1588295D02*
G01X6323110Y1668300D01*
G01X6601103Y1668247D02*
G01X6601103Y1588244D01*
G01X6570120Y1699232D02*
G02X6601103Y1668247I0J-30983D01*
G01X6601103Y1588250D02*
G02X6570120Y1557267I-30983J0D01*
G01X6354091Y1557312D02*
G02X6323110Y1588295I3J30983D01*
G01X6323110Y1668293D02*
G02X6354091Y1699281I30983J5D01*
G01X6434083Y1194024D02*
G01X6354086Y1194024D01*
G01X6490128Y1193978D02*
G01X6570125Y1193978D01*
G01X6434083Y1335992D02*
G01X6354086Y1335992D01*
G01X6490128Y1335944D02*
G01X6570125Y1335944D01*
G01X6323110Y1225007D02*
G01X6323110Y1305012D01*
G01X6601103Y1304958D02*
G01X6601103Y1224956D01*
G01X6570120Y1335944D02*
G02X6601103Y1304958I0J-30983D01*
G01X6601103Y1224961D02*
G02X6570120Y1193978I-30983J0D01*
G01X6354091Y1194024D02*
G02X6323110Y1225007I3J30983D01*
G01X6323110Y1305004D02*
G02X6354091Y1335992I30983J5D01*
G54D10*
G01X8996121Y1064240D02*
G01X9092009Y1064240D01*
G01X9092009Y1064240D02*
G01X9092009Y1196360D01*
G01X9092009Y1196360D02*
G01X8996121Y1196360D01*
G01X8910879Y1064240D02*
G01X8814991Y1064240D01*
G01X8814991Y1064240D02*
G01X8814991Y1196360D01*
G01X8814991Y1196360D02*
G01X8910879Y1196360D01*
G01X8907231Y1504129D02*
G01X8811343Y1504129D01*
G01X8811343Y1504129D02*
G01X8811343Y1372009D01*
G01X8811343Y1372009D02*
G01X8907231Y1372009D01*
G01X8992473Y1504129D02*
G01X9088361Y1504129D01*
G01X9088361Y1504129D02*
G01X9088361Y1372009D01*
G01X9088361Y1372009D02*
G01X8992473Y1372009D01*
G54D11*
G01X7178500Y1146599D02*
G01X7098500Y1146599D01*
G01X6918500Y1146599D02*
G01X6998500Y1146599D01*
G01X7178500Y1596601D02*
G01X7178500Y1592712D01*
G01X7178500Y1146599D02*
G01X7178500Y1150485D01*
G01X6918500Y1592712D02*
G01X6918500Y1596601D01*
G01X6918500Y1146599D02*
G01X6918500Y1150488D01*
G01X6918500Y1596601D02*
G01X7178500Y1596601D01*
G01X7098500Y1146599D02*
G03X6998462Y1146556I-50019J-377D01*
G01X8368480Y445242D02*
G01X8368480Y644637D01*
G01X8368480Y102339D02*
G01X8368480Y249637D01*
G01X7461280Y445554D02*
G01X7461280Y644327D01*
G01X7461280Y87440D02*
G01X7461280Y249324D01*
G01X8361279Y87440D02*
G01X7461280Y87440D01*
G01X6070694Y562676D02*
G01X6070694Y1130300D01*
G01X6070694Y1130300D02*
G01X5839407Y1130300D01*
G01X4749894Y209332D02*
G01X4749894Y127000D01*
G01X4749894Y127000D02*
G01X6070694Y127000D01*
G01X6070694Y127000D02*
G01X6070694Y209332D01*
G01X4981181Y1130297D02*
G01X4749894Y1130297D01*
G01X4749894Y1130297D02*
G01X4749894Y562676D01*
G01X5589407Y1130297D02*
G01X5681180Y1130297D01*
G01X5389408Y1130297D02*
G01X5431180Y1130297D01*
G01X5139408Y1130297D02*
G01X5231181Y1130297D01*
G01X5668101Y538457D02*
G01X5871103Y538457D01*
G01X5654104Y659473D02*
G01X5880118Y659473D01*
G01X4979995Y548366D02*
G01X5182989Y548366D01*
G01X4965997Y669364D02*
G01X5192006Y669364D01*
G01X5260815Y895891D02*
G01X5225258Y321838D01*
G01X5225258Y321838D02*
G01X4935692Y321838D01*
G01X4935692Y321838D02*
G01X4887435Y895891D01*
G01X4887435Y895891D02*
G01X4938235Y895891D01*
G01X4938235Y895891D02*
G01X4988756Y382374D01*
G01X4988756Y382374D02*
G01X5163784Y382374D01*
G01X5163784Y382374D02*
G01X5222715Y895891D01*
G01X5222715Y895891D02*
G01X5260815Y895891D01*
G01X5943694Y888997D02*
G01X5908893Y315338D01*
G01X5908893Y315338D02*
G01X5620370Y315834D01*
G01X5620370Y315834D02*
G01X5570873Y889338D01*
G01X5570873Y889338D02*
G01X5621746Y888947D01*
G01X5621746Y888947D02*
G01X5672778Y434922D01*
G01X5672778Y434922D02*
G01X5680293Y367099D01*
G01X5680293Y367099D02*
G01X5855277Y368178D01*
G01X5855277Y368178D02*
G01X5902673Y845998D01*
G01X5902673Y845998D02*
G01X5905668Y888997D01*
G01X5905668Y888997D02*
G01X5943694Y888997D01*
G01X4444586Y565338D02*
G01X4444586Y1132962D01*
G01X4444586Y1132962D02*
G01X4213299Y1132962D01*
G01X3123786Y211994D02*
G01X3123786Y129662D01*
G01X3123786Y129662D02*
G01X4444586Y129662D01*
G01X4444586Y129662D02*
G01X4444586Y211994D01*
G01X3355073Y1132960D02*
G01X3123786Y1132960D01*
G01X3123786Y1132960D02*
G01X3123786Y565338D01*
G01X3963299Y1132960D02*
G01X4055072Y1132960D01*
G01X3763300Y1132960D02*
G01X3805072Y1132960D01*
G01X3513300Y1132960D02*
G01X3605073Y1132960D01*
G01X4041993Y541119D02*
G01X4244995Y541119D01*
G01X4027996Y662135D02*
G01X4254010Y662135D01*
G01X3353887Y551028D02*
G01X3556881Y551028D01*
G01X3339889Y672026D02*
G01X3565898Y672026D01*
G01X3634707Y898553D02*
G01X3599150Y324500D01*
G01X3599150Y324500D02*
G01X3309584Y324500D01*
G01X3309584Y324500D02*
G01X3261327Y898553D01*
G01X3261327Y898553D02*
G01X3312127Y898553D01*
G01X3312127Y898553D02*
G01X3362648Y385036D01*
G01X3362648Y385036D02*
G01X3537676Y385036D01*
G01X3537676Y385036D02*
G01X3596607Y898553D01*
G01X3596607Y898553D02*
G01X3634707Y898553D01*
G01X4317586Y891660D02*
G01X4282785Y318001D01*
G01X4282785Y318001D02*
G01X3994262Y318496D01*
G01X3994262Y318496D02*
G01X3944765Y892000D01*
G01X3944765Y892000D02*
G01X3995638Y891609D01*
G01X3995638Y891609D02*
G01X4046670Y437584D01*
G01X4046670Y437584D02*
G01X4054185Y369761D01*
G01X4054185Y369761D02*
G01X4229169Y370840D01*
G01X4229169Y370840D02*
G01X4276565Y848660D01*
G01X4276565Y848660D02*
G01X4279560Y891660D01*
G01X4279560Y891660D02*
G01X4317586Y891660D01*
G01X2818478Y566588D02*
G01X2818478Y1134212D01*
G01X2818478Y1134212D02*
G01X2587191Y1134212D01*
G01X1497678Y213243D02*
G01X1497678Y130912D01*
G01X1497678Y130912D02*
G01X2818478Y130912D01*
G01X2818478Y130912D02*
G01X2818478Y213243D01*
G01X1728965Y1134209D02*
G01X1497678Y1134209D01*
G01X1497678Y1134209D02*
G01X1497678Y566588D01*
G01X2337191Y1134209D02*
G01X2428964Y1134209D01*
G01X2137192Y1134209D02*
G01X2178964Y1134209D01*
G01X1887192Y1134209D02*
G01X1978965Y1134209D01*
G01X2415885Y542369D02*
G01X2618887Y542369D01*
G01X2401888Y663385D02*
G01X2627902Y663385D01*
G01X1727779Y552278D02*
G01X1930773Y552278D01*
G01X1713781Y673276D02*
G01X1939790Y673276D01*
G01X2008599Y899803D02*
G01X1973042Y325750D01*
G01X1973042Y325750D02*
G01X1683476Y325750D01*
G01X1683476Y325750D02*
G01X1635219Y899803D01*
G01X1635219Y899803D02*
G01X1686019Y899803D01*
G01X1686019Y899803D02*
G01X1736540Y386286D01*
G01X1736540Y386286D02*
G01X1911568Y386286D01*
G01X1911568Y386286D02*
G01X1970499Y899803D01*
G01X1970499Y899803D02*
G01X2008599Y899803D01*
G01X2691478Y892909D02*
G01X2656677Y319250D01*
G01X2656677Y319250D02*
G01X2368154Y319746D01*
G01X2368154Y319746D02*
G01X2318657Y893250D01*
G01X2318657Y893250D02*
G01X2369530Y892859D01*
G01X2369530Y892859D02*
G01X2420562Y438834D01*
G01X2420562Y438834D02*
G01X2428077Y371010D01*
G01X2428077Y371010D02*
G01X2603061Y372090D01*
G01X2603061Y372090D02*
G01X2650457Y849910D01*
G01X2650457Y849910D02*
G01X2653452Y892909D01*
G01X2653452Y892909D02*
G01X2691478Y892909D01*
G01X9651995Y1714508D02*
G01X9452600Y1714508D01*
G01X9994897Y1714508D02*
G01X9847600Y1714508D01*
G01X9651683Y807309D02*
G01X9452910Y807309D01*
G01X10009797Y807309D02*
G01X9847913Y807309D01*
G01X10009797Y1707307D02*
G01X10009797Y807309D01*
G01X6423581Y1745143D02*
G01X6343584Y1745143D01*
G01X6479626Y1745097D02*
G01X6559624Y1745097D01*
G01X6423581Y1887111D02*
G01X6343584Y1887111D01*
G01X6479626Y1887063D02*
G01X6559624Y1887063D01*
G01X6312609Y1776125D02*
G01X6312609Y1856130D01*
G01X6590602Y1856077D02*
G01X6590602Y1776075D01*
G01X6559619Y1887063D02*
G02X6590602Y1856077I0J-30983D01*
G01X6590602Y1776080D02*
G02X6559619Y1745097I-30983J0D01*
G01X6343589Y1745143D02*
G02X6312609Y1776125I3J30983D01*
G01X6312609Y1856123D02*
G02X6343589Y1887111I30983J5D01*
G01X7572858Y1839395D02*
G01X7652855Y1839395D01*
G01X7516813Y1839440D02*
G01X7436815Y1839440D01*
G01X7572858Y1697426D02*
G01X7652855Y1697426D01*
G01X7516813Y1697475D02*
G01X7436815Y1697475D01*
G01X7683830Y1808412D02*
G01X7683830Y1728407D01*
G01X7405837Y1728460D02*
G01X7405837Y1808462D01*
G01X7436820Y1697475D02*
G02X7405837Y1728460I0J30983D01*
G01X7405837Y1808457D02*
G02X7436820Y1839440I30983J0D01*
G01X7652850Y1839395D02*
G02X7683830Y1808412I-3J-30983D01*
G01X7683830Y1728414D02*
G02X7652850Y1697426I-30983J-5D01*
G01X6434083Y1371824D02*
G01X6354086Y1371824D01*
G01X6490128Y1371778D02*
G01X6570125Y1371778D01*
G01X6434083Y1513792D02*
G01X6354086Y1513792D01*
G01X6490128Y1513744D02*
G01X6570125Y1513744D01*
G01X6323110Y1402807D02*
G01X6323110Y1482812D01*
G01X6601103Y1482758D02*
G01X6601103Y1402756D01*
G01X6570120Y1513744D02*
G02X6601103Y1482758I0J-30983D01*
G01X6601103Y1402761D02*
G02X6570120Y1371778I-30983J0D01*
G01X6354091Y1371824D02*
G02X6323110Y1402807I3J30983D01*
G01X6323110Y1482804D02*
G02X6354091Y1513792I30983J5D01*
G54D10*
G01X7850896Y1145341D02*
G01X7850896Y1241228D01*
G01X7850896Y1241228D02*
G01X7718776Y1241228D01*
G01X7718776Y1241228D02*
G01X7718776Y1145341D01*
G01X7850896Y1060098D02*
G01X7850896Y964211D01*
G01X7850896Y964211D02*
G01X7718776Y964211D01*
G01X7718776Y964211D02*
G01X7718776Y1060098D01*
G01X8150776Y1145341D02*
G01X8150776Y1241228D01*
G01X8150776Y1241228D02*
G01X8018656Y1241228D01*
G01X8018656Y1241228D02*
G01X8018656Y1145341D01*
G01X8150776Y1060098D02*
G01X8150776Y964211D01*
G01X8150776Y964211D02*
G01X8018656Y964211D01*
G01X8018656Y964211D02*
G01X8018656Y1060098D01*

G04 Circle Start*
G54D11*
G01X7221982Y1139596D02*
G03X7247026Y1139596I12522J0D01*
G03X7221982Y1139596I-12522J0D01*
G04 Circle End*

M02*

