G04 Layer: DrillDrawingLayer*
G04 EasyEDA Pro v3.2.148, 2026-08-06 13:21:58*
G04 Gerber Generator version 0.3*
G04 Scale: 100 percent, Rotated: No, Reflected: No*
G04 Dimensions in millimeters*
G04 Leading zeros omitted, absolute positions, 4 integers and 5 decimals*
G04 Generated by one-click*
G04 Object Configs: Pad,Via,Track,Text,Image,Dimension,BoardOutline,BoardCutout,CopperFilled,SolidRegion,FPCStiffener,Line,PlaneZone,ComponentProperty,ComponentSilkscreen,TearDrop*
G04 Layer Configs: 1,2,3,4,5,6,7,8,9,10,11,13,14,56*
G04 Copper Areas: 0*
%FSLAX45Y45*%
%MOMM*%
%AMIconRect*4,1,4,0.28,-0.28,-0.28,-0.28,-0.28,0.28,0.28,0.28,0.28,-0.28,0*4,0,4,0.233333,-0.233333,0.233333,0.233333,-0.233333,0.233333,-0.233333,-0.233333,0.233333,-0.233333,0*%
%AMIconTriangle*4,1,3,-0.339593,0.240473,0.339593,0.240473,0,-0.37884,-0.339593,0.240473,0*4,0,3,-0.265673,0.19404,0,-0.27342,0.266233,0.19404,-0.265673,0.19404,0*%
%AMIconStar6*4,1,12,0.12068,0.20888,0.298527,0.172713,0.241313,0,0.298527,-0.17206,0.12068,-0.208227,0,-0.344073,-0.120073,-0.208227,-0.298573,-0.17206,-0.240707,0,-0.298573,0.17206,-0.120073,0.20888,0,0.344073,0.12068,0.20888,0*4,0,12,-0.000467,0.273467,-0.090067,0.171733,-0.237533,0.136733,-0.193667,-0.007467,-0.237533,-0.1372,-0.090067,-0.171733,-0.000467,-0.273933,0.090067,-0.171733,0.237533,-0.1372,0.194133,0.007,0.237533,0.1372,0.090067,0.171267,-0.000467,0.273467,0*%
%AMIconStar4*4,1,8,-0.311733,0.311733,0,0.202533,0.311733,0.311733,0.202533,0,0.311733,-0.311733,0,-0.202533,-0.304407,-0.311733,-0.202533,0,-0.311733,0.311733,0*4,0,8,0.233333,-0.233333,0.1512,0,0.233333,0.233333,0,0.1512,-0.233333,0.233333,-0.1512,0,-0.233333,-0.233333,0,-0.1512,0.233333,-0.233333,0*%
%AMIconPlus*4,1,12,0.1736,-0.28,-0.1736,-0.28,-0.1736,-0.1736,-0.28,-0.1736,-0.28,0.1736,-0.1736,0.1736,-0.1736,0.28,0.1736,0.28,0.1736,0.1736,0.28,0.1736,0.28,-0.1736,0.1736,-0.1736,0.1736,-0.28,0*4,0,12,0.126933,-0.233333,0.126933,-0.126933,0.233333,-0.126933,0.233333,0.126933,0.126933,0.126933,0.126933,0.233333,-0.126933,0.233333,-0.126933,0.126933,-0.233333,0.126933,-0.233333,-0.126933,-0.126933,-0.126933,-0.126933,-0.233333,0.126933,-0.233333,0*%
%ADD10IconRect*%
%ADD11C,0.616X0.522667*%
%ADD12IconTriangle*%
%ADD13IconStar6*%
%ADD14IconStar4*%
%ADD15IconPlus*%
%ADD16C,0.2032*%
%ADD17C,0.254*%
G75*


G04 Drill Drawing Start*
G54D10*
G01X723900Y584200D03*
G01X5981700Y1993900D03*
G01X9029700Y520700D03*
G54D11*
G01X7478779Y767441D03*
G01X8343781Y767438D03*
G01X9329796Y824807D03*
G01X9329798Y1689809D03*
G54D12*
G01X7478779Y347439D03*
G01X8343781Y347439D03*
G01X9749798Y824807D03*
G01X9749798Y1689809D03*
G54D13*
G01X7622283Y715429D03*
G01X8200286Y715429D03*
G01X9381808Y968312D03*
G01X9381808Y1546314D03*
G54D14*
G01X1513078Y389908D03*
G01X2803078Y389908D03*
G01X3139186Y388658D03*
G01X4429186Y388658D03*
G01X4765294Y385996D03*
G01X6055294Y385996D03*
G54D15*
G01X2743200Y1268908D03*
G01X3073400Y1816100D03*
G01X3657600Y1739900D03*
G01X4140200Y1536700D03*
G01X4838700Y1689100D03*
G01X5486400Y1587500D03*
G01X6108700Y1600200D03*
G01X6235700Y1536700D03*
G01X6235700Y1663700D03*
G01X6388100Y1981200D03*
G01X6705600Y1409700D03*
G01X7099300Y749300D03*
G01X7162800Y1765300D03*
G01X7543800Y596900D03*
G01X7797800Y1714500D03*
G01X7874000Y1550441D03*
G01X8305800Y1041400D03*
G01X8877300Y939800D03*
G01X8877300Y1587500D03*
G01X8890000Y1759102D03*
G01X9080500Y937298D03*
G01X9182100Y1854200D03*
G04 Drill Drawing End*

G04 Text Start*
G54D16*
G01X12175396Y2115450D02*
G01X12175396Y1995308D01*
G01X12175396Y2115450D02*
G01X12221116Y1995308D01*
G01X12266836Y2115450D02*
G01X12221116Y1995308D01*
G01X12266836Y2115450D02*
G01X12266836Y1995308D01*
G01X12383168Y2075318D02*
G01X12383168Y1995308D01*
G01X12383168Y2058300D02*
G01X12371738Y2069730D01*
G01X12360308Y2075318D01*
G01X12343290Y2075318D01*
G01X12331860Y2069730D01*
G01X12320430Y2058300D01*
G01X12314588Y2041028D01*
G01X12314588Y2029598D01*
G01X12320430Y2012580D01*
G01X12331860Y2001150D01*
G01X12343290Y1995308D01*
G01X12360308Y1995308D01*
G01X12371738Y2001150D01*
G01X12383168Y2012580D01*
G01X12430920Y2075318D02*
G01X12430920Y1995308D01*
G01X12430920Y2041028D02*
G01X12436762Y2058300D01*
G01X12448192Y2069730D01*
G01X12459622Y2075318D01*
G01X12476640Y2075318D01*
G01X12524392Y2115450D02*
G01X12524392Y1995308D01*
G01X12581542Y2075318D02*
G01X12524392Y2018168D01*
G01X12547252Y2041028D02*
G01X12587384Y1995308D01*
G01X13712677Y2086748D02*
G01X13706835Y2098178D01*
G01X13695405Y2109608D01*
G01X13683975Y2115450D01*
G01X13661115Y2115450D01*
G01X13649685Y2109608D01*
G01X13638255Y2098178D01*
G01X13632667Y2086748D01*
G01X13626825Y2069730D01*
G01X13626825Y2041028D01*
G01X13632667Y2024010D01*
G01X13638255Y2012580D01*
G01X13649685Y2001150D01*
G01X13661115Y1995308D01*
G01X13683975Y1995308D01*
G01X13695405Y2001150D01*
G01X13706835Y2012580D01*
G01X13712677Y2024010D01*
G01X13789131Y2075318D02*
G01X13777701Y2069730D01*
G01X13766271Y2058300D01*
G01X13760429Y2041028D01*
G01X13760429Y2029598D01*
G01X13766271Y2012580D01*
G01X13777701Y2001150D01*
G01X13789131Y1995308D01*
G01X13806149Y1995308D01*
G01X13817579Y2001150D01*
G01X13829009Y2012580D01*
G01X13834851Y2029598D01*
G01X13834851Y2041028D01*
G01X13829009Y2058300D01*
G01X13817579Y2069730D01*
G01X13806149Y2075318D01*
G01X13789131Y2075318D01*
G01X13882603Y2075318D02*
G01X13882603Y2018168D01*
G01X13888445Y2001150D01*
G01X13899875Y1995308D01*
G01X13916893Y1995308D01*
G01X13928323Y2001150D01*
G01X13945595Y2018168D01*
G01X13945595Y2075318D02*
G01X13945595Y1995308D01*
G01X13993347Y2075318D02*
G01X13993347Y1995308D01*
G01X13993347Y2052458D02*
G01X14010619Y2069730D01*
G01X14022049Y2075318D01*
G01X14039067Y2075318D01*
G01X14050497Y2069730D01*
G01X14056339Y2052458D01*
G01X14056339Y1995308D01*
G01X14121363Y2115450D02*
G01X14121363Y2018168D01*
G01X14126951Y2001150D01*
G01X14138381Y1995308D01*
G01X14149811Y1995308D01*
G01X14104091Y2075318D02*
G01X14144223Y2075318D01*
G01X15120998Y2098178D02*
G01X15109568Y2109608D01*
G01X15092550Y2115450D01*
G01X15069690Y2115450D01*
G01X15052418Y2109608D01*
G01X15040988Y2098178D01*
G01X15040988Y2086748D01*
G01X15046830Y2075318D01*
G01X15052418Y2069730D01*
G01X15063848Y2063888D01*
G01X15098138Y2052458D01*
G01X15109568Y2046870D01*
G01X15115410Y2041028D01*
G01X15120998Y2029598D01*
G01X15120998Y2012580D01*
G01X15109568Y2001150D01*
G01X15092550Y1995308D01*
G01X15069690Y1995308D01*
G01X15052418Y2001150D01*
G01X15040988Y2012580D01*
G01X15168750Y2115450D02*
G01X15174592Y2109608D01*
G01X15180180Y2115450D01*
G01X15174592Y2121038D01*
G01X15168750Y2115450D01*
G01X15174592Y2075318D02*
G01X15174592Y1995308D01*
G01X15290924Y2075318D02*
G01X15227932Y1995308D01*
G01X15227932Y2075318D02*
G01X15290924Y2075318D01*
G01X15227932Y1995308D02*
G01X15290924Y1995308D01*
G01X15338676Y2041028D02*
G01X15407256Y2041028D01*
G01X15407256Y2052458D01*
G01X15401668Y2063888D01*
G01X15395826Y2069730D01*
G01X15384396Y2075318D01*
G01X15367378Y2075318D01*
G01X15355948Y2069730D01*
G01X15344518Y2058300D01*
G01X15338676Y2041028D01*
G01X15338676Y2029598D01*
G01X15344518Y2012580D01*
G01X15355948Y2001150D01*
G01X15367378Y1995308D01*
G01X15384396Y1995308D01*
G01X15395826Y2001150D01*
G01X15407256Y2012580D01*
G01X18928857Y2115450D02*
G01X18928857Y1995308D01*
G01X18928857Y2115450D02*
G01X18980419Y2115450D01*
G01X18997437Y2109608D01*
G01X19003279Y2104020D01*
G01X19008867Y2092590D01*
G01X19008867Y2075318D01*
G01X19003279Y2063888D01*
G01X18997437Y2058300D01*
G01X18980419Y2052458D01*
G01X18928857Y2052458D01*
G01X19056619Y2115450D02*
G01X19056619Y1995308D01*
G01X19172951Y2075318D02*
G01X19172951Y1995308D01*
G01X19172951Y2058300D02*
G01X19161521Y2069730D01*
G01X19150091Y2075318D01*
G01X19133073Y2075318D01*
G01X19121643Y2069730D01*
G01X19110213Y2058300D01*
G01X19104371Y2041028D01*
G01X19104371Y2029598D01*
G01X19110213Y2012580D01*
G01X19121643Y2001150D01*
G01X19133073Y1995308D01*
G01X19150091Y1995308D01*
G01X19161521Y2001150D01*
G01X19172951Y2012580D01*
G01X19237975Y2115450D02*
G01X19237975Y2018168D01*
G01X19243563Y2001150D01*
G01X19254993Y1995308D01*
G01X19266423Y1995308D01*
G01X19220703Y2075318D02*
G01X19260835Y2075318D01*
G01X19314175Y2041028D02*
G01X19382755Y2041028D01*
G01X19382755Y2052458D01*
G01X19377167Y2063888D01*
G01X19371325Y2069730D01*
G01X19359895Y2075318D01*
G01X19342877Y2075318D01*
G01X19331447Y2069730D01*
G01X19320017Y2058300D01*
G01X19314175Y2041028D01*
G01X19314175Y2029598D01*
G01X19320017Y2012580D01*
G01X19331447Y2001150D01*
G01X19342877Y1995308D01*
G01X19359895Y1995308D01*
G01X19371325Y2001150D01*
G01X19382755Y2012580D01*
G01X19499087Y2115450D02*
G01X19499087Y1995308D01*
G01X19499087Y2058300D02*
G01X19487657Y2069730D01*
G01X19476227Y2075318D01*
G01X19459209Y2075318D01*
G01X19447779Y2069730D01*
G01X19436349Y2058300D01*
G01X19430507Y2041028D01*
G01X19430507Y2029598D01*
G01X19436349Y2012580D01*
G01X19447779Y2001150D01*
G01X19459209Y1995308D01*
G01X19476227Y1995308D01*
G01X19487657Y2001150D01*
G01X19499087Y2012580D01*
G01X20470274Y2098178D02*
G01X20458844Y2109608D01*
G01X20441826Y2115450D01*
G01X20418966Y2115450D01*
G01X20401694Y2109608D01*
G01X20390264Y2098178D01*
G01X20390264Y2086748D01*
G01X20396106Y2075318D01*
G01X20401694Y2069730D01*
G01X20413124Y2063888D01*
G01X20447414Y2052458D01*
G01X20458844Y2046870D01*
G01X20464686Y2041028D01*
G01X20470274Y2029598D01*
G01X20470274Y2012580D01*
G01X20458844Y2001150D01*
G01X20441826Y1995308D01*
G01X20418966Y1995308D01*
G01X20401694Y2001150D01*
G01X20390264Y2012580D01*
G01X20518026Y2115450D02*
G01X20518026Y1995308D01*
G01X20518026Y2052458D02*
G01X20535298Y2069730D01*
G01X20546728Y2075318D01*
G01X20563746Y2075318D01*
G01X20575176Y2069730D01*
G01X20581018Y2052458D01*
G01X20581018Y1995308D01*
G01X20697350Y2075318D02*
G01X20697350Y1995308D01*
G01X20697350Y2058300D02*
G01X20685920Y2069730D01*
G01X20674490Y2075318D01*
G01X20657472Y2075318D01*
G01X20646042Y2069730D01*
G01X20634612Y2058300D01*
G01X20628770Y2041028D01*
G01X20628770Y2029598D01*
G01X20634612Y2012580D01*
G01X20646042Y2001150D01*
G01X20657472Y1995308D01*
G01X20674490Y1995308D01*
G01X20685920Y2001150D01*
G01X20697350Y2012580D01*
G01X20745102Y2075318D02*
G01X20745102Y1955430D01*
G01X20745102Y2058300D02*
G01X20756532Y2069730D01*
G01X20767962Y2075318D01*
G01X20785234Y2075318D01*
G01X20796664Y2069730D01*
G01X20808094Y2058300D01*
G01X20813682Y2041028D01*
G01X20813682Y2029598D01*
G01X20808094Y2012580D01*
G01X20796664Y2001150D01*
G01X20785234Y1995308D01*
G01X20767962Y1995308D01*
G01X20756532Y2001150D01*
G01X20745102Y2012580D01*
G01X20861434Y2041028D02*
G01X20930014Y2041028D01*
G01X20930014Y2052458D01*
G01X20924426Y2063888D01*
G01X20918584Y2069730D01*
G01X20907154Y2075318D01*
G01X20890136Y2075318D01*
G01X20878706Y2069730D01*
G01X20867276Y2058300D01*
G01X20861434Y2041028D01*
G01X20861434Y2029598D01*
G01X20867276Y2012580D01*
G01X20878706Y2001150D01*
G01X20890136Y1995308D01*
G01X20907154Y1995308D01*
G01X20918584Y2001150D01*
G01X20930014Y2012580D01*
G01X21821445Y2115450D02*
G01X21867165Y1995308D01*
G01X21912885Y2115450D02*
G01X21867165Y1995308D01*
G01X21960637Y2115450D02*
G01X21966479Y2109608D01*
G01X21972067Y2115450D01*
G01X21966479Y2121038D01*
G01X21960637Y2115450D01*
G01X21966479Y2075318D02*
G01X21966479Y1995308D01*
G01X22088399Y2075318D02*
G01X22088399Y1995308D01*
G01X22088399Y2058300D02*
G01X22076969Y2069730D01*
G01X22065539Y2075318D01*
G01X22048521Y2075318D01*
G01X22037091Y2069730D01*
G01X22025661Y2058300D01*
G01X22019819Y2041028D01*
G01X22019819Y2029598D01*
G01X22025661Y2012580D01*
G01X22037091Y2001150D01*
G01X22048521Y1995308D01*
G01X22065539Y1995308D01*
G01X22076969Y2001150D01*
G01X22088399Y2012580D01*
G01X22239021Y2138310D02*
G01X22136151Y1955430D01*
G01X22286773Y2115450D02*
G01X22286773Y1995308D01*
G01X22286773Y2115450D02*
G01X22338335Y2115450D01*
G01X22355353Y2109608D01*
G01X22361195Y2104020D01*
G01X22366783Y2092590D01*
G01X22366783Y2075318D01*
G01X22361195Y2063888D01*
G01X22355353Y2058300D01*
G01X22338335Y2052458D01*
G01X22286773Y2052458D01*
G01X22483115Y2075318D02*
G01X22483115Y1995308D01*
G01X22483115Y2058300D02*
G01X22471685Y2069730D01*
G01X22460255Y2075318D01*
G01X22443237Y2075318D01*
G01X22431807Y2069730D01*
G01X22420377Y2058300D01*
G01X22414535Y2041028D01*
G01X22414535Y2029598D01*
G01X22420377Y2012580D01*
G01X22431807Y2001150D01*
G01X22443237Y1995308D01*
G01X22460255Y1995308D01*
G01X22471685Y2001150D01*
G01X22483115Y2012580D01*
G01X22599447Y2115450D02*
G01X22599447Y1995308D01*
G01X22599447Y2058300D02*
G01X22588017Y2069730D01*
G01X22576587Y2075318D01*
G01X22559569Y2075318D01*
G01X22548139Y2069730D01*
G01X22536709Y2058300D01*
G01X22530867Y2041028D01*
G01X22530867Y2029598D01*
G01X22536709Y2012580D01*
G01X22548139Y2001150D01*
G01X22559569Y1995308D01*
G01X22576587Y1995308D01*
G01X22588017Y2001150D01*
G01X22599447Y2012580D01*
G01X23490625Y2115450D02*
G01X23490625Y1995308D01*
G01X23490625Y2115450D02*
G01X23542187Y2115450D01*
G01X23559205Y2109608D01*
G01X23565047Y2104020D01*
G01X23570635Y2092590D01*
G01X23570635Y2075318D01*
G01X23565047Y2063888D01*
G01X23559205Y2058300D01*
G01X23542187Y2052458D01*
G01X23490625Y2052458D01*
G01X23686967Y2075318D02*
G01X23686967Y1995308D01*
G01X23686967Y2058300D02*
G01X23675537Y2069730D01*
G01X23664107Y2075318D01*
G01X23647089Y2075318D01*
G01X23635659Y2069730D01*
G01X23624229Y2058300D01*
G01X23618387Y2041028D01*
G01X23618387Y2029598D01*
G01X23624229Y2012580D01*
G01X23635659Y2001150D01*
G01X23647089Y1995308D01*
G01X23664107Y1995308D01*
G01X23675537Y2001150D01*
G01X23686967Y2012580D01*
G01X23803299Y2115450D02*
G01X23803299Y1995308D01*
G01X23803299Y2058300D02*
G01X23791869Y2069730D01*
G01X23780439Y2075318D01*
G01X23763421Y2075318D01*
G01X23751991Y2069730D01*
G01X23740561Y2058300D01*
G01X23734719Y2041028D01*
G01X23734719Y2029598D01*
G01X23740561Y2012580D01*
G01X23751991Y2001150D01*
G01X23763421Y1995308D01*
G01X23780439Y1995308D01*
G01X23791869Y2001150D01*
G01X23803299Y2012580D01*
G01X24059077Y2098178D02*
G01X24047647Y2109608D01*
G01X24030629Y2115450D01*
G01X24007769Y2115450D01*
G01X23990497Y2109608D01*
G01X23979067Y2098178D01*
G01X23979067Y2086748D01*
G01X23984909Y2075318D01*
G01X23990497Y2069730D01*
G01X24001927Y2063888D01*
G01X24036217Y2052458D01*
G01X24047647Y2046870D01*
G01X24053489Y2041028D01*
G01X24059077Y2029598D01*
G01X24059077Y2012580D01*
G01X24047647Y2001150D01*
G01X24030629Y1995308D01*
G01X24007769Y1995308D01*
G01X23990497Y2001150D01*
G01X23979067Y2012580D01*
G01X24106829Y2115450D02*
G01X24106829Y1995308D01*
G01X24106829Y2052458D02*
G01X24124101Y2069730D01*
G01X24135531Y2075318D01*
G01X24152549Y2075318D01*
G01X24163979Y2069730D01*
G01X24169821Y2052458D01*
G01X24169821Y1995308D01*
G01X24286153Y2075318D02*
G01X24286153Y1995308D01*
G01X24286153Y2058300D02*
G01X24274723Y2069730D01*
G01X24263293Y2075318D01*
G01X24246275Y2075318D01*
G01X24234845Y2069730D01*
G01X24223415Y2058300D01*
G01X24217573Y2041028D01*
G01X24217573Y2029598D01*
G01X24223415Y2012580D01*
G01X24234845Y2001150D01*
G01X24246275Y1995308D01*
G01X24263293Y1995308D01*
G01X24274723Y2001150D01*
G01X24286153Y2012580D01*
G01X24333905Y2075318D02*
G01X24333905Y1955430D01*
G01X24333905Y2058300D02*
G01X24345335Y2069730D01*
G01X24356765Y2075318D01*
G01X24374037Y2075318D01*
G01X24385467Y2069730D01*
G01X24396897Y2058300D01*
G01X24402485Y2041028D01*
G01X24402485Y2029598D01*
G01X24396897Y2012580D01*
G01X24385467Y2001150D01*
G01X24374037Y1995308D01*
G01X24356765Y1995308D01*
G01X24345335Y2001150D01*
G01X24333905Y2012580D01*
G01X24450237Y2041028D02*
G01X24518817Y2041028D01*
G01X24518817Y2052458D01*
G01X24513229Y2063888D01*
G01X24507387Y2069730D01*
G01X24495957Y2075318D01*
G01X24478939Y2075318D01*
G01X24467509Y2069730D01*
G01X24456079Y2058300D01*
G01X24450237Y2041028D01*
G01X24450237Y2029598D01*
G01X24456079Y2012580D01*
G01X24467509Y2001150D01*
G01X24478939Y1995308D01*
G01X24495957Y1995308D01*
G01X24507387Y2001150D01*
G01X24518817Y2012580D01*
G01X25409994Y2115450D02*
G01X25409994Y1995308D01*
G01X25409994Y1995308D02*
G01X25478574Y1995308D01*
G01X25594906Y2075318D02*
G01X25594906Y1995308D01*
G01X25594906Y2058300D02*
G01X25583476Y2069730D01*
G01X25572046Y2075318D01*
G01X25555028Y2075318D01*
G01X25543598Y2069730D01*
G01X25532168Y2058300D01*
G01X25526326Y2041028D01*
G01X25526326Y2029598D01*
G01X25532168Y2012580D01*
G01X25543598Y2001150D01*
G01X25555028Y1995308D01*
G01X25572046Y1995308D01*
G01X25583476Y2001150D01*
G01X25594906Y2012580D01*
G01X25648500Y2075318D02*
G01X25682790Y1995308D01*
G01X25717080Y2075318D02*
G01X25682790Y1995308D01*
G01X25671360Y1972448D01*
G01X25659930Y1961018D01*
G01X25648500Y1955430D01*
G01X25642658Y1955430D01*
G01X25764832Y2041028D02*
G01X25833412Y2041028D01*
G01X25833412Y2052458D01*
G01X25827824Y2063888D01*
G01X25821982Y2069730D01*
G01X25810552Y2075318D01*
G01X25793534Y2075318D01*
G01X25782104Y2069730D01*
G01X25770674Y2058300D01*
G01X25764832Y2041028D01*
G01X25764832Y2029598D01*
G01X25770674Y2012580D01*
G01X25782104Y2001150D01*
G01X25793534Y1995308D01*
G01X25810552Y1995308D01*
G01X25821982Y2001150D01*
G01X25833412Y2012580D01*
G01X25881164Y2075318D02*
G01X25881164Y1995308D01*
G01X25881164Y2041028D02*
G01X25887006Y2058300D01*
G01X25898436Y2069730D01*
G01X25909866Y2075318D01*
G01X25926884Y2075318D01*
G01X26102652Y2115450D02*
G01X26102652Y1995308D01*
G01X26102652Y2115450D02*
G01X26154214Y2115450D01*
G01X26171232Y2109608D01*
G01X26177074Y2104020D01*
G01X26182662Y2092590D01*
G01X26182662Y2075318D01*
G01X26177074Y2063888D01*
G01X26171232Y2058300D01*
G01X26154214Y2052458D01*
G01X26102652Y2052458D01*
G01X26298994Y2075318D02*
G01X26298994Y1995308D01*
G01X26298994Y2058300D02*
G01X26287564Y2069730D01*
G01X26276134Y2075318D01*
G01X26259116Y2075318D01*
G01X26247686Y2069730D01*
G01X26236256Y2058300D01*
G01X26230414Y2041028D01*
G01X26230414Y2029598D01*
G01X26236256Y2012580D01*
G01X26247686Y2001150D01*
G01X26259116Y1995308D01*
G01X26276134Y1995308D01*
G01X26287564Y2001150D01*
G01X26298994Y2012580D01*
G01X26346746Y2115450D02*
G01X26352588Y2109608D01*
G01X26358176Y2115450D01*
G01X26352588Y2121038D01*
G01X26346746Y2115450D01*
G01X26352588Y2075318D02*
G01X26352588Y1995308D01*
G01X26405928Y2075318D02*
G01X26405928Y1995308D01*
G01X26405928Y2041028D02*
G01X26411770Y2058300D01*
G01X26423200Y2069730D01*
G01X26434630Y2075318D01*
G01X26451648Y2075318D01*
G01X13638255Y1534878D02*
G01X13701247Y1534878D01*
G01X13666957Y1489158D01*
G01X13683975Y1489158D01*
G01X13695405Y1483316D01*
G01X13701247Y1477728D01*
G01X13706835Y1460456D01*
G01X13706835Y1449026D01*
G01X13701247Y1432008D01*
G01X13689817Y1420578D01*
G01X13672545Y1414736D01*
G01X13655527Y1414736D01*
G01X13638255Y1420578D01*
G01X13632667Y1426166D01*
G01X13626825Y1437596D01*
G01X15040988Y1512018D02*
G01X15052418Y1517606D01*
G01X15069690Y1534878D01*
G01X15069690Y1414736D01*
G01X15128872Y1534878D02*
G01X15191864Y1534878D01*
G01X15157574Y1489158D01*
G01X15174592Y1489158D01*
G01X15186022Y1483316D01*
G01X15191864Y1477728D01*
G01X15197452Y1460456D01*
G01X15197452Y1449026D01*
G01X15191864Y1432008D01*
G01X15180434Y1420578D01*
G01X15163162Y1414736D01*
G01X15146144Y1414736D01*
G01X15128872Y1420578D01*
G01X15123284Y1426166D01*
G01X15117442Y1437596D01*
G01X15256634Y1534878D02*
G01X15319626Y1534878D01*
G01X15285336Y1489158D01*
G01X15302354Y1489158D01*
G01X15313784Y1483316D01*
G01X15319626Y1477728D01*
G01X15325214Y1460456D01*
G01X15325214Y1449026D01*
G01X15319626Y1432008D01*
G01X15308196Y1420578D01*
G01X15290924Y1414736D01*
G01X15273906Y1414736D01*
G01X15256634Y1420578D01*
G01X15251046Y1426166D01*
G01X15245204Y1437596D01*
G01X15378808Y1443438D02*
G01X15372966Y1437596D01*
G01X15378808Y1432008D01*
G01X15384396Y1437596D01*
G01X15378808Y1443438D01*
G01X15506570Y1494746D02*
G01X15500728Y1477728D01*
G01X15489298Y1466298D01*
G01X15472280Y1460456D01*
G01X15466438Y1460456D01*
G01X15449420Y1466298D01*
G01X15437990Y1477728D01*
G01X15432148Y1494746D01*
G01X15432148Y1500588D01*
G01X15437990Y1517606D01*
G01X15449420Y1529036D01*
G01X15466438Y1534878D01*
G01X15472280Y1534878D01*
G01X15489298Y1529036D01*
G01X15500728Y1517606D01*
G01X15506570Y1494746D01*
G01X15506570Y1466298D01*
G01X15500728Y1437596D01*
G01X15489298Y1420578D01*
G01X15472280Y1414736D01*
G01X15460850Y1414736D01*
G01X15443578Y1420578D01*
G01X15437990Y1432008D01*
G01X15554322Y1494746D02*
G01X15554322Y1414736D01*
G01X15554322Y1471886D02*
G01X15571594Y1489158D01*
G01X15583024Y1494746D01*
G01X15600042Y1494746D01*
G01X15611472Y1489158D01*
G01X15617314Y1471886D01*
G01X15617314Y1414736D01*
G01X15617314Y1471886D02*
G01X15634332Y1489158D01*
G01X15645762Y1494746D01*
G01X15663034Y1494746D01*
G01X15674464Y1489158D01*
G01X15680052Y1471886D01*
G01X15680052Y1414736D01*
G01X15727804Y1534878D02*
G01X15733646Y1529036D01*
G01X15739234Y1534878D01*
G01X15733646Y1540466D01*
G01X15727804Y1534878D01*
G01X15733646Y1494746D02*
G01X15733646Y1414736D01*
G01X15786986Y1534878D02*
G01X15786986Y1414736D01*
G01X15874870Y1557738D02*
G01X15863440Y1546308D01*
G01X15852010Y1529036D01*
G01X15840580Y1506176D01*
G01X15834738Y1477728D01*
G01X15834738Y1454868D01*
G01X15840580Y1426166D01*
G01X15852010Y1403306D01*
G01X15863440Y1386288D01*
G01X15874870Y1374858D01*
G01X15934052Y1534878D02*
G01X15997044Y1534878D01*
G01X15962754Y1489158D01*
G01X15979772Y1489158D01*
G01X15991202Y1483316D01*
G01X15997044Y1477728D01*
G01X16002632Y1460456D01*
G01X16002632Y1449026D01*
G01X15997044Y1432008D01*
G01X15985614Y1420578D01*
G01X15968342Y1414736D01*
G01X15951324Y1414736D01*
G01X15934052Y1420578D01*
G01X15928464Y1426166D01*
G01X15922622Y1437596D01*
G01X16056226Y1443438D02*
G01X16050384Y1437596D01*
G01X16056226Y1432008D01*
G01X16061814Y1437596D01*
G01X16056226Y1443438D01*
G01X16166716Y1534878D02*
G01X16109566Y1454868D01*
G01X16195418Y1454868D01*
G01X16166716Y1534878D02*
G01X16166716Y1414736D01*
G01X16277460Y1534878D02*
G01X16260442Y1529036D01*
G01X16249012Y1512018D01*
G01X16243170Y1483316D01*
G01X16243170Y1466298D01*
G01X16249012Y1437596D01*
G01X16260442Y1420578D01*
G01X16277460Y1414736D01*
G01X16288890Y1414736D01*
G01X16306162Y1420578D01*
G01X16317592Y1437596D01*
G01X16323180Y1466298D01*
G01X16323180Y1483316D01*
G01X16317592Y1512018D01*
G01X16306162Y1529036D01*
G01X16288890Y1534878D01*
G01X16277460Y1534878D01*
G01X16405222Y1534878D02*
G01X16388204Y1529036D01*
G01X16376774Y1512018D01*
G01X16370932Y1483316D01*
G01X16370932Y1466298D01*
G01X16376774Y1437596D01*
G01X16388204Y1420578D01*
G01X16405222Y1414736D01*
G01X16416652Y1414736D01*
G01X16433924Y1420578D01*
G01X16445354Y1437596D01*
G01X16450942Y1466298D01*
G01X16450942Y1483316D01*
G01X16445354Y1512018D01*
G01X16433924Y1529036D01*
G01X16416652Y1534878D01*
G01X16405222Y1534878D01*
G01X16498694Y1494746D02*
G01X16498694Y1414736D01*
G01X16498694Y1471886D02*
G01X16515966Y1489158D01*
G01X16527396Y1494746D01*
G01X16544414Y1494746D01*
G01X16555844Y1489158D01*
G01X16561686Y1471886D01*
G01X16561686Y1414736D01*
G01X16561686Y1471886D02*
G01X16578704Y1489158D01*
G01X16590134Y1494746D01*
G01X16607406Y1494746D01*
G01X16618836Y1489158D01*
G01X16624424Y1471886D01*
G01X16624424Y1414736D01*
G01X16672176Y1494746D02*
G01X16672176Y1414736D01*
G01X16672176Y1471886D02*
G01X16689448Y1489158D01*
G01X16700878Y1494746D01*
G01X16717896Y1494746D01*
G01X16729326Y1489158D01*
G01X16735168Y1471886D01*
G01X16735168Y1414736D01*
G01X16735168Y1471886D02*
G01X16752186Y1489158D01*
G01X16763616Y1494746D01*
G01X16780888Y1494746D01*
G01X16792318Y1489158D01*
G01X16797906Y1471886D01*
G01X16797906Y1414736D01*
G01X16845658Y1557738D02*
G01X16857088Y1546308D01*
G01X16868518Y1529036D01*
G01X16879948Y1506176D01*
G01X16885790Y1477728D01*
G01X16885790Y1454868D01*
G01X16879948Y1426166D01*
G01X16868518Y1403306D01*
G01X16857088Y1386288D01*
G01X16845658Y1374858D01*
G01X18928857Y1534878D02*
G01X18928857Y1414736D01*
G01X18928857Y1534878D02*
G01X19008867Y1414736D01*
G01X19008867Y1534878D02*
G01X19008867Y1414736D01*
G01X19056619Y1534878D02*
G01X19056619Y1414736D01*
G01X19056619Y1534878D02*
G01X19108181Y1534878D01*
G01X19125199Y1529036D01*
G01X19131041Y1523448D01*
G01X19136629Y1512018D01*
G01X19136629Y1494746D01*
G01X19131041Y1483316D01*
G01X19125199Y1477728D01*
G01X19108181Y1471886D01*
G01X19056619Y1471886D01*
G01X19224513Y1534878D02*
G01X19224513Y1414736D01*
G01X19184381Y1534878D02*
G01X19264391Y1534878D01*
G01X19312143Y1534878D02*
G01X19312143Y1414736D01*
G01X19392153Y1534878D02*
G01X19392153Y1414736D01*
G01X19312143Y1477728D02*
G01X19392153Y1477728D01*
G01X20390264Y1534878D02*
G01X20390264Y1414736D01*
G01X20390264Y1534878D02*
G01X20441826Y1534878D01*
G01X20458844Y1529036D01*
G01X20464686Y1523448D01*
G01X20470274Y1512018D01*
G01X20470274Y1500588D01*
G01X20464686Y1489158D01*
G01X20458844Y1483316D01*
G01X20441826Y1477728D01*
G01X20390264Y1477728D01*
G01X20430396Y1477728D02*
G01X20470274Y1414736D01*
G01X20546728Y1494746D02*
G01X20535298Y1489158D01*
G01X20523868Y1477728D01*
G01X20518026Y1460456D01*
G01X20518026Y1449026D01*
G01X20523868Y1432008D01*
G01X20535298Y1420578D01*
G01X20546728Y1414736D01*
G01X20563746Y1414736D01*
G01X20575176Y1420578D01*
G01X20586606Y1432008D01*
G01X20592448Y1449026D01*
G01X20592448Y1460456D01*
G01X20586606Y1477728D01*
G01X20575176Y1489158D01*
G01X20563746Y1494746D01*
G01X20546728Y1494746D01*
G01X20640200Y1494746D02*
G01X20640200Y1437596D01*
G01X20646042Y1420578D01*
G01X20657472Y1414736D01*
G01X20674490Y1414736D01*
G01X20685920Y1420578D01*
G01X20703192Y1437596D01*
G01X20703192Y1494746D02*
G01X20703192Y1414736D01*
G01X20750944Y1494746D02*
G01X20750944Y1414736D01*
G01X20750944Y1471886D02*
G01X20768216Y1489158D01*
G01X20779646Y1494746D01*
G01X20796664Y1494746D01*
G01X20808094Y1489158D01*
G01X20813936Y1471886D01*
G01X20813936Y1414736D01*
G01X20930268Y1534878D02*
G01X20930268Y1414736D01*
G01X20930268Y1477728D02*
G01X20918838Y1489158D01*
G01X20907408Y1494746D01*
G01X20890390Y1494746D01*
G01X20878960Y1489158D01*
G01X20867530Y1477728D01*
G01X20861688Y1460456D01*
G01X20861688Y1449026D01*
G01X20867530Y1432008D01*
G01X20878960Y1420578D01*
G01X20890390Y1414736D01*
G01X20907408Y1414736D01*
G01X20918838Y1420578D01*
G01X20930268Y1432008D01*
G01X21821445Y1534878D02*
G01X21867165Y1414736D01*
G01X21912885Y1534878D02*
G01X21867165Y1414736D01*
G01X21960637Y1534878D02*
G01X21966479Y1529036D01*
G01X21972067Y1534878D01*
G01X21966479Y1540466D01*
G01X21960637Y1534878D01*
G01X21966479Y1494746D02*
G01X21966479Y1414736D01*
G01X22088399Y1494746D02*
G01X22088399Y1414736D01*
G01X22088399Y1477728D02*
G01X22076969Y1489158D01*
G01X22065539Y1494746D01*
G01X22048521Y1494746D01*
G01X22037091Y1489158D01*
G01X22025661Y1477728D01*
G01X22019819Y1460456D01*
G01X22019819Y1449026D01*
G01X22025661Y1432008D01*
G01X22037091Y1420578D01*
G01X22048521Y1414736D01*
G01X22065539Y1414736D01*
G01X22076969Y1420578D01*
G01X22088399Y1432008D01*
G01X25450126Y1534878D02*
G01X25450126Y1414736D01*
G01X25409994Y1534878D02*
G01X25490004Y1534878D01*
G01X25566458Y1494746D02*
G01X25555028Y1489158D01*
G01X25543598Y1477728D01*
G01X25537756Y1460456D01*
G01X25537756Y1449026D01*
G01X25543598Y1432008D01*
G01X25555028Y1420578D01*
G01X25566458Y1414736D01*
G01X25583476Y1414736D01*
G01X25594906Y1420578D01*
G01X25606336Y1432008D01*
G01X25612178Y1449026D01*
G01X25612178Y1460456D01*
G01X25606336Y1477728D01*
G01X25594906Y1489158D01*
G01X25583476Y1494746D01*
G01X25566458Y1494746D01*
G01X25659930Y1494746D02*
G01X25659930Y1374858D01*
G01X25659930Y1477728D02*
G01X25671360Y1489158D01*
G01X25682790Y1494746D01*
G01X25700062Y1494746D01*
G01X25711492Y1489158D01*
G01X25722922Y1477728D01*
G01X25728510Y1460456D01*
G01X25728510Y1449026D01*
G01X25722922Y1432008D01*
G01X25711492Y1420578D01*
G01X25700062Y1414736D01*
G01X25682790Y1414736D01*
G01X25671360Y1420578D01*
G01X25659930Y1432008D01*
G01X25904278Y1534878D02*
G01X25904278Y1414736D01*
G01X25904278Y1414736D02*
G01X25972858Y1414736D01*
G01X26089190Y1494746D02*
G01X26089190Y1414736D01*
G01X26089190Y1477728D02*
G01X26077760Y1489158D01*
G01X26066330Y1494746D01*
G01X26049312Y1494746D01*
G01X26037882Y1489158D01*
G01X26026452Y1477728D01*
G01X26020610Y1460456D01*
G01X26020610Y1449026D01*
G01X26026452Y1432008D01*
G01X26037882Y1420578D01*
G01X26049312Y1414736D01*
G01X26066330Y1414736D01*
G01X26077760Y1420578D01*
G01X26089190Y1432008D01*
G01X26142784Y1494746D02*
G01X26177074Y1414736D01*
G01X26211364Y1494746D02*
G01X26177074Y1414736D01*
G01X26165644Y1391876D01*
G01X26154214Y1380446D01*
G01X26142784Y1374858D01*
G01X26136942Y1374858D01*
G01X26259116Y1460456D02*
G01X26327696Y1460456D01*
G01X26327696Y1471886D01*
G01X26322108Y1483316D01*
G01X26316266Y1489158D01*
G01X26304836Y1494746D01*
G01X26287818Y1494746D01*
G01X26276388Y1489158D01*
G01X26264958Y1477728D01*
G01X26259116Y1460456D01*
G01X26259116Y1449026D01*
G01X26264958Y1432008D01*
G01X26276388Y1420578D01*
G01X26287818Y1414736D01*
G01X26304836Y1414736D01*
G01X26316266Y1420578D01*
G01X26327696Y1432008D01*
G01X26375448Y1494746D02*
G01X26375448Y1414736D01*
G01X26375448Y1460456D02*
G01X26381290Y1477728D01*
G01X26392720Y1489158D01*
G01X26404150Y1494746D01*
G01X26421168Y1494746D01*
G01X26468920Y1466298D02*
G01X26571790Y1466298D01*
G01X26619542Y1534878D02*
G01X26619542Y1414736D01*
G01X26619542Y1534878D02*
G01X26671104Y1534878D01*
G01X26688122Y1529036D01*
G01X26693964Y1523448D01*
G01X26699552Y1512018D01*
G01X26699552Y1500588D01*
G01X26693964Y1489158D01*
G01X26688122Y1483316D01*
G01X26671104Y1477728D01*
G01X26619542Y1477728D02*
G01X26671104Y1477728D01*
G01X26688122Y1471886D01*
G01X26693964Y1466298D01*
G01X26699552Y1454868D01*
G01X26699552Y1437596D01*
G01X26693964Y1426166D01*
G01X26688122Y1420578D01*
G01X26671104Y1414736D01*
G01X26619542Y1414736D01*
G01X26776006Y1494746D02*
G01X26764576Y1489158D01*
G01X26753146Y1477728D01*
G01X26747304Y1460456D01*
G01X26747304Y1449026D01*
G01X26753146Y1432008D01*
G01X26764576Y1420578D01*
G01X26776006Y1414736D01*
G01X26793024Y1414736D01*
G01X26804454Y1420578D01*
G01X26815884Y1432008D01*
G01X26821726Y1449026D01*
G01X26821726Y1460456D01*
G01X26815884Y1477728D01*
G01X26804454Y1489158D01*
G01X26793024Y1494746D01*
G01X26776006Y1494746D01*
G01X26886750Y1534878D02*
G01X26886750Y1437596D01*
G01X26892338Y1420578D01*
G01X26903768Y1414736D01*
G01X26915198Y1414736D01*
G01X26869478Y1494746D02*
G01X26909610Y1494746D01*
G01X26980222Y1534878D02*
G01X26980222Y1437596D01*
G01X26985810Y1420578D01*
G01X26997240Y1414736D01*
G01X27008670Y1414736D01*
G01X26962950Y1494746D02*
G01X27003082Y1494746D01*
G01X27085124Y1494746D02*
G01X27073694Y1489158D01*
G01X27062264Y1477728D01*
G01X27056422Y1460456D01*
G01X27056422Y1449026D01*
G01X27062264Y1432008D01*
G01X27073694Y1420578D01*
G01X27085124Y1414736D01*
G01X27102142Y1414736D01*
G01X27113572Y1420578D01*
G01X27125002Y1432008D01*
G01X27130844Y1449026D01*
G01X27130844Y1460456D01*
G01X27125002Y1477728D01*
G01X27113572Y1489158D01*
G01X27102142Y1494746D01*
G01X27085124Y1494746D01*
G01X27178596Y1494746D02*
G01X27178596Y1414736D01*
G01X27178596Y1471886D02*
G01X27195868Y1489158D01*
G01X27207298Y1494746D01*
G01X27224316Y1494746D01*
G01X27235746Y1489158D01*
G01X27241588Y1471886D01*
G01X27241588Y1414736D01*
G01X27241588Y1471886D02*
G01X27258606Y1489158D01*
G01X27270036Y1494746D01*
G01X27287308Y1494746D01*
G01X27298738Y1489158D01*
G01X27304326Y1471886D01*
G01X27304326Y1414736D01*
G01X27480094Y1534878D02*
G01X27480094Y1414736D01*
G01X27480094Y1414736D02*
G01X27548674Y1414736D01*
G01X27665006Y1494746D02*
G01X27665006Y1414736D01*
G01X27665006Y1477728D02*
G01X27653576Y1489158D01*
G01X27642146Y1494746D01*
G01X27625128Y1494746D01*
G01X27613698Y1489158D01*
G01X27602268Y1477728D01*
G01X27596426Y1460456D01*
G01X27596426Y1449026D01*
G01X27602268Y1432008D01*
G01X27613698Y1420578D01*
G01X27625128Y1414736D01*
G01X27642146Y1414736D01*
G01X27653576Y1420578D01*
G01X27665006Y1432008D01*
G01X27718600Y1494746D02*
G01X27752890Y1414736D01*
G01X27787180Y1494746D02*
G01X27752890Y1414736D01*
G01X27741460Y1391876D01*
G01X27730030Y1380446D01*
G01X27718600Y1374858D01*
G01X27712758Y1374858D01*
G01X27834932Y1460456D02*
G01X27903512Y1460456D01*
G01X27903512Y1471886D01*
G01X27897924Y1483316D01*
G01X27892082Y1489158D01*
G01X27880652Y1494746D01*
G01X27863634Y1494746D01*
G01X27852204Y1489158D01*
G01X27840774Y1477728D01*
G01X27834932Y1460456D01*
G01X27834932Y1449026D01*
G01X27840774Y1432008D01*
G01X27852204Y1420578D01*
G01X27863634Y1414736D01*
G01X27880652Y1414736D01*
G01X27892082Y1420578D01*
G01X27903512Y1432008D01*
G01X27951264Y1494746D02*
G01X27951264Y1414736D01*
G01X27951264Y1460456D02*
G01X27957106Y1477728D01*
G01X27968536Y1489158D01*
G01X27979966Y1494746D01*
G01X27996984Y1494746D01*
G01X13683975Y954307D02*
G01X13626825Y874297D01*
G01X13712677Y874297D01*
G01X13683975Y954307D02*
G01X13683975Y834165D01*
G01X15046830Y925605D02*
G01X15046830Y931447D01*
G01X15052418Y942877D01*
G01X15058260Y948465D01*
G01X15069690Y954307D01*
G01X15092550Y954307D01*
G01X15103980Y948465D01*
G01X15109568Y942877D01*
G01X15115410Y931447D01*
G01X15115410Y920017D01*
G01X15109568Y908587D01*
G01X15098138Y891315D01*
G01X15040988Y834165D01*
G01X15120998Y834165D01*
G01X15180180Y954307D02*
G01X15243172Y954307D01*
G01X15208882Y908587D01*
G01X15225900Y908587D01*
G01X15237330Y902745D01*
G01X15243172Y897157D01*
G01X15248760Y879885D01*
G01X15248760Y868455D01*
G01X15243172Y851437D01*
G01X15231742Y840007D01*
G01X15214470Y834165D01*
G01X15197452Y834165D01*
G01X15180180Y840007D01*
G01X15174592Y845595D01*
G01X15168750Y857025D01*
G01X15302354Y862867D02*
G01X15296512Y857025D01*
G01X15302354Y851437D01*
G01X15307942Y857025D01*
G01X15302354Y862867D01*
G01X15424274Y937035D02*
G01X15418686Y948465D01*
G01X15401414Y954307D01*
G01X15389984Y954307D01*
G01X15372966Y948465D01*
G01X15361536Y931447D01*
G01X15355694Y902745D01*
G01X15355694Y874297D01*
G01X15361536Y851437D01*
G01X15372966Y840007D01*
G01X15389984Y834165D01*
G01X15395826Y834165D01*
G01X15412844Y840007D01*
G01X15424274Y851437D01*
G01X15430116Y868455D01*
G01X15430116Y874297D01*
G01X15424274Y891315D01*
G01X15412844Y902745D01*
G01X15395826Y908587D01*
G01X15389984Y908587D01*
G01X15372966Y902745D01*
G01X15361536Y891315D01*
G01X15355694Y874297D01*
G01X15477868Y914175D02*
G01X15540860Y834165D01*
G01X15540860Y914175D02*
G01X15477868Y834165D01*
G01X15657192Y954307D02*
G01X15600042Y954307D01*
G01X15594454Y902745D01*
G01X15600042Y908587D01*
G01X15617314Y914175D01*
G01X15634332Y914175D01*
G01X15651604Y908587D01*
G01X15663034Y897157D01*
G01X15668622Y879885D01*
G01X15668622Y868455D01*
G01X15663034Y851437D01*
G01X15651604Y840007D01*
G01X15634332Y834165D01*
G01X15617314Y834165D01*
G01X15600042Y840007D01*
G01X15594454Y845595D01*
G01X15588612Y857025D01*
G01X15790796Y914175D02*
G01X15784954Y897157D01*
G01X15773524Y885727D01*
G01X15756506Y879885D01*
G01X15750664Y879885D01*
G01X15733646Y885727D01*
G01X15722216Y897157D01*
G01X15716374Y914175D01*
G01X15716374Y920017D01*
G01X15722216Y937035D01*
G01X15733646Y948465D01*
G01X15750664Y954307D01*
G01X15756506Y954307D01*
G01X15773524Y948465D01*
G01X15784954Y937035D01*
G01X15790796Y914175D01*
G01X15790796Y885727D01*
G01X15784954Y857025D01*
G01X15773524Y840007D01*
G01X15756506Y834165D01*
G01X15745076Y834165D01*
G01X15727804Y840007D01*
G01X15722216Y851437D01*
G01X15844390Y862867D02*
G01X15838548Y857025D01*
G01X15844390Y851437D01*
G01X15849978Y857025D01*
G01X15844390Y862867D01*
G01X15897730Y931447D02*
G01X15909160Y937035D01*
G01X15926432Y954307D01*
G01X15926432Y834165D01*
G01X15974184Y914175D02*
G01X15974184Y834165D01*
G01X15974184Y891315D02*
G01X15991456Y908587D01*
G01X16002886Y914175D01*
G01X16019904Y914175D01*
G01X16031334Y908587D01*
G01X16037176Y891315D01*
G01X16037176Y834165D01*
G01X16037176Y891315D02*
G01X16054194Y908587D01*
G01X16065624Y914175D01*
G01X16082896Y914175D01*
G01X16094326Y908587D01*
G01X16099914Y891315D01*
G01X16099914Y834165D01*
G01X16147666Y954307D02*
G01X16153508Y948465D01*
G01X16159096Y954307D01*
G01X16153508Y959895D01*
G01X16147666Y954307D01*
G01X16153508Y914175D02*
G01X16153508Y834165D01*
G01X16206848Y954307D02*
G01X16206848Y834165D01*
G01X16294732Y977167D02*
G01X16283302Y965737D01*
G01X16271872Y948465D01*
G01X16260442Y925605D01*
G01X16254600Y897157D01*
G01X16254600Y874297D01*
G01X16260442Y845595D01*
G01X16271872Y822735D01*
G01X16283302Y805717D01*
G01X16294732Y794287D01*
G01X16376774Y954307D02*
G01X16359756Y948465D01*
G01X16348326Y931447D01*
G01X16342484Y902745D01*
G01X16342484Y885727D01*
G01X16348326Y857025D01*
G01X16359756Y840007D01*
G01X16376774Y834165D01*
G01X16388204Y834165D01*
G01X16405476Y840007D01*
G01X16416906Y857025D01*
G01X16422494Y885727D01*
G01X16422494Y902745D01*
G01X16416906Y931447D01*
G01X16405476Y948465D01*
G01X16388204Y954307D01*
G01X16376774Y954307D01*
G01X16476088Y862867D02*
G01X16470246Y857025D01*
G01X16476088Y851437D01*
G01X16481676Y857025D01*
G01X16476088Y862867D01*
G01X16598008Y937035D02*
G01X16592420Y948465D01*
G01X16575148Y954307D01*
G01X16563718Y954307D01*
G01X16546700Y948465D01*
G01X16535270Y931447D01*
G01X16529428Y902745D01*
G01X16529428Y874297D01*
G01X16535270Y851437D01*
G01X16546700Y840007D01*
G01X16563718Y834165D01*
G01X16569560Y834165D01*
G01X16586578Y840007D01*
G01X16598008Y851437D01*
G01X16603850Y868455D01*
G01X16603850Y874297D01*
G01X16598008Y891315D01*
G01X16586578Y902745D01*
G01X16569560Y908587D01*
G01X16563718Y908587D01*
G01X16546700Y902745D01*
G01X16535270Y891315D01*
G01X16529428Y874297D01*
G01X16685892Y954307D02*
G01X16668874Y948465D01*
G01X16657444Y931447D01*
G01X16651602Y902745D01*
G01X16651602Y885727D01*
G01X16657444Y857025D01*
G01X16668874Y840007D01*
G01X16685892Y834165D01*
G01X16697322Y834165D01*
G01X16714594Y840007D01*
G01X16726024Y857025D01*
G01X16731612Y885727D01*
G01X16731612Y902745D01*
G01X16726024Y931447D01*
G01X16714594Y948465D01*
G01X16697322Y954307D01*
G01X16685892Y954307D01*
G01X16813654Y954307D02*
G01X16796636Y948465D01*
G01X16785206Y931447D01*
G01X16779364Y902745D01*
G01X16779364Y885727D01*
G01X16785206Y857025D01*
G01X16796636Y840007D01*
G01X16813654Y834165D01*
G01X16825084Y834165D01*
G01X16842356Y840007D01*
G01X16853786Y857025D01*
G01X16859374Y885727D01*
G01X16859374Y902745D01*
G01X16853786Y931447D01*
G01X16842356Y948465D01*
G01X16825084Y954307D01*
G01X16813654Y954307D01*
G01X16907126Y914175D02*
G01X16970118Y834165D01*
G01X16970118Y914175D02*
G01X16907126Y834165D01*
G01X17017870Y931447D02*
G01X17029300Y937035D01*
G01X17046572Y954307D01*
G01X17046572Y834165D01*
G01X17100166Y862867D02*
G01X17094324Y857025D01*
G01X17100166Y851437D01*
G01X17105754Y857025D01*
G01X17100166Y862867D01*
G01X17222086Y954307D02*
G01X17164936Y954307D01*
G01X17159348Y902745D01*
G01X17164936Y908587D01*
G01X17182208Y914175D01*
G01X17199226Y914175D01*
G01X17216498Y908587D01*
G01X17227928Y897157D01*
G01X17233516Y879885D01*
G01X17233516Y868455D01*
G01X17227928Y851437D01*
G01X17216498Y840007D01*
G01X17199226Y834165D01*
G01X17182208Y834165D01*
G01X17164936Y840007D01*
G01X17159348Y845595D01*
G01X17153506Y857025D01*
G01X17315558Y954307D02*
G01X17298540Y948465D01*
G01X17287110Y931447D01*
G01X17281268Y902745D01*
G01X17281268Y885727D01*
G01X17287110Y857025D01*
G01X17298540Y840007D01*
G01X17315558Y834165D01*
G01X17326988Y834165D01*
G01X17344260Y840007D01*
G01X17355690Y857025D01*
G01X17361278Y885727D01*
G01X17361278Y902745D01*
G01X17355690Y931447D01*
G01X17344260Y948465D01*
G01X17326988Y954307D01*
G01X17315558Y954307D01*
G01X17443320Y954307D02*
G01X17426302Y948465D01*
G01X17414872Y931447D01*
G01X17409030Y902745D01*
G01X17409030Y885727D01*
G01X17414872Y857025D01*
G01X17426302Y840007D01*
G01X17443320Y834165D01*
G01X17454750Y834165D01*
G01X17472022Y840007D01*
G01X17483452Y857025D01*
G01X17489040Y885727D01*
G01X17489040Y902745D01*
G01X17483452Y931447D01*
G01X17472022Y948465D01*
G01X17454750Y954307D01*
G01X17443320Y954307D01*
G01X17536792Y914175D02*
G01X17536792Y834165D01*
G01X17536792Y891315D02*
G01X17554064Y908587D01*
G01X17565494Y914175D01*
G01X17582512Y914175D01*
G01X17593942Y908587D01*
G01X17599784Y891315D01*
G01X17599784Y834165D01*
G01X17599784Y891315D02*
G01X17616802Y908587D01*
G01X17628232Y914175D01*
G01X17645504Y914175D01*
G01X17656934Y908587D01*
G01X17662522Y891315D01*
G01X17662522Y834165D01*
G01X17710274Y914175D02*
G01X17710274Y834165D01*
G01X17710274Y891315D02*
G01X17727546Y908587D01*
G01X17738976Y914175D01*
G01X17755994Y914175D01*
G01X17767424Y908587D01*
G01X17773266Y891315D01*
G01X17773266Y834165D01*
G01X17773266Y891315D02*
G01X17790284Y908587D01*
G01X17801714Y914175D01*
G01X17818986Y914175D01*
G01X17830416Y908587D01*
G01X17836004Y891315D01*
G01X17836004Y834165D01*
G01X17883756Y977167D02*
G01X17895186Y965737D01*
G01X17906616Y948465D01*
G01X17918046Y925605D01*
G01X17923888Y897157D01*
G01X17923888Y874297D01*
G01X17918046Y845595D01*
G01X17906616Y822735D01*
G01X17895186Y805717D01*
G01X17883756Y794287D01*
G01X18928857Y954307D02*
G01X18928857Y834165D01*
G01X18928857Y954307D02*
G01X18980419Y954307D01*
G01X18997437Y948465D01*
G01X19003279Y942877D01*
G01X19008867Y931447D01*
G01X19008867Y914175D01*
G01X19003279Y902745D01*
G01X18997437Y897157D01*
G01X18980419Y891315D01*
G01X18928857Y891315D01*
G01X19096751Y954307D02*
G01X19096751Y834165D01*
G01X19056619Y954307D02*
G01X19136629Y954307D01*
G01X19184381Y954307D02*
G01X19184381Y834165D01*
G01X19264391Y954307D02*
G01X19264391Y834165D01*
G01X19184381Y897157D02*
G01X19264391Y897157D01*
G01X20470274Y937035D02*
G01X20458844Y948465D01*
G01X20441826Y954307D01*
G01X20418966Y954307D01*
G01X20401694Y948465D01*
G01X20390264Y937035D01*
G01X20390264Y925605D01*
G01X20396106Y914175D01*
G01X20401694Y908587D01*
G01X20413124Y902745D01*
G01X20447414Y891315D01*
G01X20458844Y885727D01*
G01X20464686Y879885D01*
G01X20470274Y868455D01*
G01X20470274Y851437D01*
G01X20458844Y840007D01*
G01X20441826Y834165D01*
G01X20418966Y834165D01*
G01X20401694Y840007D01*
G01X20390264Y851437D01*
G01X20518026Y954307D02*
G01X20518026Y834165D01*
G01X20594480Y914175D02*
G01X20583050Y908587D01*
G01X20571620Y897157D01*
G01X20565778Y879885D01*
G01X20565778Y868455D01*
G01X20571620Y851437D01*
G01X20583050Y840007D01*
G01X20594480Y834165D01*
G01X20611498Y834165D01*
G01X20622928Y840007D01*
G01X20634358Y851437D01*
G01X20640200Y868455D01*
G01X20640200Y879885D01*
G01X20634358Y897157D01*
G01X20622928Y908587D01*
G01X20611498Y914175D01*
G01X20594480Y914175D01*
G01X20705224Y954307D02*
G01X20705224Y857025D01*
G01X20710812Y840007D01*
G01X20722242Y834165D01*
G01X20733672Y834165D01*
G01X20687952Y914175D02*
G01X20728084Y914175D01*
G01X21821445Y954307D02*
G01X21821445Y834165D01*
G01X21821445Y954307D02*
G01X21873007Y954307D01*
G01X21890025Y948465D01*
G01X21895867Y942877D01*
G01X21901455Y931447D01*
G01X21901455Y914175D01*
G01X21895867Y902745D01*
G01X21890025Y897157D01*
G01X21873007Y891315D01*
G01X21821445Y891315D01*
G01X22017787Y914175D02*
G01X22017787Y834165D01*
G01X22017787Y897157D02*
G01X22006357Y908587D01*
G01X21994927Y914175D01*
G01X21977909Y914175D01*
G01X21966479Y908587D01*
G01X21955049Y897157D01*
G01X21949207Y879885D01*
G01X21949207Y868455D01*
G01X21955049Y851437D01*
G01X21966479Y840007D01*
G01X21977909Y834165D01*
G01X21994927Y834165D01*
G01X22006357Y840007D01*
G01X22017787Y851437D01*
G01X22134119Y954307D02*
G01X22134119Y834165D01*
G01X22134119Y897157D02*
G01X22122689Y908587D01*
G01X22111259Y914175D01*
G01X22094241Y914175D01*
G01X22082811Y908587D01*
G01X22071381Y897157D01*
G01X22065539Y879885D01*
G01X22065539Y868455D01*
G01X22071381Y851437D01*
G01X22082811Y840007D01*
G01X22094241Y834165D01*
G01X22111259Y834165D01*
G01X22122689Y840007D01*
G01X22134119Y851437D01*
G01X23524915Y954307D02*
G01X23513485Y948465D01*
G01X23502055Y937035D01*
G01X23496467Y925605D01*
G01X23490625Y908587D01*
G01X23490625Y879885D01*
G01X23496467Y862867D01*
G01X23502055Y851437D01*
G01X23513485Y840007D01*
G01X23524915Y834165D01*
G01X23547775Y834165D01*
G01X23559205Y840007D01*
G01X23570635Y851437D01*
G01X23576477Y862867D01*
G01X23582065Y879885D01*
G01X23582065Y908587D01*
G01X23576477Y925605D01*
G01X23570635Y937035D01*
G01X23559205Y948465D01*
G01X23547775Y954307D01*
G01X23524915Y954307D01*
G01X23629817Y914175D02*
G01X23664107Y834165D01*
G01X23698397Y914175D02*
G01X23664107Y834165D01*
G01X23814729Y914175D02*
G01X23814729Y834165D01*
G01X23814729Y897157D02*
G01X23803299Y908587D01*
G01X23791869Y914175D01*
G01X23774851Y914175D01*
G01X23763421Y908587D01*
G01X23751991Y897157D01*
G01X23746149Y879885D01*
G01X23746149Y868455D01*
G01X23751991Y851437D01*
G01X23763421Y840007D01*
G01X23774851Y834165D01*
G01X23791869Y834165D01*
G01X23803299Y840007D01*
G01X23814729Y851437D01*
G01X23862481Y954307D02*
G01X23862481Y834165D01*
G01X25450126Y954307D02*
G01X25450126Y834165D01*
G01X25409994Y954307D02*
G01X25490004Y954307D01*
G01X25566458Y914175D02*
G01X25555028Y908587D01*
G01X25543598Y897157D01*
G01X25537756Y879885D01*
G01X25537756Y868455D01*
G01X25543598Y851437D01*
G01X25555028Y840007D01*
G01X25566458Y834165D01*
G01X25583476Y834165D01*
G01X25594906Y840007D01*
G01X25606336Y851437D01*
G01X25612178Y868455D01*
G01X25612178Y879885D01*
G01X25606336Y897157D01*
G01X25594906Y908587D01*
G01X25583476Y914175D01*
G01X25566458Y914175D01*
G01X25659930Y914175D02*
G01X25659930Y794287D01*
G01X25659930Y897157D02*
G01X25671360Y908587D01*
G01X25682790Y914175D01*
G01X25700062Y914175D01*
G01X25711492Y908587D01*
G01X25722922Y897157D01*
G01X25728510Y879885D01*
G01X25728510Y868455D01*
G01X25722922Y851437D01*
G01X25711492Y840007D01*
G01X25700062Y834165D01*
G01X25682790Y834165D01*
G01X25671360Y840007D01*
G01X25659930Y851437D01*
G01X25904278Y954307D02*
G01X25904278Y834165D01*
G01X25904278Y834165D02*
G01X25972858Y834165D01*
G01X26089190Y914175D02*
G01X26089190Y834165D01*
G01X26089190Y897157D02*
G01X26077760Y908587D01*
G01X26066330Y914175D01*
G01X26049312Y914175D01*
G01X26037882Y908587D01*
G01X26026452Y897157D01*
G01X26020610Y879885D01*
G01X26020610Y868455D01*
G01X26026452Y851437D01*
G01X26037882Y840007D01*
G01X26049312Y834165D01*
G01X26066330Y834165D01*
G01X26077760Y840007D01*
G01X26089190Y851437D01*
G01X26142784Y914175D02*
G01X26177074Y834165D01*
G01X26211364Y914175D02*
G01X26177074Y834165D01*
G01X26165644Y811305D01*
G01X26154214Y799875D01*
G01X26142784Y794287D01*
G01X26136942Y794287D01*
G01X26259116Y879885D02*
G01X26327696Y879885D01*
G01X26327696Y891315D01*
G01X26322108Y902745D01*
G01X26316266Y908587D01*
G01X26304836Y914175D01*
G01X26287818Y914175D01*
G01X26276388Y908587D01*
G01X26264958Y897157D01*
G01X26259116Y879885D01*
G01X26259116Y868455D01*
G01X26264958Y851437D01*
G01X26276388Y840007D01*
G01X26287818Y834165D01*
G01X26304836Y834165D01*
G01X26316266Y840007D01*
G01X26327696Y851437D01*
G01X26375448Y914175D02*
G01X26375448Y834165D01*
G01X26375448Y879885D02*
G01X26381290Y897157D01*
G01X26392720Y908587D01*
G01X26404150Y914175D01*
G01X26421168Y914175D01*
G01X26468920Y885727D02*
G01X26571790Y885727D01*
G01X26619542Y954307D02*
G01X26619542Y834165D01*
G01X26619542Y954307D02*
G01X26671104Y954307D01*
G01X26688122Y948465D01*
G01X26693964Y942877D01*
G01X26699552Y931447D01*
G01X26699552Y920017D01*
G01X26693964Y908587D01*
G01X26688122Y902745D01*
G01X26671104Y897157D01*
G01X26619542Y897157D02*
G01X26671104Y897157D01*
G01X26688122Y891315D01*
G01X26693964Y885727D01*
G01X26699552Y874297D01*
G01X26699552Y857025D01*
G01X26693964Y845595D01*
G01X26688122Y840007D01*
G01X26671104Y834165D01*
G01X26619542Y834165D01*
G01X26776006Y914175D02*
G01X26764576Y908587D01*
G01X26753146Y897157D01*
G01X26747304Y879885D01*
G01X26747304Y868455D01*
G01X26753146Y851437D01*
G01X26764576Y840007D01*
G01X26776006Y834165D01*
G01X26793024Y834165D01*
G01X26804454Y840007D01*
G01X26815884Y851437D01*
G01X26821726Y868455D01*
G01X26821726Y879885D01*
G01X26815884Y897157D01*
G01X26804454Y908587D01*
G01X26793024Y914175D01*
G01X26776006Y914175D01*
G01X26886750Y954307D02*
G01X26886750Y857025D01*
G01X26892338Y840007D01*
G01X26903768Y834165D01*
G01X26915198Y834165D01*
G01X26869478Y914175D02*
G01X26909610Y914175D01*
G01X26980222Y954307D02*
G01X26980222Y857025D01*
G01X26985810Y840007D01*
G01X26997240Y834165D01*
G01X27008670Y834165D01*
G01X26962950Y914175D02*
G01X27003082Y914175D01*
G01X27085124Y914175D02*
G01X27073694Y908587D01*
G01X27062264Y897157D01*
G01X27056422Y879885D01*
G01X27056422Y868455D01*
G01X27062264Y851437D01*
G01X27073694Y840007D01*
G01X27085124Y834165D01*
G01X27102142Y834165D01*
G01X27113572Y840007D01*
G01X27125002Y851437D01*
G01X27130844Y868455D01*
G01X27130844Y879885D01*
G01X27125002Y897157D01*
G01X27113572Y908587D01*
G01X27102142Y914175D01*
G01X27085124Y914175D01*
G01X27178596Y914175D02*
G01X27178596Y834165D01*
G01X27178596Y891315D02*
G01X27195868Y908587D01*
G01X27207298Y914175D01*
G01X27224316Y914175D01*
G01X27235746Y908587D01*
G01X27241588Y891315D01*
G01X27241588Y834165D01*
G01X27241588Y891315D02*
G01X27258606Y908587D01*
G01X27270036Y914175D01*
G01X27287308Y914175D01*
G01X27298738Y908587D01*
G01X27304326Y891315D01*
G01X27304326Y834165D01*
G01X27480094Y954307D02*
G01X27480094Y834165D01*
G01X27480094Y834165D02*
G01X27548674Y834165D01*
G01X27665006Y914175D02*
G01X27665006Y834165D01*
G01X27665006Y897157D02*
G01X27653576Y908587D01*
G01X27642146Y914175D01*
G01X27625128Y914175D01*
G01X27613698Y908587D01*
G01X27602268Y897157D01*
G01X27596426Y879885D01*
G01X27596426Y868455D01*
G01X27602268Y851437D01*
G01X27613698Y840007D01*
G01X27625128Y834165D01*
G01X27642146Y834165D01*
G01X27653576Y840007D01*
G01X27665006Y851437D01*
G01X27718600Y914175D02*
G01X27752890Y834165D01*
G01X27787180Y914175D02*
G01X27752890Y834165D01*
G01X27741460Y811305D01*
G01X27730030Y799875D01*
G01X27718600Y794287D01*
G01X27712758Y794287D01*
G01X27834932Y879885D02*
G01X27903512Y879885D01*
G01X27903512Y891315D01*
G01X27897924Y902745D01*
G01X27892082Y908587D01*
G01X27880652Y914175D01*
G01X27863634Y914175D01*
G01X27852204Y908587D01*
G01X27840774Y897157D01*
G01X27834932Y879885D01*
G01X27834932Y868455D01*
G01X27840774Y851437D01*
G01X27852204Y840007D01*
G01X27863634Y834165D01*
G01X27880652Y834165D01*
G01X27892082Y840007D01*
G01X27903512Y851437D01*
G01X27951264Y914175D02*
G01X27951264Y834165D01*
G01X27951264Y879885D02*
G01X27957106Y897157D01*
G01X27968536Y908587D01*
G01X27979966Y914175D01*
G01X27996984Y914175D01*
G01X13683975Y373735D02*
G01X13626825Y293725D01*
G01X13712677Y293725D01*
G01X13683975Y373735D02*
G01X13683975Y253593D01*
G01X15046830Y345033D02*
G01X15046830Y350875D01*
G01X15052418Y362305D01*
G01X15058260Y367893D01*
G01X15069690Y373735D01*
G01X15092550Y373735D01*
G01X15103980Y367893D01*
G01X15109568Y362305D01*
G01X15115410Y350875D01*
G01X15115410Y339445D01*
G01X15109568Y328015D01*
G01X15098138Y310743D01*
G01X15040988Y253593D01*
G01X15120998Y253593D01*
G01X15180180Y373735D02*
G01X15243172Y373735D01*
G01X15208882Y328015D01*
G01X15225900Y328015D01*
G01X15237330Y322173D01*
G01X15243172Y316585D01*
G01X15248760Y299313D01*
G01X15248760Y287883D01*
G01X15243172Y270865D01*
G01X15231742Y259435D01*
G01X15214470Y253593D01*
G01X15197452Y253593D01*
G01X15180180Y259435D01*
G01X15174592Y265023D01*
G01X15168750Y276453D01*
G01X15302354Y282295D02*
G01X15296512Y276453D01*
G01X15302354Y270865D01*
G01X15307942Y276453D01*
G01X15302354Y282295D01*
G01X15424274Y356463D02*
G01X15418686Y367893D01*
G01X15401414Y373735D01*
G01X15389984Y373735D01*
G01X15372966Y367893D01*
G01X15361536Y350875D01*
G01X15355694Y322173D01*
G01X15355694Y293725D01*
G01X15361536Y270865D01*
G01X15372966Y259435D01*
G01X15389984Y253593D01*
G01X15395826Y253593D01*
G01X15412844Y259435D01*
G01X15424274Y270865D01*
G01X15430116Y287883D01*
G01X15430116Y293725D01*
G01X15424274Y310743D01*
G01X15412844Y322173D01*
G01X15395826Y328015D01*
G01X15389984Y328015D01*
G01X15372966Y322173D01*
G01X15361536Y310743D01*
G01X15355694Y293725D01*
G01X15477868Y333603D02*
G01X15540860Y253593D01*
G01X15540860Y333603D02*
G01X15477868Y253593D01*
G01X15645762Y373735D02*
G01X15588612Y293725D01*
G01X15674464Y293725D01*
G01X15645762Y373735D02*
G01X15645762Y253593D01*
G01X15802226Y373735D02*
G01X15745076Y253593D01*
G01X15722216Y373735D02*
G01X15802226Y373735D01*
G01X15855820Y282295D02*
G01X15849978Y276453D01*
G01X15855820Y270865D01*
G01X15861408Y276453D01*
G01X15855820Y282295D01*
G01X15915002Y345033D02*
G01X15915002Y350875D01*
G01X15920590Y362305D01*
G01X15926432Y367893D01*
G01X15937862Y373735D01*
G01X15960722Y373735D01*
G01X15972152Y367893D01*
G01X15977740Y362305D01*
G01X15983582Y350875D01*
G01X15983582Y339445D01*
G01X15977740Y328015D01*
G01X15966310Y310743D01*
G01X15909160Y253593D01*
G01X15989170Y253593D01*
G01X16036922Y333603D02*
G01X16036922Y253593D01*
G01X16036922Y310743D02*
G01X16054194Y328015D01*
G01X16065624Y333603D01*
G01X16082642Y333603D01*
G01X16094072Y328015D01*
G01X16099914Y310743D01*
G01X16099914Y253593D01*
G01X16099914Y310743D02*
G01X16116932Y328015D01*
G01X16128362Y333603D01*
G01X16145634Y333603D01*
G01X16157064Y328015D01*
G01X16162652Y310743D01*
G01X16162652Y253593D01*
G01X16210404Y373735D02*
G01X16216246Y367893D01*
G01X16221834Y373735D01*
G01X16216246Y379323D01*
G01X16210404Y373735D01*
G01X16216246Y333603D02*
G01X16216246Y253593D01*
G01X16269586Y373735D02*
G01X16269586Y253593D01*
G01X16357470Y396595D02*
G01X16346040Y385165D01*
G01X16334610Y367893D01*
G01X16323180Y345033D01*
G01X16317338Y316585D01*
G01X16317338Y293725D01*
G01X16323180Y265023D01*
G01X16334610Y242163D01*
G01X16346040Y225145D01*
G01X16357470Y213715D01*
G01X16439512Y373735D02*
G01X16422494Y367893D01*
G01X16411064Y350875D01*
G01X16405222Y322173D01*
G01X16405222Y305155D01*
G01X16411064Y276453D01*
G01X16422494Y259435D01*
G01X16439512Y253593D01*
G01X16450942Y253593D01*
G01X16468214Y259435D01*
G01X16479644Y276453D01*
G01X16485232Y305155D01*
G01X16485232Y322173D01*
G01X16479644Y350875D01*
G01X16468214Y367893D01*
G01X16450942Y373735D01*
G01X16439512Y373735D01*
G01X16538826Y282295D02*
G01X16532984Y276453D01*
G01X16538826Y270865D01*
G01X16544414Y276453D01*
G01X16538826Y282295D01*
G01X16660746Y356463D02*
G01X16655158Y367893D01*
G01X16637886Y373735D01*
G01X16626456Y373735D01*
G01X16609438Y367893D01*
G01X16598008Y350875D01*
G01X16592166Y322173D01*
G01X16592166Y293725D01*
G01X16598008Y270865D01*
G01X16609438Y259435D01*
G01X16626456Y253593D01*
G01X16632298Y253593D01*
G01X16649316Y259435D01*
G01X16660746Y270865D01*
G01X16666588Y287883D01*
G01X16666588Y293725D01*
G01X16660746Y310743D01*
G01X16649316Y322173D01*
G01X16632298Y328015D01*
G01X16626456Y328015D01*
G01X16609438Y322173D01*
G01X16598008Y310743D01*
G01X16592166Y293725D01*
G01X16748630Y373735D02*
G01X16731612Y367893D01*
G01X16720182Y350875D01*
G01X16714340Y322173D01*
G01X16714340Y305155D01*
G01X16720182Y276453D01*
G01X16731612Y259435D01*
G01X16748630Y253593D01*
G01X16760060Y253593D01*
G01X16777332Y259435D01*
G01X16788762Y276453D01*
G01X16794350Y305155D01*
G01X16794350Y322173D01*
G01X16788762Y350875D01*
G01X16777332Y367893D01*
G01X16760060Y373735D01*
G01X16748630Y373735D01*
G01X16876392Y373735D02*
G01X16859374Y367893D01*
G01X16847944Y350875D01*
G01X16842102Y322173D01*
G01X16842102Y305155D01*
G01X16847944Y276453D01*
G01X16859374Y259435D01*
G01X16876392Y253593D01*
G01X16887822Y253593D01*
G01X16905094Y259435D01*
G01X16916524Y276453D01*
G01X16922112Y305155D01*
G01X16922112Y322173D01*
G01X16916524Y350875D01*
G01X16905094Y367893D01*
G01X16887822Y373735D01*
G01X16876392Y373735D01*
G01X16969864Y333603D02*
G01X17032856Y253593D01*
G01X17032856Y333603D02*
G01X16969864Y253593D01*
G01X17080608Y350875D02*
G01X17092038Y356463D01*
G01X17109310Y373735D01*
G01X17109310Y253593D01*
G01X17162904Y282295D02*
G01X17157062Y276453D01*
G01X17162904Y270865D01*
G01X17168492Y276453D01*
G01X17162904Y282295D01*
G01X17222086Y345033D02*
G01X17222086Y350875D01*
G01X17227674Y362305D01*
G01X17233516Y367893D01*
G01X17244946Y373735D01*
G01X17267806Y373735D01*
G01X17279236Y367893D01*
G01X17284824Y362305D01*
G01X17290666Y350875D01*
G01X17290666Y339445D01*
G01X17284824Y328015D01*
G01X17273394Y310743D01*
G01X17216244Y253593D01*
G01X17296254Y253593D01*
G01X17378296Y373735D02*
G01X17361278Y367893D01*
G01X17349848Y350875D01*
G01X17344006Y322173D01*
G01X17344006Y305155D01*
G01X17349848Y276453D01*
G01X17361278Y259435D01*
G01X17378296Y253593D01*
G01X17389726Y253593D01*
G01X17406998Y259435D01*
G01X17418428Y276453D01*
G01X17424016Y305155D01*
G01X17424016Y322173D01*
G01X17418428Y350875D01*
G01X17406998Y367893D01*
G01X17389726Y373735D01*
G01X17378296Y373735D01*
G01X17506058Y373735D02*
G01X17489040Y367893D01*
G01X17477610Y350875D01*
G01X17471768Y322173D01*
G01X17471768Y305155D01*
G01X17477610Y276453D01*
G01X17489040Y259435D01*
G01X17506058Y253593D01*
G01X17517488Y253593D01*
G01X17534760Y259435D01*
G01X17546190Y276453D01*
G01X17551778Y305155D01*
G01X17551778Y322173D01*
G01X17546190Y350875D01*
G01X17534760Y367893D01*
G01X17517488Y373735D01*
G01X17506058Y373735D01*
G01X17599530Y333603D02*
G01X17599530Y253593D01*
G01X17599530Y310743D02*
G01X17616802Y328015D01*
G01X17628232Y333603D01*
G01X17645250Y333603D01*
G01X17656680Y328015D01*
G01X17662522Y310743D01*
G01X17662522Y253593D01*
G01X17662522Y310743D02*
G01X17679540Y328015D01*
G01X17690970Y333603D01*
G01X17708242Y333603D01*
G01X17719672Y328015D01*
G01X17725260Y310743D01*
G01X17725260Y253593D01*
G01X17773012Y333603D02*
G01X17773012Y253593D01*
G01X17773012Y310743D02*
G01X17790284Y328015D01*
G01X17801714Y333603D01*
G01X17818732Y333603D01*
G01X17830162Y328015D01*
G01X17836004Y310743D01*
G01X17836004Y253593D01*
G01X17836004Y310743D02*
G01X17853022Y328015D01*
G01X17864452Y333603D01*
G01X17881724Y333603D01*
G01X17893154Y328015D01*
G01X17898742Y310743D01*
G01X17898742Y253593D01*
G01X17946494Y396595D02*
G01X17957924Y385165D01*
G01X17969354Y367893D01*
G01X17980784Y345033D01*
G01X17986626Y316585D01*
G01X17986626Y293725D01*
G01X17980784Y265023D01*
G01X17969354Y242163D01*
G01X17957924Y225145D01*
G01X17946494Y213715D01*
G01X18928857Y373735D02*
G01X18928857Y253593D01*
G01X18928857Y373735D02*
G01X18980419Y373735D01*
G01X18997437Y367893D01*
G01X19003279Y362305D01*
G01X19008867Y350875D01*
G01X19008867Y333603D01*
G01X19003279Y322173D01*
G01X18997437Y316585D01*
G01X18980419Y310743D01*
G01X18928857Y310743D01*
G01X19096751Y373735D02*
G01X19096751Y253593D01*
G01X19056619Y373735D02*
G01X19136629Y373735D01*
G01X19184381Y373735D02*
G01X19184381Y253593D01*
G01X19264391Y373735D02*
G01X19264391Y253593D01*
G01X19184381Y316585D02*
G01X19264391Y316585D01*
G01X20470274Y356463D02*
G01X20458844Y367893D01*
G01X20441826Y373735D01*
G01X20418966Y373735D01*
G01X20401694Y367893D01*
G01X20390264Y356463D01*
G01X20390264Y345033D01*
G01X20396106Y333603D01*
G01X20401694Y328015D01*
G01X20413124Y322173D01*
G01X20447414Y310743D01*
G01X20458844Y305155D01*
G01X20464686Y299313D01*
G01X20470274Y287883D01*
G01X20470274Y270865D01*
G01X20458844Y259435D01*
G01X20441826Y253593D01*
G01X20418966Y253593D01*
G01X20401694Y259435D01*
G01X20390264Y270865D01*
G01X20518026Y373735D02*
G01X20518026Y253593D01*
G01X20594480Y333603D02*
G01X20583050Y328015D01*
G01X20571620Y316585D01*
G01X20565778Y299313D01*
G01X20565778Y287883D01*
G01X20571620Y270865D01*
G01X20583050Y259435D01*
G01X20594480Y253593D01*
G01X20611498Y253593D01*
G01X20622928Y259435D01*
G01X20634358Y270865D01*
G01X20640200Y287883D01*
G01X20640200Y299313D01*
G01X20634358Y316585D01*
G01X20622928Y328015D01*
G01X20611498Y333603D01*
G01X20594480Y333603D01*
G01X20705224Y373735D02*
G01X20705224Y276453D01*
G01X20710812Y259435D01*
G01X20722242Y253593D01*
G01X20733672Y253593D01*
G01X20687952Y333603D02*
G01X20728084Y333603D01*
G01X21821445Y373735D02*
G01X21821445Y253593D01*
G01X21821445Y373735D02*
G01X21873007Y373735D01*
G01X21890025Y367893D01*
G01X21895867Y362305D01*
G01X21901455Y350875D01*
G01X21901455Y333603D01*
G01X21895867Y322173D01*
G01X21890025Y316585D01*
G01X21873007Y310743D01*
G01X21821445Y310743D01*
G01X22017787Y333603D02*
G01X22017787Y253593D01*
G01X22017787Y316585D02*
G01X22006357Y328015D01*
G01X21994927Y333603D01*
G01X21977909Y333603D01*
G01X21966479Y328015D01*
G01X21955049Y316585D01*
G01X21949207Y299313D01*
G01X21949207Y287883D01*
G01X21955049Y270865D01*
G01X21966479Y259435D01*
G01X21977909Y253593D01*
G01X21994927Y253593D01*
G01X22006357Y259435D01*
G01X22017787Y270865D01*
G01X22134119Y373735D02*
G01X22134119Y253593D01*
G01X22134119Y316585D02*
G01X22122689Y328015D01*
G01X22111259Y333603D01*
G01X22094241Y333603D01*
G01X22082811Y328015D01*
G01X22071381Y316585D01*
G01X22065539Y299313D01*
G01X22065539Y287883D01*
G01X22071381Y270865D01*
G01X22082811Y259435D01*
G01X22094241Y253593D01*
G01X22111259Y253593D01*
G01X22122689Y259435D01*
G01X22134119Y270865D01*
G01X23524915Y373735D02*
G01X23513485Y367893D01*
G01X23502055Y356463D01*
G01X23496467Y345033D01*
G01X23490625Y328015D01*
G01X23490625Y299313D01*
G01X23496467Y282295D01*
G01X23502055Y270865D01*
G01X23513485Y259435D01*
G01X23524915Y253593D01*
G01X23547775Y253593D01*
G01X23559205Y259435D01*
G01X23570635Y270865D01*
G01X23576477Y282295D01*
G01X23582065Y299313D01*
G01X23582065Y328015D01*
G01X23576477Y345033D01*
G01X23570635Y356463D01*
G01X23559205Y367893D01*
G01X23547775Y373735D01*
G01X23524915Y373735D01*
G01X23629817Y333603D02*
G01X23664107Y253593D01*
G01X23698397Y333603D02*
G01X23664107Y253593D01*
G01X23814729Y333603D02*
G01X23814729Y253593D01*
G01X23814729Y316585D02*
G01X23803299Y328015D01*
G01X23791869Y333603D01*
G01X23774851Y333603D01*
G01X23763421Y328015D01*
G01X23751991Y316585D01*
G01X23746149Y299313D01*
G01X23746149Y287883D01*
G01X23751991Y270865D01*
G01X23763421Y259435D01*
G01X23774851Y253593D01*
G01X23791869Y253593D01*
G01X23803299Y259435D01*
G01X23814729Y270865D01*
G01X23862481Y373735D02*
G01X23862481Y253593D01*
G01X25450126Y373735D02*
G01X25450126Y253593D01*
G01X25409994Y373735D02*
G01X25490004Y373735D01*
G01X25566458Y333603D02*
G01X25555028Y328015D01*
G01X25543598Y316585D01*
G01X25537756Y299313D01*
G01X25537756Y287883D01*
G01X25543598Y270865D01*
G01X25555028Y259435D01*
G01X25566458Y253593D01*
G01X25583476Y253593D01*
G01X25594906Y259435D01*
G01X25606336Y270865D01*
G01X25612178Y287883D01*
G01X25612178Y299313D01*
G01X25606336Y316585D01*
G01X25594906Y328015D01*
G01X25583476Y333603D01*
G01X25566458Y333603D01*
G01X25659930Y333603D02*
G01X25659930Y213715D01*
G01X25659930Y316585D02*
G01X25671360Y328015D01*
G01X25682790Y333603D01*
G01X25700062Y333603D01*
G01X25711492Y328015D01*
G01X25722922Y316585D01*
G01X25728510Y299313D01*
G01X25728510Y287883D01*
G01X25722922Y270865D01*
G01X25711492Y259435D01*
G01X25700062Y253593D01*
G01X25682790Y253593D01*
G01X25671360Y259435D01*
G01X25659930Y270865D01*
G01X25904278Y373735D02*
G01X25904278Y253593D01*
G01X25904278Y253593D02*
G01X25972858Y253593D01*
G01X26089190Y333603D02*
G01X26089190Y253593D01*
G01X26089190Y316585D02*
G01X26077760Y328015D01*
G01X26066330Y333603D01*
G01X26049312Y333603D01*
G01X26037882Y328015D01*
G01X26026452Y316585D01*
G01X26020610Y299313D01*
G01X26020610Y287883D01*
G01X26026452Y270865D01*
G01X26037882Y259435D01*
G01X26049312Y253593D01*
G01X26066330Y253593D01*
G01X26077760Y259435D01*
G01X26089190Y270865D01*
G01X26142784Y333603D02*
G01X26177074Y253593D01*
G01X26211364Y333603D02*
G01X26177074Y253593D01*
G01X26165644Y230733D01*
G01X26154214Y219303D01*
G01X26142784Y213715D01*
G01X26136942Y213715D01*
G01X26259116Y299313D02*
G01X26327696Y299313D01*
G01X26327696Y310743D01*
G01X26322108Y322173D01*
G01X26316266Y328015D01*
G01X26304836Y333603D01*
G01X26287818Y333603D01*
G01X26276388Y328015D01*
G01X26264958Y316585D01*
G01X26259116Y299313D01*
G01X26259116Y287883D01*
G01X26264958Y270865D01*
G01X26276388Y259435D01*
G01X26287818Y253593D01*
G01X26304836Y253593D01*
G01X26316266Y259435D01*
G01X26327696Y270865D01*
G01X26375448Y333603D02*
G01X26375448Y253593D01*
G01X26375448Y299313D02*
G01X26381290Y316585D01*
G01X26392720Y328015D01*
G01X26404150Y333603D01*
G01X26421168Y333603D01*
G01X26468920Y305155D02*
G01X26571790Y305155D01*
G01X26619542Y373735D02*
G01X26619542Y253593D01*
G01X26619542Y373735D02*
G01X26671104Y373735D01*
G01X26688122Y367893D01*
G01X26693964Y362305D01*
G01X26699552Y350875D01*
G01X26699552Y339445D01*
G01X26693964Y328015D01*
G01X26688122Y322173D01*
G01X26671104Y316585D01*
G01X26619542Y316585D02*
G01X26671104Y316585D01*
G01X26688122Y310743D01*
G01X26693964Y305155D01*
G01X26699552Y293725D01*
G01X26699552Y276453D01*
G01X26693964Y265023D01*
G01X26688122Y259435D01*
G01X26671104Y253593D01*
G01X26619542Y253593D01*
G01X26776006Y333603D02*
G01X26764576Y328015D01*
G01X26753146Y316585D01*
G01X26747304Y299313D01*
G01X26747304Y287883D01*
G01X26753146Y270865D01*
G01X26764576Y259435D01*
G01X26776006Y253593D01*
G01X26793024Y253593D01*
G01X26804454Y259435D01*
G01X26815884Y270865D01*
G01X26821726Y287883D01*
G01X26821726Y299313D01*
G01X26815884Y316585D01*
G01X26804454Y328015D01*
G01X26793024Y333603D01*
G01X26776006Y333603D01*
G01X26886750Y373735D02*
G01X26886750Y276453D01*
G01X26892338Y259435D01*
G01X26903768Y253593D01*
G01X26915198Y253593D01*
G01X26869478Y333603D02*
G01X26909610Y333603D01*
G01X26980222Y373735D02*
G01X26980222Y276453D01*
G01X26985810Y259435D01*
G01X26997240Y253593D01*
G01X27008670Y253593D01*
G01X26962950Y333603D02*
G01X27003082Y333603D01*
G01X27085124Y333603D02*
G01X27073694Y328015D01*
G01X27062264Y316585D01*
G01X27056422Y299313D01*
G01X27056422Y287883D01*
G01X27062264Y270865D01*
G01X27073694Y259435D01*
G01X27085124Y253593D01*
G01X27102142Y253593D01*
G01X27113572Y259435D01*
G01X27125002Y270865D01*
G01X27130844Y287883D01*
G01X27130844Y299313D01*
G01X27125002Y316585D01*
G01X27113572Y328015D01*
G01X27102142Y333603D01*
G01X27085124Y333603D01*
G01X27178596Y333603D02*
G01X27178596Y253593D01*
G01X27178596Y310743D02*
G01X27195868Y328015D01*
G01X27207298Y333603D01*
G01X27224316Y333603D01*
G01X27235746Y328015D01*
G01X27241588Y310743D01*
G01X27241588Y253593D01*
G01X27241588Y310743D02*
G01X27258606Y328015D01*
G01X27270036Y333603D01*
G01X27287308Y333603D01*
G01X27298738Y328015D01*
G01X27304326Y310743D01*
G01X27304326Y253593D01*
G01X27480094Y373735D02*
G01X27480094Y253593D01*
G01X27480094Y253593D02*
G01X27548674Y253593D01*
G01X27665006Y333603D02*
G01X27665006Y253593D01*
G01X27665006Y316585D02*
G01X27653576Y328015D01*
G01X27642146Y333603D01*
G01X27625128Y333603D01*
G01X27613698Y328015D01*
G01X27602268Y316585D01*
G01X27596426Y299313D01*
G01X27596426Y287883D01*
G01X27602268Y270865D01*
G01X27613698Y259435D01*
G01X27625128Y253593D01*
G01X27642146Y253593D01*
G01X27653576Y259435D01*
G01X27665006Y270865D01*
G01X27718600Y333603D02*
G01X27752890Y253593D01*
G01X27787180Y333603D02*
G01X27752890Y253593D01*
G01X27741460Y230733D01*
G01X27730030Y219303D01*
G01X27718600Y213715D01*
G01X27712758Y213715D01*
G01X27834932Y299313D02*
G01X27903512Y299313D01*
G01X27903512Y310743D01*
G01X27897924Y322173D01*
G01X27892082Y328015D01*
G01X27880652Y333603D01*
G01X27863634Y333603D01*
G01X27852204Y328015D01*
G01X27840774Y316585D01*
G01X27834932Y299313D01*
G01X27834932Y287883D01*
G01X27840774Y270865D01*
G01X27852204Y259435D01*
G01X27863634Y253593D01*
G01X27880652Y253593D01*
G01X27892082Y259435D01*
G01X27903512Y270865D01*
G01X27951264Y333603D02*
G01X27951264Y253593D01*
G01X27951264Y299313D02*
G01X27957106Y316585D01*
G01X27968536Y328015D01*
G01X27979966Y333603D01*
G01X27996984Y333603D01*
G01X13683975Y-206836D02*
G01X13626825Y-286846D01*
G01X13712677Y-286846D01*
G01X13683975Y-206836D02*
G01X13683975Y-326978D01*
G01X15046830Y-235538D02*
G01X15046830Y-229696D01*
G01X15052418Y-218266D01*
G01X15058260Y-212678D01*
G01X15069690Y-206836D01*
G01X15092550Y-206836D01*
G01X15103980Y-212678D01*
G01X15109568Y-218266D01*
G01X15115410Y-229696D01*
G01X15115410Y-241126D01*
G01X15109568Y-252556D01*
G01X15098138Y-269828D01*
G01X15040988Y-326978D01*
G01X15120998Y-326978D01*
G01X15248760Y-206836D02*
G01X15191610Y-326978D01*
G01X15168750Y-206836D02*
G01X15248760Y-206836D01*
G01X15302354Y-298276D02*
G01X15296512Y-304118D01*
G01X15302354Y-309706D01*
G01X15307942Y-304118D01*
G01X15302354Y-298276D01*
G01X15424274Y-224108D02*
G01X15418686Y-212678D01*
G01X15401414Y-206836D01*
G01X15389984Y-206836D01*
G01X15372966Y-212678D01*
G01X15361536Y-229696D01*
G01X15355694Y-258398D01*
G01X15355694Y-286846D01*
G01X15361536Y-309706D01*
G01X15372966Y-321136D01*
G01X15389984Y-326978D01*
G01X15395826Y-326978D01*
G01X15412844Y-321136D01*
G01X15424274Y-309706D01*
G01X15430116Y-292688D01*
G01X15430116Y-286846D01*
G01X15424274Y-269828D01*
G01X15412844Y-258398D01*
G01X15395826Y-252556D01*
G01X15389984Y-252556D01*
G01X15372966Y-258398D01*
G01X15361536Y-269828D01*
G01X15355694Y-286846D01*
G01X15477868Y-246968D02*
G01X15477868Y-326978D01*
G01X15477868Y-269828D02*
G01X15495140Y-252556D01*
G01X15506570Y-246968D01*
G01X15523588Y-246968D01*
G01X15535018Y-252556D01*
G01X15540860Y-269828D01*
G01X15540860Y-326978D01*
G01X15540860Y-269828D02*
G01X15557878Y-252556D01*
G01X15569308Y-246968D01*
G01X15586580Y-246968D01*
G01X15598010Y-252556D01*
G01X15603598Y-269828D01*
G01X15603598Y-326978D01*
G01X15651350Y-206836D02*
G01X15657192Y-212678D01*
G01X15662780Y-206836D01*
G01X15657192Y-201248D01*
G01X15651350Y-206836D01*
G01X15657192Y-246968D02*
G01X15657192Y-326978D01*
G01X15710532Y-206836D02*
G01X15710532Y-326978D01*
G01X15798416Y-183976D02*
G01X15786986Y-195406D01*
G01X15775556Y-212678D01*
G01X15764126Y-235538D01*
G01X15758284Y-263986D01*
G01X15758284Y-286846D01*
G01X15764126Y-315548D01*
G01X15775556Y-338408D01*
G01X15786986Y-355426D01*
G01X15798416Y-366856D01*
G01X15880458Y-206836D02*
G01X15863440Y-212678D01*
G01X15852010Y-229696D01*
G01X15846168Y-258398D01*
G01X15846168Y-275416D01*
G01X15852010Y-304118D01*
G01X15863440Y-321136D01*
G01X15880458Y-326978D01*
G01X15891888Y-326978D01*
G01X15909160Y-321136D01*
G01X15920590Y-304118D01*
G01X15926178Y-275416D01*
G01X15926178Y-258398D01*
G01X15920590Y-229696D01*
G01X15909160Y-212678D01*
G01X15891888Y-206836D01*
G01X15880458Y-206836D01*
G01X15979772Y-298276D02*
G01X15973930Y-304118D01*
G01X15979772Y-309706D01*
G01X15985360Y-304118D01*
G01X15979772Y-298276D01*
G01X16113122Y-206836D02*
G01X16055972Y-326978D01*
G01X16033112Y-206836D02*
G01X16113122Y-206836D01*
G01X16195164Y-206836D02*
G01X16178146Y-212678D01*
G01X16166716Y-229696D01*
G01X16160874Y-258398D01*
G01X16160874Y-275416D01*
G01X16166716Y-304118D01*
G01X16178146Y-321136D01*
G01X16195164Y-326978D01*
G01X16206594Y-326978D01*
G01X16223866Y-321136D01*
G01X16235296Y-304118D01*
G01X16240884Y-275416D01*
G01X16240884Y-258398D01*
G01X16235296Y-229696D01*
G01X16223866Y-212678D01*
G01X16206594Y-206836D01*
G01X16195164Y-206836D01*
G01X16322926Y-206836D02*
G01X16305908Y-212678D01*
G01X16294478Y-229696D01*
G01X16288636Y-258398D01*
G01X16288636Y-275416D01*
G01X16294478Y-304118D01*
G01X16305908Y-321136D01*
G01X16322926Y-326978D01*
G01X16334356Y-326978D01*
G01X16351628Y-321136D01*
G01X16363058Y-304118D01*
G01X16368646Y-275416D01*
G01X16368646Y-258398D01*
G01X16363058Y-229696D01*
G01X16351628Y-212678D01*
G01X16334356Y-206836D01*
G01X16322926Y-206836D01*
G01X16416398Y-246968D02*
G01X16416398Y-326978D01*
G01X16416398Y-269828D02*
G01X16433670Y-252556D01*
G01X16445100Y-246968D01*
G01X16462118Y-246968D01*
G01X16473548Y-252556D01*
G01X16479390Y-269828D01*
G01X16479390Y-326978D01*
G01X16479390Y-269828D02*
G01X16496408Y-252556D01*
G01X16507838Y-246968D01*
G01X16525110Y-246968D01*
G01X16536540Y-252556D01*
G01X16542128Y-269828D01*
G01X16542128Y-326978D01*
G01X16589880Y-246968D02*
G01X16589880Y-326978D01*
G01X16589880Y-269828D02*
G01X16607152Y-252556D01*
G01X16618582Y-246968D01*
G01X16635600Y-246968D01*
G01X16647030Y-252556D01*
G01X16652872Y-269828D01*
G01X16652872Y-326978D01*
G01X16652872Y-269828D02*
G01X16669890Y-252556D01*
G01X16681320Y-246968D01*
G01X16698592Y-246968D01*
G01X16710022Y-252556D01*
G01X16715610Y-269828D01*
G01X16715610Y-326978D01*
G01X16763362Y-183976D02*
G01X16774792Y-195406D01*
G01X16786222Y-212678D01*
G01X16797652Y-235538D01*
G01X16803494Y-263986D01*
G01X16803494Y-286846D01*
G01X16797652Y-315548D01*
G01X16786222Y-338408D01*
G01X16774792Y-355426D01*
G01X16763362Y-366856D01*
G01X18928857Y-206836D02*
G01X18928857Y-326978D01*
G01X18928857Y-206836D02*
G01X19008867Y-326978D01*
G01X19008867Y-206836D02*
G01X19008867Y-326978D01*
G01X19056619Y-206836D02*
G01X19056619Y-326978D01*
G01X19056619Y-206836D02*
G01X19108181Y-206836D01*
G01X19125199Y-212678D01*
G01X19131041Y-218266D01*
G01X19136629Y-229696D01*
G01X19136629Y-246968D01*
G01X19131041Y-258398D01*
G01X19125199Y-263986D01*
G01X19108181Y-269828D01*
G01X19056619Y-269828D01*
G01X19224513Y-206836D02*
G01X19224513Y-326978D01*
G01X19184381Y-206836D02*
G01X19264391Y-206836D01*
G01X19312143Y-206836D02*
G01X19312143Y-326978D01*
G01X19392153Y-206836D02*
G01X19392153Y-326978D01*
G01X19312143Y-263986D02*
G01X19392153Y-263986D01*
G01X20390264Y-206836D02*
G01X20390264Y-326978D01*
G01X20390264Y-206836D02*
G01X20441826Y-206836D01*
G01X20458844Y-212678D01*
G01X20464686Y-218266D01*
G01X20470274Y-229696D01*
G01X20470274Y-241126D01*
G01X20464686Y-252556D01*
G01X20458844Y-258398D01*
G01X20441826Y-263986D01*
G01X20390264Y-263986D01*
G01X20430396Y-263986D02*
G01X20470274Y-326978D01*
G01X20546728Y-246968D02*
G01X20535298Y-252556D01*
G01X20523868Y-263986D01*
G01X20518026Y-281258D01*
G01X20518026Y-292688D01*
G01X20523868Y-309706D01*
G01X20535298Y-321136D01*
G01X20546728Y-326978D01*
G01X20563746Y-326978D01*
G01X20575176Y-321136D01*
G01X20586606Y-309706D01*
G01X20592448Y-292688D01*
G01X20592448Y-281258D01*
G01X20586606Y-263986D01*
G01X20575176Y-252556D01*
G01X20563746Y-246968D01*
G01X20546728Y-246968D01*
G01X20640200Y-246968D02*
G01X20640200Y-304118D01*
G01X20646042Y-321136D01*
G01X20657472Y-326978D01*
G01X20674490Y-326978D01*
G01X20685920Y-321136D01*
G01X20703192Y-304118D01*
G01X20703192Y-246968D02*
G01X20703192Y-326978D01*
G01X20750944Y-246968D02*
G01X20750944Y-326978D01*
G01X20750944Y-269828D02*
G01X20768216Y-252556D01*
G01X20779646Y-246968D01*
G01X20796664Y-246968D01*
G01X20808094Y-252556D01*
G01X20813936Y-269828D01*
G01X20813936Y-326978D01*
G01X20930268Y-206836D02*
G01X20930268Y-326978D01*
G01X20930268Y-263986D02*
G01X20918838Y-252556D01*
G01X20907408Y-246968D01*
G01X20890390Y-246968D01*
G01X20878960Y-252556D01*
G01X20867530Y-263986D01*
G01X20861688Y-281258D01*
G01X20861688Y-292688D01*
G01X20867530Y-309706D01*
G01X20878960Y-321136D01*
G01X20890390Y-326978D01*
G01X20907408Y-326978D01*
G01X20918838Y-321136D01*
G01X20930268Y-309706D01*
G01X21821445Y-206836D02*
G01X21867165Y-326978D01*
G01X21912885Y-206836D02*
G01X21867165Y-326978D01*
G01X21960637Y-206836D02*
G01X21966479Y-212678D01*
G01X21972067Y-206836D01*
G01X21966479Y-201248D01*
G01X21960637Y-206836D01*
G01X21966479Y-246968D02*
G01X21966479Y-326978D01*
G01X22088399Y-246968D02*
G01X22088399Y-326978D01*
G01X22088399Y-263986D02*
G01X22076969Y-252556D01*
G01X22065539Y-246968D01*
G01X22048521Y-246968D01*
G01X22037091Y-252556D01*
G01X22025661Y-263986D01*
G01X22019819Y-281258D01*
G01X22019819Y-292688D01*
G01X22025661Y-309706D01*
G01X22037091Y-321136D01*
G01X22048521Y-326978D01*
G01X22065539Y-326978D01*
G01X22076969Y-321136D01*
G01X22088399Y-309706D01*
G01X25450126Y-206836D02*
G01X25450126Y-326978D01*
G01X25409994Y-206836D02*
G01X25490004Y-206836D01*
G01X25566458Y-246968D02*
G01X25555028Y-252556D01*
G01X25543598Y-263986D01*
G01X25537756Y-281258D01*
G01X25537756Y-292688D01*
G01X25543598Y-309706D01*
G01X25555028Y-321136D01*
G01X25566458Y-326978D01*
G01X25583476Y-326978D01*
G01X25594906Y-321136D01*
G01X25606336Y-309706D01*
G01X25612178Y-292688D01*
G01X25612178Y-281258D01*
G01X25606336Y-263986D01*
G01X25594906Y-252556D01*
G01X25583476Y-246968D01*
G01X25566458Y-246968D01*
G01X25659930Y-246968D02*
G01X25659930Y-366856D01*
G01X25659930Y-263986D02*
G01X25671360Y-252556D01*
G01X25682790Y-246968D01*
G01X25700062Y-246968D01*
G01X25711492Y-252556D01*
G01X25722922Y-263986D01*
G01X25728510Y-281258D01*
G01X25728510Y-292688D01*
G01X25722922Y-309706D01*
G01X25711492Y-321136D01*
G01X25700062Y-326978D01*
G01X25682790Y-326978D01*
G01X25671360Y-321136D01*
G01X25659930Y-309706D01*
G01X25904278Y-206836D02*
G01X25904278Y-326978D01*
G01X25904278Y-326978D02*
G01X25972858Y-326978D01*
G01X26089190Y-246968D02*
G01X26089190Y-326978D01*
G01X26089190Y-263986D02*
G01X26077760Y-252556D01*
G01X26066330Y-246968D01*
G01X26049312Y-246968D01*
G01X26037882Y-252556D01*
G01X26026452Y-263986D01*
G01X26020610Y-281258D01*
G01X26020610Y-292688D01*
G01X26026452Y-309706D01*
G01X26037882Y-321136D01*
G01X26049312Y-326978D01*
G01X26066330Y-326978D01*
G01X26077760Y-321136D01*
G01X26089190Y-309706D01*
G01X26142784Y-246968D02*
G01X26177074Y-326978D01*
G01X26211364Y-246968D02*
G01X26177074Y-326978D01*
G01X26165644Y-349838D01*
G01X26154214Y-361268D01*
G01X26142784Y-366856D01*
G01X26136942Y-366856D01*
G01X26259116Y-281258D02*
G01X26327696Y-281258D01*
G01X26327696Y-269828D01*
G01X26322108Y-258398D01*
G01X26316266Y-252556D01*
G01X26304836Y-246968D01*
G01X26287818Y-246968D01*
G01X26276388Y-252556D01*
G01X26264958Y-263986D01*
G01X26259116Y-281258D01*
G01X26259116Y-292688D01*
G01X26264958Y-309706D01*
G01X26276388Y-321136D01*
G01X26287818Y-326978D01*
G01X26304836Y-326978D01*
G01X26316266Y-321136D01*
G01X26327696Y-309706D01*
G01X26375448Y-246968D02*
G01X26375448Y-326978D01*
G01X26375448Y-281258D02*
G01X26381290Y-263986D01*
G01X26392720Y-252556D01*
G01X26404150Y-246968D01*
G01X26421168Y-246968D01*
G01X26468920Y-275416D02*
G01X26571790Y-275416D01*
G01X26619542Y-206836D02*
G01X26619542Y-326978D01*
G01X26619542Y-206836D02*
G01X26671104Y-206836D01*
G01X26688122Y-212678D01*
G01X26693964Y-218266D01*
G01X26699552Y-229696D01*
G01X26699552Y-241126D01*
G01X26693964Y-252556D01*
G01X26688122Y-258398D01*
G01X26671104Y-263986D01*
G01X26619542Y-263986D02*
G01X26671104Y-263986D01*
G01X26688122Y-269828D01*
G01X26693964Y-275416D01*
G01X26699552Y-286846D01*
G01X26699552Y-304118D01*
G01X26693964Y-315548D01*
G01X26688122Y-321136D01*
G01X26671104Y-326978D01*
G01X26619542Y-326978D01*
G01X26776006Y-246968D02*
G01X26764576Y-252556D01*
G01X26753146Y-263986D01*
G01X26747304Y-281258D01*
G01X26747304Y-292688D01*
G01X26753146Y-309706D01*
G01X26764576Y-321136D01*
G01X26776006Y-326978D01*
G01X26793024Y-326978D01*
G01X26804454Y-321136D01*
G01X26815884Y-309706D01*
G01X26821726Y-292688D01*
G01X26821726Y-281258D01*
G01X26815884Y-263986D01*
G01X26804454Y-252556D01*
G01X26793024Y-246968D01*
G01X26776006Y-246968D01*
G01X26886750Y-206836D02*
G01X26886750Y-304118D01*
G01X26892338Y-321136D01*
G01X26903768Y-326978D01*
G01X26915198Y-326978D01*
G01X26869478Y-246968D02*
G01X26909610Y-246968D01*
G01X26980222Y-206836D02*
G01X26980222Y-304118D01*
G01X26985810Y-321136D01*
G01X26997240Y-326978D01*
G01X27008670Y-326978D01*
G01X26962950Y-246968D02*
G01X27003082Y-246968D01*
G01X27085124Y-246968D02*
G01X27073694Y-252556D01*
G01X27062264Y-263986D01*
G01X27056422Y-281258D01*
G01X27056422Y-292688D01*
G01X27062264Y-309706D01*
G01X27073694Y-321136D01*
G01X27085124Y-326978D01*
G01X27102142Y-326978D01*
G01X27113572Y-321136D01*
G01X27125002Y-309706D01*
G01X27130844Y-292688D01*
G01X27130844Y-281258D01*
G01X27125002Y-263986D01*
G01X27113572Y-252556D01*
G01X27102142Y-246968D01*
G01X27085124Y-246968D01*
G01X27178596Y-246968D02*
G01X27178596Y-326978D01*
G01X27178596Y-269828D02*
G01X27195868Y-252556D01*
G01X27207298Y-246968D01*
G01X27224316Y-246968D01*
G01X27235746Y-252556D01*
G01X27241588Y-269828D01*
G01X27241588Y-326978D01*
G01X27241588Y-269828D02*
G01X27258606Y-252556D01*
G01X27270036Y-246968D01*
G01X27287308Y-246968D01*
G01X27298738Y-252556D01*
G01X27304326Y-269828D01*
G01X27304326Y-326978D01*
G01X27480094Y-206836D02*
G01X27480094Y-326978D01*
G01X27480094Y-326978D02*
G01X27548674Y-326978D01*
G01X27665006Y-246968D02*
G01X27665006Y-326978D01*
G01X27665006Y-263986D02*
G01X27653576Y-252556D01*
G01X27642146Y-246968D01*
G01X27625128Y-246968D01*
G01X27613698Y-252556D01*
G01X27602268Y-263986D01*
G01X27596426Y-281258D01*
G01X27596426Y-292688D01*
G01X27602268Y-309706D01*
G01X27613698Y-321136D01*
G01X27625128Y-326978D01*
G01X27642146Y-326978D01*
G01X27653576Y-321136D01*
G01X27665006Y-309706D01*
G01X27718600Y-246968D02*
G01X27752890Y-326978D01*
G01X27787180Y-246968D02*
G01X27752890Y-326978D01*
G01X27741460Y-349838D01*
G01X27730030Y-361268D01*
G01X27718600Y-366856D01*
G01X27712758Y-366856D01*
G01X27834932Y-281258D02*
G01X27903512Y-281258D01*
G01X27903512Y-269828D01*
G01X27897924Y-258398D01*
G01X27892082Y-252556D01*
G01X27880652Y-246968D01*
G01X27863634Y-246968D01*
G01X27852204Y-252556D01*
G01X27840774Y-263986D01*
G01X27834932Y-281258D01*
G01X27834932Y-292688D01*
G01X27840774Y-309706D01*
G01X27852204Y-321136D01*
G01X27863634Y-326978D01*
G01X27880652Y-326978D01*
G01X27892082Y-321136D01*
G01X27903512Y-309706D01*
G01X27951264Y-246968D02*
G01X27951264Y-326978D01*
G01X27951264Y-281258D02*
G01X27957106Y-263986D01*
G01X27968536Y-252556D01*
G01X27979966Y-246968D01*
G01X27996984Y-246968D01*
G01X13695405Y-804679D02*
G01X13689817Y-793249D01*
G01X13672545Y-787407D01*
G01X13661115Y-787407D01*
G01X13644097Y-793249D01*
G01X13632667Y-810267D01*
G01X13626825Y-838969D01*
G01X13626825Y-867417D01*
G01X13632667Y-890277D01*
G01X13644097Y-901707D01*
G01X13661115Y-907549D01*
G01X13666957Y-907549D01*
G01X13683975Y-901707D01*
G01X13695405Y-890277D01*
G01X13701247Y-873259D01*
G01X13701247Y-867417D01*
G01X13695405Y-850399D01*
G01X13683975Y-838969D01*
G01X13666957Y-833127D01*
G01X13661115Y-833127D01*
G01X13644097Y-838969D01*
G01X13632667Y-850399D01*
G01X13626825Y-867417D01*
G01X15046830Y-816109D02*
G01X15046830Y-810267D01*
G01X15052418Y-798837D01*
G01X15058260Y-793249D01*
G01X15069690Y-787407D01*
G01X15092550Y-787407D01*
G01X15103980Y-793249D01*
G01X15109568Y-798837D01*
G01X15115410Y-810267D01*
G01X15115410Y-821697D01*
G01X15109568Y-833127D01*
G01X15098138Y-850399D01*
G01X15040988Y-907549D01*
G01X15120998Y-907549D01*
G01X15248760Y-787407D02*
G01X15191610Y-907549D01*
G01X15168750Y-787407D02*
G01X15248760Y-787407D01*
G01X15302354Y-878847D02*
G01X15296512Y-884689D01*
G01X15302354Y-890277D01*
G01X15307942Y-884689D01*
G01X15302354Y-878847D01*
G01X15424274Y-804679D02*
G01X15418686Y-793249D01*
G01X15401414Y-787407D01*
G01X15389984Y-787407D01*
G01X15372966Y-793249D01*
G01X15361536Y-810267D01*
G01X15355694Y-838969D01*
G01X15355694Y-867417D01*
G01X15361536Y-890277D01*
G01X15372966Y-901707D01*
G01X15389984Y-907549D01*
G01X15395826Y-907549D01*
G01X15412844Y-901707D01*
G01X15424274Y-890277D01*
G01X15430116Y-873259D01*
G01X15430116Y-867417D01*
G01X15424274Y-850399D01*
G01X15412844Y-838969D01*
G01X15395826Y-833127D01*
G01X15389984Y-833127D01*
G01X15372966Y-838969D01*
G01X15361536Y-850399D01*
G01X15355694Y-867417D01*
G01X15477868Y-827539D02*
G01X15540860Y-907549D01*
G01X15540860Y-827539D02*
G01X15477868Y-907549D01*
G01X15668622Y-787407D02*
G01X15611472Y-907549D01*
G01X15588612Y-787407D02*
G01X15668622Y-787407D01*
G01X15745076Y-787407D02*
G01X15727804Y-793249D01*
G01X15722216Y-804679D01*
G01X15722216Y-816109D01*
G01X15727804Y-827539D01*
G01X15739234Y-833127D01*
G01X15762094Y-838969D01*
G01X15779366Y-844557D01*
G01X15790796Y-855987D01*
G01X15796384Y-867417D01*
G01X15796384Y-884689D01*
G01X15790796Y-896119D01*
G01X15784954Y-901707D01*
G01X15767936Y-907549D01*
G01X15745076Y-907549D01*
G01X15727804Y-901707D01*
G01X15722216Y-896119D01*
G01X15716374Y-884689D01*
G01X15716374Y-867417D01*
G01X15722216Y-855987D01*
G01X15733646Y-844557D01*
G01X15750664Y-838969D01*
G01X15773524Y-833127D01*
G01X15784954Y-827539D01*
G01X15790796Y-816109D01*
G01X15790796Y-804679D01*
G01X15784954Y-793249D01*
G01X15767936Y-787407D01*
G01X15745076Y-787407D01*
G01X15849978Y-878847D02*
G01X15844136Y-884689D01*
G01X15849978Y-890277D01*
G01X15855566Y-884689D01*
G01X15849978Y-878847D01*
G01X15983328Y-787407D02*
G01X15926178Y-907549D01*
G01X15903318Y-787407D02*
G01X15983328Y-787407D01*
G01X16031080Y-827539D02*
G01X16031080Y-907549D01*
G01X16031080Y-850399D02*
G01X16048352Y-833127D01*
G01X16059782Y-827539D01*
G01X16076800Y-827539D01*
G01X16088230Y-833127D01*
G01X16094072Y-850399D01*
G01X16094072Y-907549D01*
G01X16094072Y-850399D02*
G01X16111090Y-833127D01*
G01X16122520Y-827539D01*
G01X16139792Y-827539D01*
G01X16151222Y-833127D01*
G01X16156810Y-850399D01*
G01X16156810Y-907549D01*
G01X16204562Y-787407D02*
G01X16210404Y-793249D01*
G01X16215992Y-787407D01*
G01X16210404Y-781819D01*
G01X16204562Y-787407D01*
G01X16210404Y-827539D02*
G01X16210404Y-907549D01*
G01X16263744Y-787407D02*
G01X16263744Y-907549D01*
G01X16351628Y-764547D02*
G01X16340198Y-775977D01*
G01X16328768Y-793249D01*
G01X16317338Y-816109D01*
G01X16311496Y-844557D01*
G01X16311496Y-867417D01*
G01X16317338Y-896119D01*
G01X16328768Y-918979D01*
G01X16340198Y-935997D01*
G01X16351628Y-947427D01*
G01X16433670Y-787407D02*
G01X16416652Y-793249D01*
G01X16405222Y-810267D01*
G01X16399380Y-838969D01*
G01X16399380Y-855987D01*
G01X16405222Y-884689D01*
G01X16416652Y-901707D01*
G01X16433670Y-907549D01*
G01X16445100Y-907549D01*
G01X16462372Y-901707D01*
G01X16473802Y-884689D01*
G01X16479390Y-855987D01*
G01X16479390Y-838969D01*
G01X16473802Y-810267D01*
G01X16462372Y-793249D01*
G01X16445100Y-787407D01*
G01X16433670Y-787407D01*
G01X16532984Y-878847D02*
G01X16527142Y-884689D01*
G01X16532984Y-890277D01*
G01X16538572Y-884689D01*
G01X16532984Y-878847D01*
G01X16666334Y-787407D02*
G01X16609184Y-907549D01*
G01X16586324Y-787407D02*
G01X16666334Y-787407D01*
G01X16748376Y-787407D02*
G01X16731358Y-793249D01*
G01X16719928Y-810267D01*
G01X16714086Y-838969D01*
G01X16714086Y-855987D01*
G01X16719928Y-884689D01*
G01X16731358Y-901707D01*
G01X16748376Y-907549D01*
G01X16759806Y-907549D01*
G01X16777078Y-901707D01*
G01X16788508Y-884689D01*
G01X16794096Y-855987D01*
G01X16794096Y-838969D01*
G01X16788508Y-810267D01*
G01X16777078Y-793249D01*
G01X16759806Y-787407D01*
G01X16748376Y-787407D01*
G01X16876138Y-787407D02*
G01X16859120Y-793249D01*
G01X16847690Y-810267D01*
G01X16841848Y-838969D01*
G01X16841848Y-855987D01*
G01X16847690Y-884689D01*
G01X16859120Y-901707D01*
G01X16876138Y-907549D01*
G01X16887568Y-907549D01*
G01X16904840Y-901707D01*
G01X16916270Y-884689D01*
G01X16921858Y-855987D01*
G01X16921858Y-838969D01*
G01X16916270Y-810267D01*
G01X16904840Y-793249D01*
G01X16887568Y-787407D01*
G01X16876138Y-787407D01*
G01X16969610Y-827539D02*
G01X17032602Y-907549D01*
G01X17032602Y-827539D02*
G01X16969610Y-907549D01*
G01X17086196Y-816109D02*
G01X17086196Y-810267D01*
G01X17091784Y-798837D01*
G01X17097626Y-793249D01*
G01X17109056Y-787407D01*
G01X17131916Y-787407D01*
G01X17143346Y-793249D01*
G01X17148934Y-798837D01*
G01X17154776Y-810267D01*
G01X17154776Y-821697D01*
G01X17148934Y-833127D01*
G01X17137504Y-850399D01*
G01X17080354Y-907549D01*
G01X17160364Y-907549D01*
G01X17213958Y-878847D02*
G01X17208116Y-884689D01*
G01X17213958Y-890277D01*
G01X17219546Y-884689D01*
G01X17213958Y-878847D01*
G01X17301588Y-787407D02*
G01X17284570Y-793249D01*
G01X17273140Y-810267D01*
G01X17267298Y-838969D01*
G01X17267298Y-855987D01*
G01X17273140Y-884689D01*
G01X17284570Y-901707D01*
G01X17301588Y-907549D01*
G01X17313018Y-907549D01*
G01X17330290Y-901707D01*
G01X17341720Y-884689D01*
G01X17347308Y-855987D01*
G01X17347308Y-838969D01*
G01X17341720Y-810267D01*
G01X17330290Y-793249D01*
G01X17313018Y-787407D01*
G01X17301588Y-787407D01*
G01X17429350Y-787407D02*
G01X17412332Y-793249D01*
G01X17400902Y-810267D01*
G01X17395060Y-838969D01*
G01X17395060Y-855987D01*
G01X17400902Y-884689D01*
G01X17412332Y-901707D01*
G01X17429350Y-907549D01*
G01X17440780Y-907549D01*
G01X17458052Y-901707D01*
G01X17469482Y-884689D01*
G01X17475070Y-855987D01*
G01X17475070Y-838969D01*
G01X17469482Y-810267D01*
G01X17458052Y-793249D01*
G01X17440780Y-787407D01*
G01X17429350Y-787407D01*
G01X17557112Y-787407D02*
G01X17540094Y-793249D01*
G01X17528664Y-810267D01*
G01X17522822Y-838969D01*
G01X17522822Y-855987D01*
G01X17528664Y-884689D01*
G01X17540094Y-901707D01*
G01X17557112Y-907549D01*
G01X17568542Y-907549D01*
G01X17585814Y-901707D01*
G01X17597244Y-884689D01*
G01X17602832Y-855987D01*
G01X17602832Y-838969D01*
G01X17597244Y-810267D01*
G01X17585814Y-793249D01*
G01X17568542Y-787407D01*
G01X17557112Y-787407D01*
G01X17650584Y-827539D02*
G01X17650584Y-907549D01*
G01X17650584Y-850399D02*
G01X17667856Y-833127D01*
G01X17679286Y-827539D01*
G01X17696304Y-827539D01*
G01X17707734Y-833127D01*
G01X17713576Y-850399D01*
G01X17713576Y-907549D01*
G01X17713576Y-850399D02*
G01X17730594Y-833127D01*
G01X17742024Y-827539D01*
G01X17759296Y-827539D01*
G01X17770726Y-833127D01*
G01X17776314Y-850399D01*
G01X17776314Y-907549D01*
G01X17824066Y-827539D02*
G01X17824066Y-907549D01*
G01X17824066Y-850399D02*
G01X17841338Y-833127D01*
G01X17852768Y-827539D01*
G01X17869786Y-827539D01*
G01X17881216Y-833127D01*
G01X17887058Y-850399D01*
G01X17887058Y-907549D01*
G01X17887058Y-850399D02*
G01X17904076Y-833127D01*
G01X17915506Y-827539D01*
G01X17932778Y-827539D01*
G01X17944208Y-833127D01*
G01X17949796Y-850399D01*
G01X17949796Y-907549D01*
G01X17997548Y-764547D02*
G01X18008978Y-775977D01*
G01X18020408Y-793249D01*
G01X18031838Y-816109D01*
G01X18037680Y-844557D01*
G01X18037680Y-867417D01*
G01X18031838Y-896119D01*
G01X18020408Y-918979D01*
G01X18008978Y-935997D01*
G01X17997548Y-947427D01*
G01X18928857Y-787407D02*
G01X18928857Y-907549D01*
G01X18928857Y-787407D02*
G01X18980419Y-787407D01*
G01X18997437Y-793249D01*
G01X19003279Y-798837D01*
G01X19008867Y-810267D01*
G01X19008867Y-827539D01*
G01X19003279Y-838969D01*
G01X18997437Y-844557D01*
G01X18980419Y-850399D01*
G01X18928857Y-850399D01*
G01X19096751Y-787407D02*
G01X19096751Y-907549D01*
G01X19056619Y-787407D02*
G01X19136629Y-787407D01*
G01X19184381Y-787407D02*
G01X19184381Y-907549D01*
G01X19264391Y-787407D02*
G01X19264391Y-907549D01*
G01X19184381Y-844557D02*
G01X19264391Y-844557D01*
G01X20470274Y-804679D02*
G01X20458844Y-793249D01*
G01X20441826Y-787407D01*
G01X20418966Y-787407D01*
G01X20401694Y-793249D01*
G01X20390264Y-804679D01*
G01X20390264Y-816109D01*
G01X20396106Y-827539D01*
G01X20401694Y-833127D01*
G01X20413124Y-838969D01*
G01X20447414Y-850399D01*
G01X20458844Y-855987D01*
G01X20464686Y-861829D01*
G01X20470274Y-873259D01*
G01X20470274Y-890277D01*
G01X20458844Y-901707D01*
G01X20441826Y-907549D01*
G01X20418966Y-907549D01*
G01X20401694Y-901707D01*
G01X20390264Y-890277D01*
G01X20518026Y-787407D02*
G01X20518026Y-907549D01*
G01X20594480Y-827539D02*
G01X20583050Y-833127D01*
G01X20571620Y-844557D01*
G01X20565778Y-861829D01*
G01X20565778Y-873259D01*
G01X20571620Y-890277D01*
G01X20583050Y-901707D01*
G01X20594480Y-907549D01*
G01X20611498Y-907549D01*
G01X20622928Y-901707D01*
G01X20634358Y-890277D01*
G01X20640200Y-873259D01*
G01X20640200Y-861829D01*
G01X20634358Y-844557D01*
G01X20622928Y-833127D01*
G01X20611498Y-827539D01*
G01X20594480Y-827539D01*
G01X20705224Y-787407D02*
G01X20705224Y-884689D01*
G01X20710812Y-901707D01*
G01X20722242Y-907549D01*
G01X20733672Y-907549D01*
G01X20687952Y-827539D02*
G01X20728084Y-827539D01*
G01X21821445Y-787407D02*
G01X21821445Y-907549D01*
G01X21821445Y-787407D02*
G01X21873007Y-787407D01*
G01X21890025Y-793249D01*
G01X21895867Y-798837D01*
G01X21901455Y-810267D01*
G01X21901455Y-827539D01*
G01X21895867Y-838969D01*
G01X21890025Y-844557D01*
G01X21873007Y-850399D01*
G01X21821445Y-850399D01*
G01X22017787Y-827539D02*
G01X22017787Y-907549D01*
G01X22017787Y-844557D02*
G01X22006357Y-833127D01*
G01X21994927Y-827539D01*
G01X21977909Y-827539D01*
G01X21966479Y-833127D01*
G01X21955049Y-844557D01*
G01X21949207Y-861829D01*
G01X21949207Y-873259D01*
G01X21955049Y-890277D01*
G01X21966479Y-901707D01*
G01X21977909Y-907549D01*
G01X21994927Y-907549D01*
G01X22006357Y-901707D01*
G01X22017787Y-890277D01*
G01X22134119Y-787407D02*
G01X22134119Y-907549D01*
G01X22134119Y-844557D02*
G01X22122689Y-833127D01*
G01X22111259Y-827539D01*
G01X22094241Y-827539D01*
G01X22082811Y-833127D01*
G01X22071381Y-844557D01*
G01X22065539Y-861829D01*
G01X22065539Y-873259D01*
G01X22071381Y-890277D01*
G01X22082811Y-901707D01*
G01X22094241Y-907549D01*
G01X22111259Y-907549D01*
G01X22122689Y-901707D01*
G01X22134119Y-890277D01*
G01X23524915Y-787407D02*
G01X23513485Y-793249D01*
G01X23502055Y-804679D01*
G01X23496467Y-816109D01*
G01X23490625Y-833127D01*
G01X23490625Y-861829D01*
G01X23496467Y-878847D01*
G01X23502055Y-890277D01*
G01X23513485Y-901707D01*
G01X23524915Y-907549D01*
G01X23547775Y-907549D01*
G01X23559205Y-901707D01*
G01X23570635Y-890277D01*
G01X23576477Y-878847D01*
G01X23582065Y-861829D01*
G01X23582065Y-833127D01*
G01X23576477Y-816109D01*
G01X23570635Y-804679D01*
G01X23559205Y-793249D01*
G01X23547775Y-787407D01*
G01X23524915Y-787407D01*
G01X23629817Y-827539D02*
G01X23664107Y-907549D01*
G01X23698397Y-827539D02*
G01X23664107Y-907549D01*
G01X23814729Y-827539D02*
G01X23814729Y-907549D01*
G01X23814729Y-844557D02*
G01X23803299Y-833127D01*
G01X23791869Y-827539D01*
G01X23774851Y-827539D01*
G01X23763421Y-833127D01*
G01X23751991Y-844557D01*
G01X23746149Y-861829D01*
G01X23746149Y-873259D01*
G01X23751991Y-890277D01*
G01X23763421Y-901707D01*
G01X23774851Y-907549D01*
G01X23791869Y-907549D01*
G01X23803299Y-901707D01*
G01X23814729Y-890277D01*
G01X23862481Y-787407D02*
G01X23862481Y-907549D01*
G01X25450126Y-787407D02*
G01X25450126Y-907549D01*
G01X25409994Y-787407D02*
G01X25490004Y-787407D01*
G01X25566458Y-827539D02*
G01X25555028Y-833127D01*
G01X25543598Y-844557D01*
G01X25537756Y-861829D01*
G01X25537756Y-873259D01*
G01X25543598Y-890277D01*
G01X25555028Y-901707D01*
G01X25566458Y-907549D01*
G01X25583476Y-907549D01*
G01X25594906Y-901707D01*
G01X25606336Y-890277D01*
G01X25612178Y-873259D01*
G01X25612178Y-861829D01*
G01X25606336Y-844557D01*
G01X25594906Y-833127D01*
G01X25583476Y-827539D01*
G01X25566458Y-827539D01*
G01X25659930Y-827539D02*
G01X25659930Y-947427D01*
G01X25659930Y-844557D02*
G01X25671360Y-833127D01*
G01X25682790Y-827539D01*
G01X25700062Y-827539D01*
G01X25711492Y-833127D01*
G01X25722922Y-844557D01*
G01X25728510Y-861829D01*
G01X25728510Y-873259D01*
G01X25722922Y-890277D01*
G01X25711492Y-901707D01*
G01X25700062Y-907549D01*
G01X25682790Y-907549D01*
G01X25671360Y-901707D01*
G01X25659930Y-890277D01*
G01X25904278Y-787407D02*
G01X25904278Y-907549D01*
G01X25904278Y-907549D02*
G01X25972858Y-907549D01*
G01X26089190Y-827539D02*
G01X26089190Y-907549D01*
G01X26089190Y-844557D02*
G01X26077760Y-833127D01*
G01X26066330Y-827539D01*
G01X26049312Y-827539D01*
G01X26037882Y-833127D01*
G01X26026452Y-844557D01*
G01X26020610Y-861829D01*
G01X26020610Y-873259D01*
G01X26026452Y-890277D01*
G01X26037882Y-901707D01*
G01X26049312Y-907549D01*
G01X26066330Y-907549D01*
G01X26077760Y-901707D01*
G01X26089190Y-890277D01*
G01X26142784Y-827539D02*
G01X26177074Y-907549D01*
G01X26211364Y-827539D02*
G01X26177074Y-907549D01*
G01X26165644Y-930409D01*
G01X26154214Y-941839D01*
G01X26142784Y-947427D01*
G01X26136942Y-947427D01*
G01X26259116Y-861829D02*
G01X26327696Y-861829D01*
G01X26327696Y-850399D01*
G01X26322108Y-838969D01*
G01X26316266Y-833127D01*
G01X26304836Y-827539D01*
G01X26287818Y-827539D01*
G01X26276388Y-833127D01*
G01X26264958Y-844557D01*
G01X26259116Y-861829D01*
G01X26259116Y-873259D01*
G01X26264958Y-890277D01*
G01X26276388Y-901707D01*
G01X26287818Y-907549D01*
G01X26304836Y-907549D01*
G01X26316266Y-901707D01*
G01X26327696Y-890277D01*
G01X26375448Y-827539D02*
G01X26375448Y-907549D01*
G01X26375448Y-861829D02*
G01X26381290Y-844557D01*
G01X26392720Y-833127D01*
G01X26404150Y-827539D01*
G01X26421168Y-827539D01*
G01X26468920Y-855987D02*
G01X26571790Y-855987D01*
G01X26619542Y-787407D02*
G01X26619542Y-907549D01*
G01X26619542Y-787407D02*
G01X26671104Y-787407D01*
G01X26688122Y-793249D01*
G01X26693964Y-798837D01*
G01X26699552Y-810267D01*
G01X26699552Y-821697D01*
G01X26693964Y-833127D01*
G01X26688122Y-838969D01*
G01X26671104Y-844557D01*
G01X26619542Y-844557D02*
G01X26671104Y-844557D01*
G01X26688122Y-850399D01*
G01X26693964Y-855987D01*
G01X26699552Y-867417D01*
G01X26699552Y-884689D01*
G01X26693964Y-896119D01*
G01X26688122Y-901707D01*
G01X26671104Y-907549D01*
G01X26619542Y-907549D01*
G01X26776006Y-827539D02*
G01X26764576Y-833127D01*
G01X26753146Y-844557D01*
G01X26747304Y-861829D01*
G01X26747304Y-873259D01*
G01X26753146Y-890277D01*
G01X26764576Y-901707D01*
G01X26776006Y-907549D01*
G01X26793024Y-907549D01*
G01X26804454Y-901707D01*
G01X26815884Y-890277D01*
G01X26821726Y-873259D01*
G01X26821726Y-861829D01*
G01X26815884Y-844557D01*
G01X26804454Y-833127D01*
G01X26793024Y-827539D01*
G01X26776006Y-827539D01*
G01X26886750Y-787407D02*
G01X26886750Y-884689D01*
G01X26892338Y-901707D01*
G01X26903768Y-907549D01*
G01X26915198Y-907549D01*
G01X26869478Y-827539D02*
G01X26909610Y-827539D01*
G01X26980222Y-787407D02*
G01X26980222Y-884689D01*
G01X26985810Y-901707D01*
G01X26997240Y-907549D01*
G01X27008670Y-907549D01*
G01X26962950Y-827539D02*
G01X27003082Y-827539D01*
G01X27085124Y-827539D02*
G01X27073694Y-833127D01*
G01X27062264Y-844557D01*
G01X27056422Y-861829D01*
G01X27056422Y-873259D01*
G01X27062264Y-890277D01*
G01X27073694Y-901707D01*
G01X27085124Y-907549D01*
G01X27102142Y-907549D01*
G01X27113572Y-901707D01*
G01X27125002Y-890277D01*
G01X27130844Y-873259D01*
G01X27130844Y-861829D01*
G01X27125002Y-844557D01*
G01X27113572Y-833127D01*
G01X27102142Y-827539D01*
G01X27085124Y-827539D01*
G01X27178596Y-827539D02*
G01X27178596Y-907549D01*
G01X27178596Y-850399D02*
G01X27195868Y-833127D01*
G01X27207298Y-827539D01*
G01X27224316Y-827539D01*
G01X27235746Y-833127D01*
G01X27241588Y-850399D01*
G01X27241588Y-907549D01*
G01X27241588Y-850399D02*
G01X27258606Y-833127D01*
G01X27270036Y-827539D01*
G01X27287308Y-827539D01*
G01X27298738Y-833127D01*
G01X27304326Y-850399D01*
G01X27304326Y-907549D01*
G01X27480094Y-787407D02*
G01X27480094Y-907549D01*
G01X27480094Y-907549D02*
G01X27548674Y-907549D01*
G01X27665006Y-827539D02*
G01X27665006Y-907549D01*
G01X27665006Y-844557D02*
G01X27653576Y-833127D01*
G01X27642146Y-827539D01*
G01X27625128Y-827539D01*
G01X27613698Y-833127D01*
G01X27602268Y-844557D01*
G01X27596426Y-861829D01*
G01X27596426Y-873259D01*
G01X27602268Y-890277D01*
G01X27613698Y-901707D01*
G01X27625128Y-907549D01*
G01X27642146Y-907549D01*
G01X27653576Y-901707D01*
G01X27665006Y-890277D01*
G01X27718600Y-827539D02*
G01X27752890Y-907549D01*
G01X27787180Y-827539D02*
G01X27752890Y-907549D01*
G01X27741460Y-930409D01*
G01X27730030Y-941839D01*
G01X27718600Y-947427D01*
G01X27712758Y-947427D01*
G01X27834932Y-861829D02*
G01X27903512Y-861829D01*
G01X27903512Y-850399D01*
G01X27897924Y-838969D01*
G01X27892082Y-833127D01*
G01X27880652Y-827539D01*
G01X27863634Y-827539D01*
G01X27852204Y-833127D01*
G01X27840774Y-844557D01*
G01X27834932Y-861829D01*
G01X27834932Y-873259D01*
G01X27840774Y-890277D01*
G01X27852204Y-901707D01*
G01X27863634Y-907549D01*
G01X27880652Y-907549D01*
G01X27892082Y-901707D01*
G01X27903512Y-890277D01*
G01X27951264Y-827539D02*
G01X27951264Y-907549D01*
G01X27951264Y-861829D02*
G01X27957106Y-844557D01*
G01X27968536Y-833127D01*
G01X27979966Y-827539D01*
G01X27996984Y-827539D01*
G01X13632667Y-1396681D02*
G01X13632667Y-1390839D01*
G01X13638255Y-1379409D01*
G01X13644097Y-1373821D01*
G01X13655527Y-1367979D01*
G01X13678387Y-1367979D01*
G01X13689817Y-1373821D01*
G01X13695405Y-1379409D01*
G01X13701247Y-1390839D01*
G01X13701247Y-1402269D01*
G01X13695405Y-1413699D01*
G01X13683975Y-1430971D01*
G01X13626825Y-1488121D01*
G01X13706835Y-1488121D01*
G01X13760429Y-1396681D02*
G01X13760429Y-1390839D01*
G01X13766017Y-1379409D01*
G01X13771859Y-1373821D01*
G01X13783289Y-1367979D01*
G01X13806149Y-1367979D01*
G01X13817579Y-1373821D01*
G01X13823167Y-1379409D01*
G01X13829009Y-1390839D01*
G01X13829009Y-1402269D01*
G01X13823167Y-1413699D01*
G01X13811737Y-1430971D01*
G01X13754587Y-1488121D01*
G01X13834597Y-1488121D01*
G01X15040988Y-1390839D02*
G01X15052418Y-1385251D01*
G01X15069690Y-1367979D01*
G01X15069690Y-1488121D01*
G01X15123284Y-1396681D02*
G01X15123284Y-1390839D01*
G01X15128872Y-1379409D01*
G01X15134714Y-1373821D01*
G01X15146144Y-1367979D01*
G01X15169004Y-1367979D01*
G01X15180434Y-1373821D01*
G01X15186022Y-1379409D01*
G01X15191864Y-1390839D01*
G01X15191864Y-1402269D01*
G01X15186022Y-1413699D01*
G01X15174592Y-1430971D01*
G01X15117442Y-1488121D01*
G01X15197452Y-1488121D01*
G01X15251046Y-1459419D02*
G01X15245204Y-1465261D01*
G01X15251046Y-1470849D01*
G01X15256634Y-1465261D01*
G01X15251046Y-1459419D01*
G01X15338676Y-1367979D02*
G01X15321658Y-1373821D01*
G01X15310228Y-1390839D01*
G01X15304386Y-1419541D01*
G01X15304386Y-1436559D01*
G01X15310228Y-1465261D01*
G01X15321658Y-1482279D01*
G01X15338676Y-1488121D01*
G01X15350106Y-1488121D01*
G01X15367378Y-1482279D01*
G01X15378808Y-1465261D01*
G01X15384396Y-1436559D01*
G01X15384396Y-1419541D01*
G01X15378808Y-1390839D01*
G01X15367378Y-1373821D01*
G01X15350106Y-1367979D01*
G01X15338676Y-1367979D01*
G01X15432148Y-1408111D02*
G01X15432148Y-1488121D01*
G01X15432148Y-1430971D02*
G01X15449420Y-1413699D01*
G01X15460850Y-1408111D01*
G01X15477868Y-1408111D01*
G01X15489298Y-1413699D01*
G01X15495140Y-1430971D01*
G01X15495140Y-1488121D01*
G01X15495140Y-1430971D02*
G01X15512158Y-1413699D01*
G01X15523588Y-1408111D01*
G01X15540860Y-1408111D01*
G01X15552290Y-1413699D01*
G01X15557878Y-1430971D01*
G01X15557878Y-1488121D01*
G01X15605630Y-1367979D02*
G01X15611472Y-1373821D01*
G01X15617060Y-1367979D01*
G01X15611472Y-1362391D01*
G01X15605630Y-1367979D01*
G01X15611472Y-1408111D02*
G01X15611472Y-1488121D01*
G01X15664812Y-1367979D02*
G01X15664812Y-1488121D01*
G01X15752696Y-1345119D02*
G01X15741266Y-1356549D01*
G01X15729836Y-1373821D01*
G01X15718406Y-1396681D01*
G01X15712564Y-1425129D01*
G01X15712564Y-1447989D01*
G01X15718406Y-1476691D01*
G01X15729836Y-1499551D01*
G01X15741266Y-1516569D01*
G01X15752696Y-1527999D01*
G01X15834738Y-1367979D02*
G01X15817720Y-1373821D01*
G01X15806290Y-1390839D01*
G01X15800448Y-1419541D01*
G01X15800448Y-1436559D01*
G01X15806290Y-1465261D01*
G01X15817720Y-1482279D01*
G01X15834738Y-1488121D01*
G01X15846168Y-1488121D01*
G01X15863440Y-1482279D01*
G01X15874870Y-1465261D01*
G01X15880458Y-1436559D01*
G01X15880458Y-1419541D01*
G01X15874870Y-1390839D01*
G01X15863440Y-1373821D01*
G01X15846168Y-1367979D01*
G01X15834738Y-1367979D01*
G01X15934052Y-1459419D02*
G01X15928210Y-1465261D01*
G01X15934052Y-1470849D01*
G01X15939640Y-1465261D01*
G01X15934052Y-1459419D01*
G01X15998822Y-1367979D02*
G01X16061814Y-1367979D01*
G01X16027524Y-1413699D01*
G01X16044542Y-1413699D01*
G01X16055972Y-1419541D01*
G01X16061814Y-1425129D01*
G01X16067402Y-1442401D01*
G01X16067402Y-1453831D01*
G01X16061814Y-1470849D01*
G01X16050384Y-1482279D01*
G01X16033112Y-1488121D01*
G01X16016094Y-1488121D01*
G01X15998822Y-1482279D01*
G01X15993234Y-1476691D01*
G01X15987392Y-1465261D01*
G01X16149444Y-1367979D02*
G01X16132426Y-1373821D01*
G01X16120996Y-1390839D01*
G01X16115154Y-1419541D01*
G01X16115154Y-1436559D01*
G01X16120996Y-1465261D01*
G01X16132426Y-1482279D01*
G01X16149444Y-1488121D01*
G01X16160874Y-1488121D01*
G01X16178146Y-1482279D01*
G01X16189576Y-1465261D01*
G01X16195164Y-1436559D01*
G01X16195164Y-1419541D01*
G01X16189576Y-1390839D01*
G01X16178146Y-1373821D01*
G01X16160874Y-1367979D01*
G01X16149444Y-1367979D01*
G01X16311496Y-1367979D02*
G01X16254346Y-1367979D01*
G01X16248758Y-1419541D01*
G01X16254346Y-1413699D01*
G01X16271618Y-1408111D01*
G01X16288636Y-1408111D01*
G01X16305908Y-1413699D01*
G01X16317338Y-1425129D01*
G01X16322926Y-1442401D01*
G01X16322926Y-1453831D01*
G01X16317338Y-1470849D01*
G01X16305908Y-1482279D01*
G01X16288636Y-1488121D01*
G01X16271618Y-1488121D01*
G01X16254346Y-1482279D01*
G01X16248758Y-1476691D01*
G01X16242916Y-1465261D01*
G01X16370678Y-1408111D02*
G01X16370678Y-1488121D01*
G01X16370678Y-1430971D02*
G01X16387950Y-1413699D01*
G01X16399380Y-1408111D01*
G01X16416398Y-1408111D01*
G01X16427828Y-1413699D01*
G01X16433670Y-1430971D01*
G01X16433670Y-1488121D01*
G01X16433670Y-1430971D02*
G01X16450688Y-1413699D01*
G01X16462118Y-1408111D01*
G01X16479390Y-1408111D01*
G01X16490820Y-1413699D01*
G01X16496408Y-1430971D01*
G01X16496408Y-1488121D01*
G01X16544160Y-1408111D02*
G01X16544160Y-1488121D01*
G01X16544160Y-1430971D02*
G01X16561432Y-1413699D01*
G01X16572862Y-1408111D01*
G01X16589880Y-1408111D01*
G01X16601310Y-1413699D01*
G01X16607152Y-1430971D01*
G01X16607152Y-1488121D01*
G01X16607152Y-1430971D02*
G01X16624170Y-1413699D01*
G01X16635600Y-1408111D01*
G01X16652872Y-1408111D01*
G01X16664302Y-1413699D01*
G01X16669890Y-1430971D01*
G01X16669890Y-1488121D01*
G01X16717642Y-1345119D02*
G01X16729072Y-1356549D01*
G01X16740502Y-1373821D01*
G01X16751932Y-1396681D01*
G01X16757774Y-1425129D01*
G01X16757774Y-1447989D01*
G01X16751932Y-1476691D01*
G01X16740502Y-1499551D01*
G01X16729072Y-1516569D01*
G01X16717642Y-1527999D01*
G01X18928857Y-1367979D02*
G01X18928857Y-1488121D01*
G01X18928857Y-1367979D02*
G01X18980419Y-1367979D01*
G01X18997437Y-1373821D01*
G01X19003279Y-1379409D01*
G01X19008867Y-1390839D01*
G01X19008867Y-1408111D01*
G01X19003279Y-1419541D01*
G01X18997437Y-1425129D01*
G01X18980419Y-1430971D01*
G01X18928857Y-1430971D01*
G01X19096751Y-1367979D02*
G01X19096751Y-1488121D01*
G01X19056619Y-1367979D02*
G01X19136629Y-1367979D01*
G01X19184381Y-1367979D02*
G01X19184381Y-1488121D01*
G01X19264391Y-1367979D02*
G01X19264391Y-1488121D01*
G01X19184381Y-1425129D02*
G01X19264391Y-1425129D01*
G01X20390264Y-1367979D02*
G01X20390264Y-1488121D01*
G01X20390264Y-1367979D02*
G01X20441826Y-1367979D01*
G01X20458844Y-1373821D01*
G01X20464686Y-1379409D01*
G01X20470274Y-1390839D01*
G01X20470274Y-1402269D01*
G01X20464686Y-1413699D01*
G01X20458844Y-1419541D01*
G01X20441826Y-1425129D01*
G01X20390264Y-1425129D01*
G01X20430396Y-1425129D02*
G01X20470274Y-1488121D01*
G01X20546728Y-1408111D02*
G01X20535298Y-1413699D01*
G01X20523868Y-1425129D01*
G01X20518026Y-1442401D01*
G01X20518026Y-1453831D01*
G01X20523868Y-1470849D01*
G01X20535298Y-1482279D01*
G01X20546728Y-1488121D01*
G01X20563746Y-1488121D01*
G01X20575176Y-1482279D01*
G01X20586606Y-1470849D01*
G01X20592448Y-1453831D01*
G01X20592448Y-1442401D01*
G01X20586606Y-1425129D01*
G01X20575176Y-1413699D01*
G01X20563746Y-1408111D01*
G01X20546728Y-1408111D01*
G01X20640200Y-1408111D02*
G01X20640200Y-1465261D01*
G01X20646042Y-1482279D01*
G01X20657472Y-1488121D01*
G01X20674490Y-1488121D01*
G01X20685920Y-1482279D01*
G01X20703192Y-1465261D01*
G01X20703192Y-1408111D02*
G01X20703192Y-1488121D01*
G01X20750944Y-1408111D02*
G01X20750944Y-1488121D01*
G01X20750944Y-1430971D02*
G01X20768216Y-1413699D01*
G01X20779646Y-1408111D01*
G01X20796664Y-1408111D01*
G01X20808094Y-1413699D01*
G01X20813936Y-1430971D01*
G01X20813936Y-1488121D01*
G01X20930268Y-1367979D02*
G01X20930268Y-1488121D01*
G01X20930268Y-1425129D02*
G01X20918838Y-1413699D01*
G01X20907408Y-1408111D01*
G01X20890390Y-1408111D01*
G01X20878960Y-1413699D01*
G01X20867530Y-1425129D01*
G01X20861688Y-1442401D01*
G01X20861688Y-1453831D01*
G01X20867530Y-1470849D01*
G01X20878960Y-1482279D01*
G01X20890390Y-1488121D01*
G01X20907408Y-1488121D01*
G01X20918838Y-1482279D01*
G01X20930268Y-1470849D01*
G01X21821445Y-1367979D02*
G01X21867165Y-1488121D01*
G01X21912885Y-1367979D02*
G01X21867165Y-1488121D01*
G01X21960637Y-1367979D02*
G01X21966479Y-1373821D01*
G01X21972067Y-1367979D01*
G01X21966479Y-1362391D01*
G01X21960637Y-1367979D01*
G01X21966479Y-1408111D02*
G01X21966479Y-1488121D01*
G01X22088399Y-1408111D02*
G01X22088399Y-1488121D01*
G01X22088399Y-1425129D02*
G01X22076969Y-1413699D01*
G01X22065539Y-1408111D01*
G01X22048521Y-1408111D01*
G01X22037091Y-1413699D01*
G01X22025661Y-1425129D01*
G01X22019819Y-1442401D01*
G01X22019819Y-1453831D01*
G01X22025661Y-1470849D01*
G01X22037091Y-1482279D01*
G01X22048521Y-1488121D01*
G01X22065539Y-1488121D01*
G01X22076969Y-1482279D01*
G01X22088399Y-1470849D01*
G01X25450126Y-1367979D02*
G01X25450126Y-1488121D01*
G01X25409994Y-1367979D02*
G01X25490004Y-1367979D01*
G01X25566458Y-1408111D02*
G01X25555028Y-1413699D01*
G01X25543598Y-1425129D01*
G01X25537756Y-1442401D01*
G01X25537756Y-1453831D01*
G01X25543598Y-1470849D01*
G01X25555028Y-1482279D01*
G01X25566458Y-1488121D01*
G01X25583476Y-1488121D01*
G01X25594906Y-1482279D01*
G01X25606336Y-1470849D01*
G01X25612178Y-1453831D01*
G01X25612178Y-1442401D01*
G01X25606336Y-1425129D01*
G01X25594906Y-1413699D01*
G01X25583476Y-1408111D01*
G01X25566458Y-1408111D01*
G01X25659930Y-1408111D02*
G01X25659930Y-1527999D01*
G01X25659930Y-1425129D02*
G01X25671360Y-1413699D01*
G01X25682790Y-1408111D01*
G01X25700062Y-1408111D01*
G01X25711492Y-1413699D01*
G01X25722922Y-1425129D01*
G01X25728510Y-1442401D01*
G01X25728510Y-1453831D01*
G01X25722922Y-1470849D01*
G01X25711492Y-1482279D01*
G01X25700062Y-1488121D01*
G01X25682790Y-1488121D01*
G01X25671360Y-1482279D01*
G01X25659930Y-1470849D01*
G01X25904278Y-1367979D02*
G01X25904278Y-1488121D01*
G01X25904278Y-1488121D02*
G01X25972858Y-1488121D01*
G01X26089190Y-1408111D02*
G01X26089190Y-1488121D01*
G01X26089190Y-1425129D02*
G01X26077760Y-1413699D01*
G01X26066330Y-1408111D01*
G01X26049312Y-1408111D01*
G01X26037882Y-1413699D01*
G01X26026452Y-1425129D01*
G01X26020610Y-1442401D01*
G01X26020610Y-1453831D01*
G01X26026452Y-1470849D01*
G01X26037882Y-1482279D01*
G01X26049312Y-1488121D01*
G01X26066330Y-1488121D01*
G01X26077760Y-1482279D01*
G01X26089190Y-1470849D01*
G01X26142784Y-1408111D02*
G01X26177074Y-1488121D01*
G01X26211364Y-1408111D02*
G01X26177074Y-1488121D01*
G01X26165644Y-1510981D01*
G01X26154214Y-1522411D01*
G01X26142784Y-1527999D01*
G01X26136942Y-1527999D01*
G01X26259116Y-1442401D02*
G01X26327696Y-1442401D01*
G01X26327696Y-1430971D01*
G01X26322108Y-1419541D01*
G01X26316266Y-1413699D01*
G01X26304836Y-1408111D01*
G01X26287818Y-1408111D01*
G01X26276388Y-1413699D01*
G01X26264958Y-1425129D01*
G01X26259116Y-1442401D01*
G01X26259116Y-1453831D01*
G01X26264958Y-1470849D01*
G01X26276388Y-1482279D01*
G01X26287818Y-1488121D01*
G01X26304836Y-1488121D01*
G01X26316266Y-1482279D01*
G01X26327696Y-1470849D01*
G01X26375448Y-1408111D02*
G01X26375448Y-1488121D01*
G01X26375448Y-1442401D02*
G01X26381290Y-1425129D01*
G01X26392720Y-1413699D01*
G01X26404150Y-1408111D01*
G01X26421168Y-1408111D01*
G01X26468920Y-1436559D02*
G01X26571790Y-1436559D01*
G01X26619542Y-1367979D02*
G01X26619542Y-1488121D01*
G01X26619542Y-1367979D02*
G01X26671104Y-1367979D01*
G01X26688122Y-1373821D01*
G01X26693964Y-1379409D01*
G01X26699552Y-1390839D01*
G01X26699552Y-1402269D01*
G01X26693964Y-1413699D01*
G01X26688122Y-1419541D01*
G01X26671104Y-1425129D01*
G01X26619542Y-1425129D02*
G01X26671104Y-1425129D01*
G01X26688122Y-1430971D01*
G01X26693964Y-1436559D01*
G01X26699552Y-1447989D01*
G01X26699552Y-1465261D01*
G01X26693964Y-1476691D01*
G01X26688122Y-1482279D01*
G01X26671104Y-1488121D01*
G01X26619542Y-1488121D01*
G01X26776006Y-1408111D02*
G01X26764576Y-1413699D01*
G01X26753146Y-1425129D01*
G01X26747304Y-1442401D01*
G01X26747304Y-1453831D01*
G01X26753146Y-1470849D01*
G01X26764576Y-1482279D01*
G01X26776006Y-1488121D01*
G01X26793024Y-1488121D01*
G01X26804454Y-1482279D01*
G01X26815884Y-1470849D01*
G01X26821726Y-1453831D01*
G01X26821726Y-1442401D01*
G01X26815884Y-1425129D01*
G01X26804454Y-1413699D01*
G01X26793024Y-1408111D01*
G01X26776006Y-1408111D01*
G01X26886750Y-1367979D02*
G01X26886750Y-1465261D01*
G01X26892338Y-1482279D01*
G01X26903768Y-1488121D01*
G01X26915198Y-1488121D01*
G01X26869478Y-1408111D02*
G01X26909610Y-1408111D01*
G01X26980222Y-1367979D02*
G01X26980222Y-1465261D01*
G01X26985810Y-1482279D01*
G01X26997240Y-1488121D01*
G01X27008670Y-1488121D01*
G01X26962950Y-1408111D02*
G01X27003082Y-1408111D01*
G01X27085124Y-1408111D02*
G01X27073694Y-1413699D01*
G01X27062264Y-1425129D01*
G01X27056422Y-1442401D01*
G01X27056422Y-1453831D01*
G01X27062264Y-1470849D01*
G01X27073694Y-1482279D01*
G01X27085124Y-1488121D01*
G01X27102142Y-1488121D01*
G01X27113572Y-1482279D01*
G01X27125002Y-1470849D01*
G01X27130844Y-1453831D01*
G01X27130844Y-1442401D01*
G01X27125002Y-1425129D01*
G01X27113572Y-1413699D01*
G01X27102142Y-1408111D01*
G01X27085124Y-1408111D01*
G01X27178596Y-1408111D02*
G01X27178596Y-1488121D01*
G01X27178596Y-1430971D02*
G01X27195868Y-1413699D01*
G01X27207298Y-1408111D01*
G01X27224316Y-1408111D01*
G01X27235746Y-1413699D01*
G01X27241588Y-1430971D01*
G01X27241588Y-1488121D01*
G01X27241588Y-1430971D02*
G01X27258606Y-1413699D01*
G01X27270036Y-1408111D01*
G01X27287308Y-1408111D01*
G01X27298738Y-1413699D01*
G01X27304326Y-1430971D01*
G01X27304326Y-1488121D01*
G01X27480094Y-1367979D02*
G01X27480094Y-1488121D01*
G01X27480094Y-1488121D02*
G01X27548674Y-1488121D01*
G01X27665006Y-1408111D02*
G01X27665006Y-1488121D01*
G01X27665006Y-1425129D02*
G01X27653576Y-1413699D01*
G01X27642146Y-1408111D01*
G01X27625128Y-1408111D01*
G01X27613698Y-1413699D01*
G01X27602268Y-1425129D01*
G01X27596426Y-1442401D01*
G01X27596426Y-1453831D01*
G01X27602268Y-1470849D01*
G01X27613698Y-1482279D01*
G01X27625128Y-1488121D01*
G01X27642146Y-1488121D01*
G01X27653576Y-1482279D01*
G01X27665006Y-1470849D01*
G01X27718600Y-1408111D02*
G01X27752890Y-1488121D01*
G01X27787180Y-1408111D02*
G01X27752890Y-1488121D01*
G01X27741460Y-1510981D01*
G01X27730030Y-1522411D01*
G01X27718600Y-1527999D01*
G01X27712758Y-1527999D01*
G01X27834932Y-1442401D02*
G01X27903512Y-1442401D01*
G01X27903512Y-1430971D01*
G01X27897924Y-1419541D01*
G01X27892082Y-1413699D01*
G01X27880652Y-1408111D01*
G01X27863634Y-1408111D01*
G01X27852204Y-1413699D01*
G01X27840774Y-1425129D01*
G01X27834932Y-1442401D01*
G01X27834932Y-1453831D01*
G01X27840774Y-1470849D01*
G01X27852204Y-1482279D01*
G01X27863634Y-1488121D01*
G01X27880652Y-1488121D01*
G01X27892082Y-1482279D01*
G01X27903512Y-1470849D01*
G01X27951264Y-1408111D02*
G01X27951264Y-1488121D01*
G01X27951264Y-1442401D02*
G01X27957106Y-1425129D01*
G01X27968536Y-1413699D01*
G01X27979966Y-1408111D01*
G01X27996984Y-1408111D01*

G04 Image Start*
G36*
G01X12462213Y-387448D02*
G01X12356600Y-375967D01*
G01X12313725Y-473173D01*
G01X12270849Y-375967D01*
G01X12165236Y-387448D01*
G01X12228000Y-301723D01*
G01X12188277Y-247469D01*
G01X12219770Y-247469D01*
G01X12259470Y-301723D01*
G01X12219770Y-355978D01*
G01X12286597Y-348713D01*
G01X12286597Y-348713D01*
G01X12313725Y-410207D01*
G01X12340852Y-348713D01*
G01X12407679Y-355978D01*
G01X12367979Y-301723D01*
G01X12407654Y-247494D01*
G01X12340826Y-254759D01*
G01X12313725Y-193240D01*
G01X12286597Y-254733D01*
G01X12219770Y-247469D01*
G01X12188277Y-247469D01*
G01X12165236Y-215998D01*
G01X12270875Y-227479D01*
G01X12313725Y-130273D01*
G01X12356600Y-227479D01*
G01X12462213Y-215998D01*
G01X12399450Y-301723D01*
G01X12462213Y-387448D01*
G37*
G36*
G01X12333219Y726856D02*
G01X12325479Y726268D01*
G01X12317636Y726070D01*
G01X12309793Y726268D01*
G01X12302053Y726856D01*
G01X12294425Y727826D01*
G01X12286920Y729166D01*
G01X12272314Y732921D01*
G01X12258312Y738045D01*
G01X12244990Y744462D01*
G01X12232425Y752095D01*
G01X12220693Y760868D01*
G01X12209870Y770704D01*
G01X12200035Y781526D01*
G01X12191262Y793258D01*
G01X12183629Y805824D01*
G01X12177212Y819146D01*
G01X12172087Y833148D01*
G01X12168332Y847754D01*
G01X12166992Y855259D01*
G01X12166023Y862886D01*
G01X12165435Y870627D01*
G01X12165236Y878470D01*
G01X12190636Y878470D01*
G01X12191293Y865503D01*
G01X12193221Y852907D01*
G01X12196356Y840746D01*
G01X12200632Y829083D01*
G01X12205987Y817984D01*
G01X12212355Y807512D01*
G01X12219673Y797733D01*
G01X12227876Y788709D01*
G01X12236899Y780507D01*
G01X12246679Y773189D01*
G01X12257150Y766821D01*
G01X12268249Y761466D01*
G01X12279912Y757189D01*
G01X12292074Y754055D01*
G01X12292074Y754055D01*
G01X12304670Y752127D01*
G01X12317636Y751470D01*
G01X12330603Y752127D01*
G01X12343199Y754055D01*
G01X12355360Y757189D01*
G01X12367023Y761466D01*
G01X12378122Y766821D01*
G01X12388594Y773189D01*
G01X12398373Y780507D01*
G01X12407397Y788709D01*
G01X12415599Y797733D01*
G01X12422917Y807512D01*
G01X12429285Y817984D01*
G01X12434640Y829083D01*
G01X12438917Y840746D01*
G01X12442051Y852907D01*
G01X12443979Y865503D01*
G01X12444636Y878470D01*
G01X12443979Y891436D01*
G01X12442051Y904032D01*
G01X12438917Y916194D01*
G01X12434640Y927856D01*
G01X12429285Y938956D01*
G01X12422917Y949427D01*
G01X12415599Y959207D01*
G01X12407397Y968230D01*
G01X12398373Y976433D01*
G01X12388594Y983750D01*
G01X12378122Y990119D01*
G01X12367023Y995474D01*
G01X12355360Y999750D01*
G01X12343199Y1002885D01*
G01X12330603Y1004813D01*
G01X12317636Y1005470D01*
G01X12304670Y1004813D01*
G01X12292074Y1002885D01*
G01X12279912Y999750D01*
G01X12268249Y995474D01*
G01X12257150Y990119D01*
G01X12246679Y983750D01*
G01X12236899Y976433D01*
G01X12227876Y968230D01*
G01X12219673Y959207D01*
G01X12212355Y949427D01*
G01X12205987Y938956D01*
G01X12200632Y927856D01*
G01X12196356Y916194D01*
G01X12193221Y904032D01*
G01X12191293Y891436D01*
G01X12190636Y878470D01*
G01X12165236Y878470D01*
G01X12165435Y886313D01*
G01X12166023Y894053D01*
G01X12166992Y901680D01*
G01X12168332Y909186D01*
G01X12172087Y923792D01*
G01X12177212Y937794D01*
G01X12183629Y951116D01*
G01X12191262Y963681D01*
G01X12200035Y975413D01*
G01X12209870Y986236D01*
G01X12220693Y996071D01*
G01X12232425Y1004844D01*
G01X12244990Y1012477D01*
G01X12258312Y1018894D01*
G01X12272314Y1024019D01*
G01X12286920Y1027774D01*
G01X12294425Y1029114D01*
G01X12302053Y1030083D01*
G01X12309793Y1030671D01*
G01X12317636Y1030870D01*
G01X12325479Y1030671D01*
G01X12333219Y1030083D01*
G01X12340847Y1029114D01*
G01X12348352Y1027774D01*
G01X12362958Y1024019D01*
G01X12376960Y1018894D01*
G01X12390282Y1012477D01*
G01X12402848Y1004844D01*
G01X12414580Y996071D01*
G01X12425402Y986236D01*
G01X12435238Y975413D01*
G01X12444011Y963681D01*
G01X12451644Y951116D01*
G01X12458061Y937794D01*
G01X12463185Y923792D01*
G01X12466940Y909186D01*
G01X12468280Y901680D01*
G01X12469249Y894053D01*
G01X12469838Y886313D01*
G01X12470036Y878470D01*
G01X12469838Y870627D01*
G01X12469249Y862886D01*
G01X12468280Y855259D01*
G01X12466940Y847754D01*
G01X12463185Y833148D01*
G01X12458061Y819146D01*
G01X12451644Y805824D01*
G01X12444011Y793258D01*
G01X12435238Y781526D01*
G01X12425402Y770704D01*
G01X12414580Y760868D01*
G01X12402848Y752095D01*
G01X12390282Y744462D01*
G01X12376960Y738045D01*
G01X12362958Y732921D01*
G01X12348352Y729166D01*
G01X12340847Y727826D01*
G01X12333219Y726856D01*
G37*
G36*
G01X12470036Y-1513082D02*
G01X12386927Y-1513082D01*
G01X12386927Y-1596216D01*
G01X12248370Y-1596216D01*
G01X12248370Y-1513107D01*
G01X12165236Y-1513107D01*
G01X12165236Y-1399950D01*
G01X12190636Y-1399950D01*
G01X12190636Y-1487682D01*
G01X12273770Y-1487682D01*
G01X12273770Y-1570816D01*
G01X12273770Y-1570816D01*
G01X12361502Y-1570816D01*
G01X12361502Y-1487707D01*
G01X12444636Y-1487707D01*
G01X12444636Y-1399950D01*
G01X12361502Y-1399950D01*
G01X12361502Y-1316816D01*
G01X12273770Y-1316816D01*
G01X12273770Y-1399950D01*
G01X12190636Y-1399950D01*
G01X12165236Y-1399950D01*
G01X12165236Y-1374550D01*
G01X12248370Y-1374550D01*
G01X12248370Y-1291416D01*
G01X12386902Y-1291416D01*
G01X12386902Y-1374550D01*
G01X12470036Y-1374550D01*
G01X12470036Y-1513082D01*
G37*
G36*
G01X12470036Y-710845D02*
G01X12400008Y-863245D01*
G01X12470036Y-1015645D01*
G01X12317636Y-945617D01*
G01X12165236Y-1015645D01*
G01X12188999Y-963930D01*
G01X12216951Y-963930D01*
G01X12307019Y-922528D01*
G01X12317636Y-917651D01*
G01X12328253Y-922528D01*
G01X12418322Y-963930D01*
G01X12376920Y-873862D01*
G01X12372043Y-863245D01*
G01X12376920Y-852627D01*
G01X12418322Y-762559D01*
G01X12328253Y-803961D01*
G01X12317636Y-808838D01*
G01X12307019Y-803961D01*
G01X12216951Y-762559D01*
G01X12258353Y-852627D01*
G01X12263229Y-863245D01*
G01X12263229Y-863245D01*
G01X12258353Y-873862D01*
G01X12216951Y-963930D01*
G01X12188999Y-963930D01*
G01X12235264Y-863245D01*
G01X12165236Y-710845D01*
G01X12317636Y-780872D01*
G01X12470036Y-710845D01*
G37*
G36*
G01X12165236Y450298D02*
G01X12470036Y450298D01*
G01X12317636Y186341D01*
G01X12179901Y424898D01*
G01X12209229Y424898D01*
G01X12317636Y237141D01*
G01X12426043Y424898D01*
G01X12426043Y424898D01*
G01X12209229Y424898D01*
G01X12179901Y424898D01*
G01X12165236Y450298D01*
G37*
G36*
G01X12165236Y1611441D02*
G01X12444636Y1611441D01*
G01X12444636Y1332041D01*
G01X12165236Y1332041D01*
G01X12165236Y1586041D01*
G01X12190636Y1586041D01*
G01X12190636Y1357441D01*
G01X12419236Y1357441D01*
G01X12419236Y1586041D01*
G01X12419236Y1586041D01*
G01X12190636Y1586041D01*
G01X12165236Y1586041D01*
G01X12165236Y1611441D01*
G37*

G04 PolygonModel Start*
G54D17*
G01X11874951Y-1726845D02*
G01X28587715Y-1726845D01*
G01X11874951Y-1146273D02*
G01X28587715Y-1146273D01*
G01X11874951Y-565702D02*
G01X28587715Y-565702D01*
G01X11874951Y14870D02*
G01X28587715Y14870D01*
G01X11874951Y595441D02*
G01X28587715Y595441D01*
G01X11874951Y1176013D02*
G01X28587715Y1176013D01*
G01X11874951Y1756584D02*
G01X28587715Y1756584D01*
G01X11874951Y2337155D02*
G01X28587715Y2337155D01*
G01X11874951Y2337155D02*
G01X11874951Y-1701445D01*
G01X13326379Y2337155D02*
G01X13326379Y-1701445D01*
G01X14740542Y2337155D02*
G01X14740542Y-1701445D01*
G01X18628411Y2337155D02*
G01X18628411Y-1701445D01*
G01X20089819Y2337155D02*
G01X20089819Y-1701445D01*
G01X21521000Y2337155D02*
G01X21521000Y-1701445D01*
G01X23190179Y2337155D02*
G01X23190179Y-1701445D01*
G01X25109548Y2337155D02*
G01X25109548Y-1701445D01*
G01X28587715Y2337155D02*
G01X28587715Y-1701445D01*

M02*

