G04 Layer: TopSolderMaskLayer*
G04 EasyEDA Pro v3.2.148, 2026-08-06 13:21:58*
G04 Gerber Generator version 0.3*
G04 Scale: 100 percent, Rotated: No, Reflected: No*
G04 Dimensions in millimeters*
G04 Leading zeros omitted, absolute positions, 4 integers and 5 decimals*
G04 Generated by one-click*
G04 Object Configs: Pad,Via,Track,Text,Image,Dimension,BoardOutline,BoardCutout,CopperFilled,SolidRegion,FPCStiffener,Line,PlaneZone,ComponentProperty,ComponentSilkscreen,TearDrop*
G04 Layer Configs: 1,2,3,4,5,6,7,8,9,10,11,13,14,56*
G04 Copper Areas: 0*
%FSLAX45Y45*%
%MOMM*%
%AMRoundRect*1,1,$1,$2,$3*1,1,$1,$4,$5*1,1,$1,0-$2,0-$3*1,1,$1,0-$4,0-$5*20,1,$1,$2,$3,$4,$5,0*20,1,$1,$4,$5,0-$2,0-$3,0*20,1,$1,0-$2,0-$3,0-$4,0-$5,0*20,1,$1,0-$4,0-$5,$2,$3,0*4,1,4,$2,$3,$4,$5,0-$2,0-$3,0-$4,0-$5,$2,$3,0*%
%ADD10RoundRect,0.1016X-0.45X-0.4X-0.45X0.4*%
%ADD11RoundRect,0.1016X-0.4X0.45X0.4X0.45*%
%ADD12RoundRect,0.1016X-0.40324X0.432X0.40324X0.432*%
%ADD13RoundRect,0.10003X-0.6X0.12501X0.6X0.12501*%
%ADD14RoundRect,0.10003X-0.27501X0.55X0.27501X0.55*%
%ADD15RoundRect,0.10003X-0.15X0.55X0.15X0.55*%
%ADD16O,1.2072X2.10002*%
%ADD17O,1.20002X2.10002*%
%ADD18O,1.30002X1.90002*%
%ADD19RoundRect,0.1016X-0.55999X1.44X0.55999X1.44*%
%ADD20O,1.3016X2.6016*%
%ADD21RoundRect,0.10003X-0.55X-0.27501X-0.55X0.27501*%
%ADD22RoundRect,0.10003X-0.55X-0.15X-0.55X0.15*%
%ADD23O,2.10002X1.20002*%
%ADD24O,1.90002X1.30002*%
%ADD25RoundRect,0.1016X-0.432X-0.40324X-0.432X0.40324*%
G75*


G04 Pad Start*
G54D10*
G01X5054600Y1542898D03*
G01X5054600Y1682902D03*
G01X3441700Y1542898D03*
G01X3441700Y1682902D03*
G54D11*
G01X2838299Y1600209D03*
G01X2978304Y1600209D03*
G54D10*
G01X7276836Y760027D03*
G01X7276836Y900031D03*
G01X9042400Y1759102D03*
G01X9042400Y1619098D03*
G54D11*
G01X7474836Y1563141D03*
G01X7614841Y1563141D03*
G01X6532104Y1628270D03*
G01X6392099Y1628270D03*
G01X6532104Y1264981D03*
G01X6392099Y1264981D03*
G54D12*
G01X9028836Y1130300D03*
G01X8878164Y1130300D03*
G01X8874516Y1438069D03*
G01X9025188Y1438069D03*
G54D13*
G01X7228510Y1186104D03*
G01X7228510Y1239114D03*
G01X7228510Y1292098D03*
G01X7228510Y1345108D03*
G01X7228510Y1398092D03*
G01X7228510Y1451102D03*
G01X7228510Y1504112D03*
G01X7228510Y1557096D03*
G01X6868490Y1557096D03*
G01X6868490Y1504112D03*
G01X6868490Y1451102D03*
G01X6868490Y1398092D03*
G01X6868490Y1345108D03*
G01X6868490Y1292098D03*
G01X6868490Y1239114D03*
G01X6868490Y1186104D03*
G54D14*
G01X7591270Y822440D03*
G01X7671280Y822440D03*
G54D15*
G01X7736279Y822440D03*
G01X7786291Y822440D03*
G01X7836278Y822440D03*
G01X7886266Y822440D03*
G01X7936278Y822440D03*
G01X7986265Y822440D03*
G01X8036278Y822440D03*
G01X8086291Y822440D03*
G54D14*
G01X8151289Y822440D03*
G01X8231274Y822440D03*
G54D17*
G01X7478773Y767449D03*
G01X8343770Y767449D03*
G54D18*
G01X7478773Y347434D03*
G01X8343770Y347434D03*
G54D19*
G01X5760281Y1264996D03*
G01X5510294Y1264996D03*
G01X5310294Y1264996D03*
G01X5060307Y1264996D03*
G54D20*
G01X6055302Y386004D03*
G01X4765286Y386004D03*
G54D19*
G01X4134173Y1267658D03*
G01X3884186Y1267658D03*
G01X3684186Y1267658D03*
G01X3434199Y1267658D03*
G54D20*
G01X4429194Y388666D03*
G01X3139178Y388666D03*
G54D19*
G01X2508065Y1268908D03*
G01X2258078Y1268908D03*
G01X2058078Y1268908D03*
G01X1808091Y1268908D03*
G54D20*
G01X2803086Y389916D03*
G01X1513070Y389916D03*
G54D21*
G01X9274797Y937298D03*
G01X9274797Y1017308D03*
G54D22*
G01X9274797Y1082307D03*
G01X9274797Y1132319D03*
G01X9274797Y1182307D03*
G01X9274797Y1232294D03*
G01X9274797Y1282306D03*
G01X9274797Y1332294D03*
G01X9274797Y1382306D03*
G01X9274797Y1432319D03*
G54D21*
G01X9274797Y1497317D03*
G01X9274797Y1577302D03*
G54D23*
G01X9329788Y824802D03*
G01X9329788Y1689799D03*
G54D24*
G01X9749803Y824802D03*
G01X9749803Y1689799D03*
G54D11*
G01X6521602Y1816100D03*
G01X6381598Y1816100D03*
G01X7474836Y1768437D03*
G01X7614841Y1768437D03*
G01X6532104Y1442781D03*
G01X6392099Y1442781D03*
G54D25*
G01X7784836Y1178056D03*
G01X7784836Y1027383D03*
G01X8084716Y1178056D03*
G01X8084716Y1027383D03*
G04 Pad End*

M02*

