G04 Layer: BoardOutlineLayer*
G04 EasyEDA Pro v3.2.148, 2026-07-31 19:30:37*
G04 Gerber Generator version 0.3*
G04 Scale: 100 percent, Rotated: No, Reflected: No*
G04 Dimensions in millimeters*
G04 Leading zeros omitted, absolute positions, 4 integers and 5 decimals*
G04 Generated by one-click*
G04 Object Configs: Pad,Via,Track,Text,Image,Dimension,BoardOutline,BoardCutout,CopperFilled,SolidRegion,FPCStiffener,Line,PlaneZone,ComponentProperty,ComponentSilkscreen,TearDrop*
G04 Layer Configs: 1,2,3,4,5,6,7,8,9,10,11,13,14,56*
G04 Copper Areas: 0*
%FSLAX45Y45*%
%MOMM*%
%ADD10C,0.1*%
%ADD11C,0.6050*%
G75*


G04 PolygonModel Start*
G54D10*
G01X3011245Y212538D02*
G02X3006443Y213236I95J17528D01*
G01X3006443Y213236D01*
G01X3027800Y212539D01*
G01X3011245Y212538D01*
G01X4091492Y2275002D02*
G01X4214071Y2289627D01*
G02X4340198Y2305757I614783J-4305991D01*
G02X4574853Y2319964I190948J-1208852D01*
G02X4641486Y2319964I33317J-1931304D01*
G02X4804500Y2328982I515251J-7836719D01*
G02X5185229Y2337139I364310J-8114656D01*
G02X5609188Y2329072I-25202J-12469377D01*
G02X6008012Y2307863I-420623J-11669905D01*
G02X6302100Y2275002I-253039J-3597004D01*
G02X6331375Y2269136I-49848J-324740D01*
G02X6387169Y2254845I-923280J-3720760D01*
G02X6452577Y2236990I-1051001J-3978789D01*
G02X6520500Y2217312I-1320809J-4686134D01*
G01X6520500Y2217312D01*
G01X6602464Y2192936D01*
G01X6602464Y2192936D01*
G01X6832367Y2124644D01*
G01X6832367Y2124644D01*
G01X6941700Y2092195D01*
G01X6941700Y2092195D01*
G01X7045044Y2061487D01*
G01X7045044Y2061487D01*
G01X7145938Y2031411D01*
G01X7145938Y2031411D01*
G01X7232571Y2005502D01*
G01X7232571Y2005502D01*
G01X7281000Y1990881D01*
G01X7281000Y1990881D01*
G01X7378247Y1961417D01*
G01X7378247Y1961417D01*
G01X7492678Y1926979D01*
G01X7492678Y1926979D01*
G01X7614210Y1890590D01*
G01X7614210Y1890590D01*
G01X7733400Y1855086D01*
G01X7733400Y1855086D01*
G01X7845149Y1821730D01*
G01X7845149Y1821730D01*
G01X7952591Y1789340D01*
G01X7952591Y1789340D01*
G01X8084001Y1749363D01*
G01X8084001Y1749363D01*
G01X8279400Y1689619D01*
G01X8279400Y1689619D01*
G03X8472850Y1673666I710221J7431429D01*
G03X8512096Y1670734I148101J1717871D01*
G03X8536787Y1668956I57582J627302D01*
G03X8563235Y1670734I-48011J911780D01*
G03X8595591Y1673666I-24946J455178D01*
G03X8618323Y1682324I-7789J54620D01*
G03X8686982Y1719937I-247819J533847D01*
G03X8757729Y1821730I-4428528J3153347D01*
G03X8818314Y1909525I-7356156J5141172D01*
G01X8818314Y1909525D01*
G01X8887692Y2019861D01*
G01X8887692Y2019861D01*
G01X8950750Y2110675D01*
G01X8950750Y2110675D01*
G01X9005016Y2186933D01*
G01X9005016Y2186933D01*
G03X9018140Y2204059I-275785J224922D01*
G02X9035555Y2217472I124683J-143879D01*
G02X9062211Y2230704I212138J-393879D01*
G02X9087667Y2236990I96137J-334657D01*
G02X9112518Y2241753I58556J-238283D01*
G02X9181255Y2241753I34368J-336511D01*
G01X9181255Y2241753D01*
G02X9329305Y2245282I343905J-11323303D01*
G01X9329305Y2245282D01*
G02X9523574Y2250650I348050J-9076666D01*
G02X9692721Y2250777I88489J-5225376D01*
G02X9784864Y2248910I-147425J-9551113D01*
G02X9817539Y2248903I16249J-406640D01*
G02X9847543Y2245282I-30220J-376469D01*
G02X9865553Y2236990I-9008J-43273D01*
G02X9874763Y2214910I-21423J-21897D01*
G01X9874763Y2214910D01*
G01X9874763Y2004804D01*
G02X9871790Y1793706I-8633562J16035D01*
G02X9874763Y1591528I-6452873J-196010D01*
G02X9874763Y1521546I-3270400J-34991D01*
G01X9871790Y1428002D01*
G01X9871790Y1428002D01*
G01X9871790Y1323940D01*
G01X9871790Y1323940D01*
G01X9871790Y1199065D01*
G01X9871790Y1199065D01*
G01X9867900Y482600D01*
G02X9689445Y304145I-244638J66182D01*
G02X9333549Y220788I-735846J2340296D01*
G02X9293765Y220788I-19892J890125D01*
G01X9293765Y220788D01*
G01X7943025Y212539D01*
G01X7943025Y212539D01*
G03X7867128Y212539I-37948J-3875228D01*
G03X7809931Y212539I-28598J-1115646D01*
G02X7761995Y212539I-23968J2320597D01*
G02X7714413Y212539I-23791J1962397D01*
G02X7687688Y212539I-13362J853589D01*
G02X7639236Y212539I-24226J761361D01*
G03X7598536Y212454I-20227J-59029D01*
G01X7598536Y212454D01*
G01X7222536Y210364D01*
G01X7222536Y210364D01*
G01X6642177Y208735D01*
G01X6642177Y208735D01*
G01X3897179Y208709D01*
G01X3897179Y208709D01*
G01X3350698Y210367D01*
G01X3350698Y210367D01*
G01X3011245Y212538D01*
G01X3011245Y212538D01*
G01X1321112Y212850D01*
G01X1321112Y212850D01*
G02X1244119Y210424I-200174J5130001D01*
G01X1244119Y210424D01*
G02X1122182Y208790I-138069J5751995D01*
G01X1122182Y208790D01*
G01X867695Y208446D01*
G01X867695Y208446D01*
G01X551508Y209796D01*
G01X551508Y209796D01*
G02X387361Y215306I27580J3269272D01*
G02X287471Y225777I64373J1095819D01*
G02X230535Y245876I24027J158758D01*
G01X206400Y259968D01*
G01X204220Y513034D01*
G01X204220Y513034D01*
G01X203666Y611174D01*
G01X203666Y611174D01*
G02X203820Y696448I9470492J25486D01*
G01X203820Y696448D01*
G01X204403Y769900D01*
G01X204403Y769900D01*
G02X205918Y782053I53628J-513D01*
G02X231579Y819035I60764J-14769D01*
G02X370822Y910482I3133611J-4619715D01*
G02X529674Y1005540I1843765J-2900872D01*
G02X690000Y1089730I1542832J-2743303D01*
G02X897253Y1187060I3199262J-6543093D01*
G02X1131907Y1289629I4674891J-10375365D01*
G01X1131907Y1289629D01*
G02X1364872Y1385251I4331021J-10220162D01*
G02X1566466Y1461152I2202444J-5544098D01*
G02X1757457Y1521546I939540J-2638982D01*
G02X1965659Y1572791I982107J-3541639D01*
G02X2168769Y1610239I728979J-3384286D01*
G02X2343600Y1628546I277348J-1804662D01*
G03X2456247Y1649641I-690566J3999041D01*
G03X2551424Y1673666I-168426J867752D01*
G03X2608728Y1695336I-84429J309871D01*
G01X2608728Y1695336D01*
G03X2708920Y1749363I-1471178J2848197D01*
G01X2708920Y1749363D01*
G01X2788116Y1793706D01*
G01X2788116Y1793706D01*
G01X2895600Y1854200D01*
G01X3011245Y1916939D01*
G01X3011245Y1916939D01*
G01X3186052Y2004804D01*
G01X3186052Y2004804D01*
G01X3473016Y2124644D01*
G01X3473016Y2124644D01*
G01X3627497Y2186933D01*
G01X3627497Y2186933D01*
G01X3778228Y2233396D01*
G01X3778228Y2233396D01*
G01X3820707Y2241753D01*
G01X3820707Y2241753D01*
G02X3892552Y2250777I133111J-769291D01*
G02X3987283Y2261893I220873J-1473073D01*
G02X4091492Y2275002I317411J-2102456D01*

M02*

