G04 Layer: BottomLayer*
G04 EasyEDA Pro v3.2.148, 2026-07-31 19:30:37*
G04 Gerber Generator version 0.3*
G04 Scale: 100 percent, Rotated: No, Reflected: No*
G04 Dimensions in millimeters*
G04 Leading zeros omitted, absolute positions, 4 integers and 5 decimals*
G04 Generated by one-click*
G04 Object Configs: Pad,Via,Track,Text,Image,Dimension,BoardOutline,BoardCutout,CopperFilled,SolidRegion,FPCStiffener,Line,PlaneZone,ComponentProperty,ComponentSilkscreen,TearDrop*
G04 Layer Configs: 1,2,3,4,5,6,7,8,9,10,11,13,14,56*
G04 Copper Areas: 47*
%FSLAX45Y45*%
%MOMM*%
%ADD10C,0.2032*%
%ADD11C,0.254*%
%ADD12O,1.1X2.0*%
%ADD13O,1.2X1.8*%
%ADD14O,1.2X2.49999*%
%ADD15O,2.0X1.1*%
%ADD16O,1.8X1.2*%
%ADD17C,0.6119*%
%ADD18C,0.61*%
G75*


G04 Copper Start*
G36*
G01X1417257Y324916D02*
G01X1418878Y307362D01*
G01X1423689Y290402D01*
G01X1431525Y274610D01*
G01X1442122Y260522D01*
G01X1455120Y248613D01*
G01X1455120Y248613D01*
G01X1321127Y248664D01*
G01X1321127Y248664D01*
G01X1319766Y248637D01*
G01X1243260Y246227D01*
G01X1243260Y246227D01*
G01X1122082Y244603D01*
G01X1122082Y244603D01*
G01X867698Y244260D01*
G01X867698Y244260D01*
G01X551811Y245609D01*
G01X551811Y245609D01*
G01X470602Y247314D01*
G01X389461Y251059D01*
G01X341030Y255017D01*
G01X292831Y261188D01*
G01X277466Y264515D01*
G01X262642Y269748D01*
G01X248593Y276804D01*
G01X242037Y280632D01*
G01X240033Y513342D01*
G01X240033Y513342D01*
G01X239632Y584200D01*
G01X518086Y584200D01*
G01X520003Y556175D01*
G01X525718Y528672D01*
G01X535125Y502204D01*
G01X548049Y477262D01*
G01X564248Y454313D01*
G01X583421Y433784D01*
G01X605211Y416056D01*
G01X629212Y401461D01*
G01X654977Y390270D01*
G01X682026Y382691D01*
G01X709855Y378866D01*
G01X737945Y378866D01*
G01X765774Y382691D01*
G01X792823Y390270D01*
G01X818588Y401461D01*
G01X842589Y416056D01*
G01X864379Y433784D01*
G01X883552Y454313D01*
G01X899751Y477262D01*
G01X912675Y502204D01*
G01X922082Y528672D01*
G01X927797Y556175D01*
G01X929714Y584200D01*
G01X927797Y612225D01*
G01X922082Y639728D01*
G01X912675Y666196D01*
G01X899751Y691138D01*
G01X883552Y714087D01*
G01X864379Y734616D01*
G01X842589Y752344D01*
G01X818588Y766939D01*
G01X792823Y778130D01*
G01X765774Y785709D01*
G01X737945Y789534D01*
G01X709855Y789534D01*
G01X682026Y785709D01*
G01X654977Y778130D01*
G01X629212Y766939D01*
G01X605211Y752344D01*
G01X583421Y734616D01*
G01X564248Y714087D01*
G01X548049Y691138D01*
G01X535125Y666196D01*
G01X525718Y639728D01*
G01X520003Y612225D01*
G01X518086Y584200D01*
G01X518086Y584200D01*
G01X239632Y584200D01*
G01X239479Y611271D01*
G01X239479Y611271D01*
G01X239479Y611271D01*
G01X239633Y696222D01*
G01X240216Y769557D01*
G01X240719Y773595D01*
G01X244730Y782516D01*
G01X251684Y789396D01*
G01X286220Y812448D01*
G01X7387960Y812448D01*
G01X7387960Y722449D01*
G01X7389879Y703878D01*
G01X7395555Y686092D01*
G01X7404748Y669843D01*
G01X7417070Y655817D01*
G01X7431999Y644607D01*
G01X7448906Y636687D01*
G01X7467074Y632391D01*
G01X7485738Y631902D01*
G01X7504106Y635240D01*
G01X7521405Y642263D01*
G01X7536901Y652675D01*
G01X7549941Y666036D01*
G01X7559973Y681781D01*
G01X7569277Y668471D01*
G01X7581369Y657629D01*
G01X7595613Y649828D01*
G01X7611260Y645477D01*
G01X7627487Y644806D01*
G01X7643440Y647848D01*
G01X7658280Y654445D01*
G01X7671227Y664250D01*
G01X7681599Y676746D01*
G01X7688853Y691277D01*
G01X7692604Y707078D01*
G01X7692604Y707078D01*
G01X7692658Y723310D01*
G01X8129911Y723310D01*
G01X8129965Y707073D01*
G01X8129965Y707073D01*
G01X8133718Y691275D01*
G01X8140969Y676747D01*
G01X8151340Y664252D01*
G01X8164284Y654449D01*
G01X8179120Y647851D01*
G01X8195070Y644807D01*
G01X8211294Y645475D01*
G01X8226939Y649821D01*
G01X8241182Y657617D01*
G01X8253276Y668452D01*
G01X8262583Y681757D01*
G01X8272619Y666016D01*
G01X8285661Y652660D01*
G01X8301158Y642253D01*
G01X8318456Y635234D01*
G01X8336823Y631901D01*
G01X8355484Y632393D01*
G01X8373650Y636691D01*
G01X8390554Y644612D01*
G01X8405480Y655823D01*
G01X8417800Y669848D01*
G01X8426991Y686096D01*
G01X8432666Y703880D01*
G01X8434584Y722449D01*
G01X8434584Y812448D01*
G01X8432600Y831330D01*
G01X8431637Y834294D01*
G01X9194472Y834294D01*
G01X9194472Y815309D01*
G01X9198419Y796738D01*
G01X9206141Y779395D01*
G01X9217301Y764035D01*
G01X9231409Y751332D01*
G01X9247851Y741839D01*
G01X9265907Y735972D01*
G01X9284788Y733988D01*
G01X9374788Y733988D01*
G01X9393359Y735907D01*
G01X9411145Y741583D01*
G01X9427394Y750776D01*
G01X9441420Y763098D01*
G01X9452630Y778027D01*
G01X9460550Y794934D01*
G01X9464845Y813102D01*
G01X9465335Y831766D01*
G01X9461997Y850134D01*
G01X9454974Y867433D01*
G01X9444562Y882929D01*
G01X9431201Y895969D01*
G01X9415455Y906001D01*
G01X9428766Y915305D01*
G01X9439607Y927397D01*
G01X9447409Y941641D01*
G01X9451759Y957288D01*
G01X9452431Y973515D01*
G01X9449389Y989468D01*
G01X9442792Y1004308D01*
G01X9432987Y1017255D01*
G01X9420491Y1027627D01*
G01X9405960Y1034881D01*
G01X9390159Y1038633D01*
G01X9373919Y1038686D01*
G01X9358093Y1035038D01*
G01X9343515Y1027881D01*
G01X9330951Y1017590D01*
G01X9321062Y1004708D01*
G01X9314367Y989912D01*
G01X9311219Y973979D01*
G01X9311784Y957749D01*
G01X9316032Y942074D01*
G01X9323740Y927779D01*
G01X9334501Y915615D01*
G01X9284788Y915615D01*
G01X9284788Y915615D01*
G01X9265907Y913631D01*
G01X9247851Y907764D01*
G01X9231409Y898271D01*
G01X9217301Y885568D01*
G01X9206141Y870208D01*
G01X9198419Y852865D01*
G01X9194472Y834294D01*
G01X8431637Y834294D01*
G01X8426733Y849386D01*
G01X8417240Y865828D01*
G01X8404537Y879936D01*
G01X8389177Y891096D01*
G01X8371833Y898818D01*
G01X8353263Y902765D01*
G01X8334278Y902765D01*
G01X8315707Y898818D01*
G01X8298364Y891096D01*
G01X8283004Y879936D01*
G01X8270300Y865828D01*
G01X8260808Y849386D01*
G01X8254941Y831330D01*
G01X8252957Y812448D01*
G01X8252957Y762764D01*
G01X8240790Y773517D01*
G01X8226494Y781216D01*
G01X8210820Y785457D01*
G01X8194592Y786015D01*
G01X8178664Y782863D01*
G01X8163872Y776165D01*
G01X8150995Y766274D01*
G01X8140709Y753710D01*
G01X8133556Y739133D01*
G01X8129911Y723310D01*
G01X7692658Y723310D01*
G01X7692658Y723318D01*
G01X7689010Y739143D01*
G01X7681853Y753722D01*
G01X7671562Y766286D01*
G01X7658680Y776175D01*
G01X7643884Y782870D01*
G01X7627951Y786017D01*
G01X7611721Y785452D01*
G01X7596046Y781205D01*
G01X7581751Y773497D01*
G01X7569587Y762736D01*
G01X7569587Y812448D01*
G01X7567603Y831330D01*
G01X7561736Y849386D01*
G01X7552243Y865828D01*
G01X7539540Y879936D01*
G01X7524180Y891096D01*
G01X7506836Y898818D01*
G01X7488266Y902765D01*
G01X7469281Y902765D01*
G01X7450710Y898818D01*
G01X7433367Y891096D01*
G01X7418007Y879936D01*
G01X7405303Y865828D01*
G01X7395811Y849386D01*
G01X7389944Y831330D01*
G01X7387960Y812448D01*
G01X286220Y812448D01*
G01X320519Y835342D01*
G01X390033Y880256D01*
G01X390033Y880256D01*
G01X467998Y928348D01*
G01X547230Y974324D01*
G01X625882Y1017080D01*
G01X705731Y1057556D01*
G01X808468Y1106792D01*
G01X911965Y1154408D01*
G01X1028635Y1206189D01*
G01X1145881Y1256654D01*
G01X1145881Y1256654D01*
G01X1261717Y1304969D01*
G01X1378094Y1351967D01*
G01X1378094Y1351967D01*
G01X1477946Y1390594D01*
G01X1578478Y1427412D01*
G01X1672220Y1458909D01*
G01X1767027Y1487035D01*
G01X1869744Y1513911D01*
G01X1973200Y1537780D01*
G01X2073428Y1557809D01*
G01X2174209Y1574840D01*
G01X2231189Y1582664D01*
G01X2288391Y1588654D01*
G01X2345756Y1592805D01*
G01X2349694Y1593254D01*
G01X2349694Y1593254D01*
G01X2463205Y1614509D01*
G01X2512687Y1625544D01*
G01X2561486Y1639289D01*
G01X2593575Y1649751D01*
G01X2624533Y1663198D01*
G01X2625142Y1663504D01*
G01X2676051Y1690375D01*
G01X2726475Y1718146D01*
G01X2726475Y1718146D01*
G01X2726475Y1718146D01*
G01X2805698Y1762505D01*
G01X2805698Y1762505D01*
G01X2805698Y1762505D01*
G01X2912923Y1822853D01*
G01X2912923Y1822853D01*
G01X3027828Y1885191D01*
G01X3027828Y1885191D01*
G01X3201004Y1972237D01*
G01X3201004Y1972237D01*
G01X3252879Y1993900D01*
G01X5775886Y1993900D01*
G01X5777803Y1965875D01*
G01X5783518Y1938372D01*
G01X5792925Y1911904D01*
G01X5805849Y1886962D01*
G01X5822048Y1864013D01*
G01X5841221Y1843484D01*
G01X5863011Y1825756D01*
G01X5887012Y1811161D01*
G01X5912777Y1799970D01*
G01X5939826Y1792391D01*
G01X5967655Y1788566D01*
G01X5995745Y1788566D01*
G01X6023574Y1792391D01*
G01X6050623Y1799970D01*
G01X6076388Y1811161D01*
G01X6100389Y1825756D01*
G01X6122179Y1843484D01*
G01X6141352Y1864013D01*
G01X6157551Y1886962D01*
G01X6170475Y1911904D01*
G01X6179882Y1938372D01*
G01X6185597Y1965875D01*
G01X6187514Y1993900D01*
G01X6185597Y2021925D01*
G01X6179882Y2049428D01*
G01X6170475Y2075896D01*
G01X6157551Y2100838D01*
G01X6141352Y2123787D01*
G01X6122179Y2144316D01*
G01X6100389Y2162044D01*
G01X6076388Y2176639D01*
G01X6050623Y2187830D01*
G01X6023574Y2195409D01*
G01X5995745Y2199234D01*
G01X5967655Y2199234D01*
G01X5939826Y2195409D01*
G01X5912777Y2187830D01*
G01X5887012Y2176639D01*
G01X5863011Y2162044D01*
G01X5841221Y2144316D01*
G01X5822048Y2123787D01*
G01X5805849Y2100838D01*
G01X5792925Y2075896D01*
G01X5783518Y2049428D01*
G01X5777803Y2021925D01*
G01X5775886Y1993900D01*
G01X5775886Y1993900D01*
G01X3252879Y1993900D01*
G01X3486603Y2091507D01*
G01X3486603Y2091507D01*
G01X3486603Y2091507D01*
G01X3639490Y2153152D01*
G01X3639490Y2153152D01*
G01X3786953Y2198608D01*
G01X3786953Y2198608D01*
G01X3827248Y2206539D01*
G01X3861251Y2211597D01*
G01X3895450Y2215084D01*
G01X3897862Y2215359D01*
G01X3944043Y2221529D01*
G01X3990398Y2226217D01*
G01X3992629Y2226480D01*
G01X4043777Y2233557D01*
G01X4095083Y2239369D01*
G01X4095712Y2239438D01*
G01X4218343Y2254069D01*
G01X4219133Y2254172D01*
G01X4344221Y2270170D01*
G01X4345730Y2270374D01*
G01X4402393Y2277933D01*
G01X4459353Y2282758D01*
G01X4516480Y2284840D01*
G01X4573641Y2284173D01*
G01X4575472Y2284156D01*
G01X4640975Y2284158D01*
G01X4643835Y2284228D01*
G01X4806106Y2293204D01*
G01X4932409Y2297885D01*
G01X5058769Y2300593D01*
G01X5185157Y2301325D01*
G01X5185157Y2301325D01*
G01X5396561Y2299100D01*
G01X5607898Y2293281D01*
G01X5607898Y2293281D01*
G01X5806789Y2284409D01*
G01X6005499Y2272137D01*
G01X6102839Y2263950D01*
G01X6199919Y2253102D01*
G01X6296666Y2239603D01*
G01X6322750Y2234376D01*
G01X6378022Y2220219D01*
G01X6442862Y2202519D01*
G01X6510285Y2182986D01*
G01X6510285Y2182986D01*
G01X6510285Y2182986D01*
G01X6592260Y2158606D01*
G01X6592260Y2158606D01*
G01X6822174Y2090311D01*
G01X6822174Y2090311D01*
G01X6931514Y2057861D01*
G01X6931514Y2057861D01*
G01X7034829Y2027161D01*
G01X7034829Y2027161D01*
G01X7135691Y1997094D01*
G01X7135691Y1997094D01*
G01X7222295Y1971194D01*
G01X7222295Y1971194D01*
G01X7270575Y1956618D01*
G01X7367901Y1927129D01*
G01X7367901Y1927129D01*
G01X7482382Y1892677D01*
G01X7482382Y1892677D01*
G01X7603960Y1856274D01*
G01X7603960Y1856274D01*
G01X7723201Y1820755D01*
G01X7723201Y1820755D01*
G01X7834861Y1787426D01*
G01X7834861Y1787426D01*
G01X7942204Y1755065D01*
G01X7942204Y1755065D01*
G01X8073541Y1715110D01*
G01X8073541Y1715110D01*
G01X8268917Y1655374D01*
G01X8268917Y1655374D01*
G01X8275993Y1653968D01*
G01X8372981Y1645333D01*
G01X8470073Y1637959D01*
G01X8470073Y1637959D01*
G01X8509339Y1635022D01*
G01X8535063Y1633190D01*
G01X8538670Y1633191D01*
G01X8565680Y1635000D01*
G01X8600093Y1638136D01*
G01X8600614Y1638207D01*
G01X8618758Y1642728D01*
G01X8635594Y1650862D01*
G01X8671545Y1669160D01*
G01X8706239Y1689741D01*
G01X8711651Y1693975D01*
G01X8716155Y1699164D01*
G01X8716244Y1699291D01*
G01X9194472Y1699291D01*
G01X9194472Y1680306D01*
G01X9198419Y1661735D01*
G01X9206141Y1644392D01*
G01X9217301Y1629032D01*
G01X9231409Y1616329D01*
G01X9247851Y1606836D01*
G01X9265907Y1600969D01*
G01X9284788Y1598985D01*
G01X9334473Y1598985D01*
G01X9323720Y1586818D01*
G01X9316020Y1572522D01*
G01X9311780Y1556848D01*
G01X9311222Y1540620D01*
G01X9314374Y1524692D01*
G01X9321072Y1509900D01*
G01X9330963Y1497023D01*
G01X9343527Y1486737D01*
G01X9358104Y1479584D01*
G01X9373927Y1475939D01*
G01X9390164Y1475994D01*
G01X9405962Y1479746D01*
G01X9420490Y1486997D01*
G01X9432985Y1497368D01*
G01X9442788Y1510312D01*
G01X9449386Y1525148D01*
G01X9452430Y1541098D01*
G01X9451762Y1557322D01*
G01X9447416Y1572967D01*
G01X9439620Y1587210D01*
G01X9428785Y1599304D01*
G01X9415480Y1608611D01*
G01X9431220Y1618647D01*
G01X9444576Y1631689D01*
G01X9454984Y1647186D01*
G01X9462002Y1664484D01*
G01X9465336Y1682851D01*
G01X9464843Y1701512D01*
G01X9460546Y1719678D01*
G01X9452625Y1736582D01*
G01X9441414Y1751508D01*
G01X9427389Y1763828D01*
G01X9411141Y1773019D01*
G01X9393357Y1778694D01*
G01X9374788Y1780612D01*
G01X9374788Y1780612D01*
G01X9284788Y1780612D01*
G01X9265907Y1778628D01*
G01X9247851Y1772761D01*
G01X9231409Y1763268D01*
G01X9217301Y1750565D01*
G01X9206141Y1735205D01*
G01X9198419Y1717862D01*
G01X9194472Y1699291D01*
G01X8716244Y1699291D01*
G01X8787228Y1801420D01*
G01X8787228Y1801420D01*
G01X8847936Y1889397D01*
G01X8847936Y1889397D01*
G01X8848612Y1890427D01*
G01X8848612Y1890427D01*
G01X8917571Y2000096D01*
G01X8917571Y2000096D01*
G01X8917571Y2000096D01*
G01X8980059Y2090092D01*
G01X8980059Y2090092D01*
G01X9033539Y2165243D01*
G01X9033539Y2165243D01*
G01X9044557Y2179497D01*
G01X9054241Y2186853D01*
G01X9074635Y2197000D01*
G01X9094937Y2201922D01*
G01X9096170Y2202201D01*
G01X9116806Y2206190D01*
G01X9147295Y2207691D01*
G01X9177781Y2206119D01*
G01X9182343Y2205956D01*
G01X9329924Y2209473D01*
G01X9330650Y2209493D01*
G01X9427401Y2212685D01*
G01X9524180Y2214841D01*
G01X9524180Y2214841D01*
G01X9608174Y2215584D01*
G01X9692168Y2214967D01*
G01X9783965Y2213107D01*
G01X9786212Y2213124D01*
G01X9815381Y2213146D01*
G01X9838964Y2210376D01*
G01X9838964Y2210376D01*
G01X9838949Y2004926D01*
G01X9838949Y2004926D01*
G01X9838112Y1899778D01*
G01X9835988Y1794648D01*
G01X9835988Y1794648D01*
G01X9835992Y1792691D01*
G01X9836725Y1766871D01*
G01X9823801Y1774913D01*
G01X9809767Y1780807D01*
G01X9794976Y1784403D01*
G01X9779803Y1785612D01*
G01X9719803Y1785612D01*
G01X9701110Y1783771D01*
G01X9683136Y1778319D01*
G01X9666571Y1769465D01*
G01X9652052Y1757549D01*
G01X9640136Y1743030D01*
G01X9631282Y1726465D01*
G01X9625830Y1708491D01*
G01X9623989Y1689799D01*
G01X9625830Y1671106D01*
G01X9631282Y1653132D01*
G01X9640136Y1636567D01*
G01X9652052Y1622048D01*
G01X9666571Y1610132D01*
G01X9683136Y1601278D01*
G01X9701110Y1595826D01*
G01X9719803Y1593985D01*
G01X9779803Y1593985D01*
G01X9795660Y1595306D01*
G01X9811080Y1599233D01*
G01X9825637Y1605659D01*
G01X9838931Y1614405D01*
G01X9838949Y1591563D01*
G01X9838951Y1591160D01*
G01X9838955Y1522255D01*
G01X9835998Y1429242D01*
G01X9835998Y1429242D01*
G01X9835977Y1427937D01*
G01X9835977Y1427937D01*
G01X9835976Y1323850D01*
G01X9835976Y1323850D01*
G01X9835976Y1199155D01*
G01X9835976Y1199155D01*
G01X9834371Y903558D01*
G01X9817463Y912904D01*
G01X9799023Y918668D01*
G01X9779803Y920615D01*
G01X9719803Y920615D01*
G01X9701110Y918774D01*
G01X9683136Y913322D01*
G01X9666571Y904468D01*
G01X9652052Y892552D01*
G01X9640136Y878033D01*
G01X9631282Y861468D01*
G01X9625830Y843494D01*
G01X9623989Y824802D01*
G01X9625830Y806109D01*
G01X9631282Y788135D01*
G01X9640136Y771570D01*
G01X9652052Y757051D01*
G01X9666571Y745135D01*
G01X9683136Y736281D01*
G01X9701110Y730829D01*
G01X9719803Y728988D01*
G01X9779803Y728988D01*
G01X9798684Y730866D01*
G01X9816824Y736429D01*
G01X9833513Y745457D01*
G01X9832113Y487637D01*
G01X9822619Y461528D01*
G01X9809876Y436842D01*
G01X9794093Y413980D01*
G01X9775526Y393314D01*
G01X9754479Y375181D01*
G01X9731293Y359877D01*
G01X9706346Y347651D01*
G01X9680046Y338702D01*
G01X9678702Y338310D01*
G01X9592817Y313043D01*
G01X9506055Y290973D01*
G01X9418535Y272132D01*
G01X9330377Y256543D01*
G01X9294530Y256593D01*
G01X9293568Y256602D01*
G01X9293568Y256602D01*
G01X8413202Y251407D01*
G01X8413202Y251407D01*
G01X8424426Y265714D01*
G01X8432745Y281883D01*
G01X8437859Y299333D01*
G01X8439584Y317434D01*
G01X8439584Y377434D01*
G01X8437743Y396126D01*
G01X8432291Y414100D01*
G01X8423437Y430665D01*
G01X8411521Y445185D01*
G01X8397002Y457100D01*
G01X8380437Y465955D01*
G01X8362463Y471407D01*
G01X8343770Y473248D01*
G01X8325078Y471407D01*
G01X8307104Y465955D01*
G01X8290539Y457100D01*
G01X8276020Y445185D01*
G01X8264104Y430665D01*
G01X8255250Y414100D01*
G01X8249798Y396126D01*
G01X8247957Y377434D01*
G01X8247957Y317434D01*
G01X8249740Y299034D01*
G01X8255024Y281319D01*
G01X8263611Y264948D01*
G01X8275183Y250531D01*
G01X8275183Y250531D01*
G01X7943079Y248354D01*
G01X7943079Y248354D01*
G01X7867408Y248357D01*
G01X7809291Y248348D01*
G01X7762365Y248351D01*
G01X7761590Y248350D01*
G01X7761590Y248350D01*
G01X7714847Y248350D01*
G01X7713887Y248348D01*
G01X7688248Y248348D01*
G01X7686609Y248335D01*
G01X7645073Y248200D01*
G01X7627835Y251324D01*
G01X7610316Y251336D01*
G01X7593074Y248236D01*
G01X7593074Y248236D01*
G01X7544744Y247949D01*
G01X7544744Y247949D01*
G01X7557389Y262663D01*
G01X7566811Y279623D01*
G01X7572623Y298133D01*
G01X7574587Y317434D01*
G01X7574587Y377434D01*
G01X7572746Y396126D01*
G01X7567294Y414100D01*
G01X7558440Y430665D01*
G01X7546524Y445185D01*
G01X7532005Y457100D01*
G01X7515440Y465955D01*
G01X7497466Y471407D01*
G01X7478773Y473248D01*
G01X7460081Y471407D01*
G01X7442107Y465955D01*
G01X7425542Y457100D01*
G01X7411023Y445185D01*
G01X7399107Y430665D01*
G01X7390253Y414100D01*
G01X7384801Y396126D01*
G01X7382960Y377434D01*
G01X7382960Y317434D01*
G01X7384979Y297864D01*
G01X7390954Y279120D01*
G01X7400631Y261990D01*
G01X7413603Y247198D01*
G01X7413603Y247198D01*
G01X7222353Y246177D01*
G01X7222353Y246177D01*
G01X6642167Y244549D01*
G01X6642167Y244549D01*
G01X6113044Y244544D01*
G01X6126110Y256456D01*
G01X6136765Y270566D01*
G01X6144646Y286393D01*
G01X6149484Y303399D01*
G01X6151115Y321004D01*
G01X6151115Y451004D01*
G01X6149274Y469696D01*
G01X6143822Y487670D01*
G01X6134968Y504235D01*
G01X6123052Y518754D01*
G01X6120681Y520700D01*
G01X8823886Y520700D01*
G01X8825803Y492675D01*
G01X8831518Y465172D01*
G01X8840925Y438704D01*
G01X8853849Y413762D01*
G01X8870048Y390813D01*
G01X8889221Y370284D01*
G01X8911011Y352556D01*
G01X8935012Y337961D01*
G01X8960777Y326770D01*
G01X8987826Y319191D01*
G01X9015655Y315366D01*
G01X9043745Y315366D01*
G01X9071574Y319191D01*
G01X9098623Y326770D01*
G01X9124388Y337961D01*
G01X9148389Y352556D01*
G01X9170179Y370284D01*
G01X9189352Y390813D01*
G01X9205551Y413762D01*
G01X9218475Y438704D01*
G01X9227882Y465172D01*
G01X9233597Y492675D01*
G01X9235514Y520700D01*
G01X9233597Y548725D01*
G01X9227882Y576228D01*
G01X9218475Y602696D01*
G01X9205551Y627638D01*
G01X9189352Y650587D01*
G01X9170179Y671116D01*
G01X9148389Y688844D01*
G01X9124388Y703439D01*
G01X9098623Y714630D01*
G01X9071574Y722209D01*
G01X9043745Y726034D01*
G01X9015655Y726034D01*
G01X8987826Y722209D01*
G01X8960777Y714630D01*
G01X8935012Y703439D01*
G01X8911011Y688844D01*
G01X8889221Y671116D01*
G01X8870048Y650587D01*
G01X8853849Y627638D01*
G01X8840925Y602696D01*
G01X8831518Y576228D01*
G01X8825803Y548725D01*
G01X8823886Y520700D01*
G01X8823886Y520700D01*
G01X6120681Y520700D01*
G01X6108533Y530670D01*
G01X6091968Y539524D01*
G01X6073994Y544977D01*
G01X6055302Y546818D01*
G01X6036609Y544977D01*
G01X6018635Y539524D01*
G01X6002070Y530670D01*
G01X5987551Y518754D01*
G01X5975635Y504235D01*
G01X5966781Y487670D01*
G01X5961329Y469696D01*
G01X5959488Y451004D01*
G01X5959488Y321004D01*
G01X5961119Y303398D01*
G01X5965958Y286392D01*
G01X5973839Y270565D01*
G01X5984494Y256455D01*
G01X5997561Y244543D01*
G01X4823013Y244532D01*
G01X4836084Y256444D01*
G01X4846743Y270555D01*
G01X4854628Y286385D01*
G01X4859468Y303395D01*
G01X4861100Y321004D01*
G01X4861100Y451004D01*
G01X4859259Y469696D01*
G01X4853807Y487670D01*
G01X4844953Y504235D01*
G01X4833037Y518754D01*
G01X4818518Y530670D01*
G01X4801953Y539524D01*
G01X4783979Y544977D01*
G01X4765286Y546818D01*
G01X4746594Y544977D01*
G01X4728620Y539524D01*
G01X4712055Y530670D01*
G01X4697536Y518754D01*
G01X4685620Y504235D01*
G01X4676766Y487670D01*
G01X4671314Y469696D01*
G01X4669473Y451004D01*
G01X4669473Y321004D01*
G01X4671105Y303394D01*
G01X4675945Y286384D01*
G01X4683830Y270554D01*
G01X4694490Y256443D01*
G01X4707562Y244531D01*
G01X4483208Y244529D01*
G01X4497477Y256452D01*
G01X4509173Y270907D01*
G01X4517858Y287349D01*
G01X4523203Y305159D01*
G01X4525007Y323666D01*
G01X4525007Y453666D01*
G01X4523166Y472358D01*
G01X4517714Y490332D01*
G01X4508860Y506897D01*
G01X4496944Y521416D01*
G01X4482425Y533332D01*
G01X4465860Y542186D01*
G01X4447886Y547639D01*
G01X4429194Y549480D01*
G01X4410501Y547639D01*
G01X4392527Y542186D01*
G01X4375962Y533332D01*
G01X4361443Y521416D01*
G01X4349527Y506897D01*
G01X4340673Y490332D01*
G01X4335221Y472358D01*
G01X4333380Y453666D01*
G01X4333380Y323666D01*
G01X4335184Y305159D01*
G01X4340529Y287349D01*
G01X4349214Y270906D01*
G01X4360912Y256451D01*
G01X4375181Y244528D01*
G01X3897187Y244523D01*
G01X3897187Y244523D01*
G01X3350900Y246181D01*
G01X3350900Y246181D01*
G01X3196782Y247102D01*
G01X3196782Y247102D01*
G01X3209893Y259015D01*
G01X3220587Y273139D01*
G01X3228497Y288990D01*
G01X3233355Y306027D01*
G01X3234992Y323666D01*
G01X3234992Y453666D01*
G01X3233151Y472358D01*
G01X3227699Y490332D01*
G01X3218845Y506897D01*
G01X3206929Y521416D01*
G01X3192410Y533332D01*
G01X3175845Y542186D01*
G01X3157871Y547639D01*
G01X3139178Y549480D01*
G01X3120486Y547639D01*
G01X3102512Y542186D01*
G01X3085947Y533332D01*
G01X3071428Y521416D01*
G01X3059512Y506897D01*
G01X3050658Y490332D01*
G01X3045206Y472358D01*
G01X3043365Y453666D01*
G01X3043365Y323666D01*
G01X3044956Y306275D01*
G01X3049678Y289461D01*
G01X3057373Y273784D01*
G01X3067786Y259764D01*
G01X3080571Y247867D01*
G01X3080571Y247867D01*
G01X3030962Y248213D01*
G01X3030962Y248213D01*
G01X3028986Y248333D01*
G01X3028986Y248333D01*
G01X3007595Y249032D01*
G01X3007595Y249032D01*
G01X2999405Y248352D01*
G01X2999405Y248352D01*
G01X2860689Y248351D01*
G01X2860689Y248351D01*
G01X2873800Y260265D01*
G01X2884494Y274389D01*
G01X2892405Y290240D01*
G01X2897262Y307276D01*
G01X2898899Y324916D01*
G01X2898899Y454916D01*
G01X2897058Y473608D01*
G01X2891606Y491582D01*
G01X2882752Y508147D01*
G01X2870836Y522666D01*
G01X2856317Y534582D01*
G01X2839752Y543436D01*
G01X2821778Y548888D01*
G01X2803086Y550729D01*
G01X2784393Y548888D01*
G01X2766419Y543436D01*
G01X2749854Y534582D01*
G01X2735335Y522666D01*
G01X2723419Y508147D01*
G01X2714565Y491582D01*
G01X2709113Y473608D01*
G01X2707272Y454916D01*
G01X2707272Y324916D01*
G01X2708909Y307277D01*
G01X2713766Y290242D01*
G01X2721676Y274391D01*
G01X2732368Y260268D01*
G01X2745478Y248354D01*
G01X2745478Y248354D01*
G01X1570968Y248573D01*
G01X1570968Y248573D01*
G01X1583983Y260483D01*
G01X1594595Y274577D01*
G01X1602443Y290377D01*
G01X1607260Y307349D01*
G01X1608884Y324916D01*
G01X1608884Y454916D01*
G01X1607043Y473608D01*
G01X1601591Y491582D01*
G01X1592737Y508147D01*
G01X1580821Y522666D01*
G01X1566302Y534582D01*
G01X1549737Y543436D01*
G01X1531763Y548888D01*
G01X1513070Y550729D01*
G01X1494378Y548888D01*
G01X1476404Y543436D01*
G01X1459839Y534582D01*
G01X1445320Y522666D01*
G01X1433404Y508147D01*
G01X1424550Y491582D01*
G01X1419098Y473608D01*
G01X1417257Y454916D01*
G01X1417257Y324916D01*
G37*
G54D10*
G01X1417257Y324916D02*
G03X1455120Y248613I95814J0D01*
G01X1455120Y248613D01*
G01X1321127Y248664D01*
G01X1321127Y248664D01*
G01X1319766Y248637D01*
G02X1243260Y246227I-198868J5097548D01*
G01X1243260Y246227D01*
G02X1122082Y244603I-137211J5716204D01*
G01X1122082Y244603D01*
G01X867698Y244260D01*
G01X867698Y244260D01*
G01X551811Y245609D01*
G01X551811Y245609D01*
G02X389461Y251059I27278J3233460D01*
G02X292831Y261188I62273J1060067D01*
G02X248593Y276804I18668J123348D01*
G01X242037Y280632D01*
G01X240033Y513342D01*
G01X240033Y513342D01*
G01X239479Y611271D01*
G01X239479Y611271D01*
G02X239633Y696222I9434681J25389D01*
G01X239633Y696222D01*
G01X240216Y769557D01*
G02X240719Y773595I17817J-170D01*
G02X251684Y789396I25963J-6311D01*
G02X390033Y880256I3113507J-4590076D01*
G02X547230Y974324I1824554J-2870646D01*
G02X705731Y1057556I1525276J-2712087D01*
G02X911965Y1154408I3183531J-6510920D01*
G02X1145881Y1256654I4660179J-10342712D01*
G01X1145881Y1256654D01*
G02X1378094Y1351967I4317049J-10187189D01*
G01X1378094Y1351967D01*
G02X1578478Y1427412I2189221J-5510813D01*
G02X1767027Y1487035I927528J-2605242D01*
G02X1973200Y1537780I972536J-3507128D01*
G02X2174209Y1574840I721438J-3349276D01*
G02X2345756Y1592805I272151J-1770760D01*
G03X2349694Y1593254I-1940J34489D01*
G01X2349694Y1593254D01*
G03X2463205Y1614509I-696645J4034230D01*
G01X2463205Y1614509D01*
G03X2561486Y1639289I-175383J902884D01*
G03X2624533Y1663198I-94489J344250D01*
G01X2625142Y1663504D01*
G03X2726475Y1718146I-1487596J2880038D01*
G01X2726475Y1718146D01*
G01X2805698Y1762505D01*
G01X2805698Y1762505D01*
G01X2912923Y1822853D01*
G01X2912923Y1822853D01*
G01X3027828Y1885191D01*
G01X3027828Y1885191D01*
G01X3201004Y1972237D01*
G01X3201004Y1972237D01*
G01X3486603Y2091507D01*
G01X3486603Y2091507D01*
G01X3639490Y2153152D01*
G01X3639490Y2153152D01*
G01X3786953Y2198608D01*
G01X3786953Y2198608D01*
G01X3827248Y2206539D01*
G02X3895450Y2215084I126722J-735025D01*
G01X3897862Y2215359D01*
G02X3990398Y2226217I215753J-1438918D01*
G01X3992629Y2226480D01*
G02X4095083Y2239369I312066J-2067052D01*
G01X4095712Y2239438D01*
G01X4218343Y2254069D01*
G01X4219133Y2254172D01*
G02X4344221Y2270170I609715J-4270483D01*
G01X4345730Y2270374D01*
G02X4573641Y2284173I185457J-1174113D01*
G01X4575472Y2284156D01*
G02X4640975Y2284158I32824J-1898545D01*
G03X4643835Y2284228I595J34539D01*
G02X4806106Y2293204I512901J-7800982D01*
G02X5185157Y2301325I362704J-8078878D01*
G02X5607898Y2293281I-25130J-12433563D01*
G01X5607898Y2293281D01*
G02X6005499Y2272137I-419333J-11634115D01*
G02X6296666Y2239603I-250526J-3561278D01*
G02X6322750Y2234376I-44414J-289340D01*
G02X6378022Y2220219I-914654J-3686001D01*
G02X6442862Y2202519I-1041856J-3944167D01*
G02X6510285Y2182986I-1311092J-4651658D01*
G01X6510285Y2182986D01*
G01X6592260Y2158606D01*
G01X6592260Y2158606D01*
G01X6822174Y2090311D01*
G01X6822174Y2090311D01*
G01X6931514Y2057861D01*
G01X6931514Y2057861D01*
G01X7034829Y2027161D01*
G01X7034829Y2027161D01*
G01X7135691Y1997094D01*
G01X7135691Y1997094D01*
G01X7222295Y1971194D01*
G01X7222295Y1971194D01*
G01X7270575Y1956618D01*
G01X7367901Y1927129D01*
G01X7367901Y1927129D01*
G01X7482382Y1892677D01*
G01X7482382Y1892677D01*
G01X7603960Y1856274D01*
G01X7603960Y1856274D01*
G01X7723201Y1820755D01*
G01X7723201Y1820755D01*
G01X7834861Y1787426D01*
G01X7834861Y1787426D01*
G01X7942204Y1755065D01*
G01X7942204Y1755065D01*
G01X8073541Y1715110D01*
G01X8073541Y1715110D01*
G01X8268917Y1655374D01*
G01X8268917Y1655374D01*
G03X8275993Y1653968I10483J34245D01*
G03X8470073Y1637959I713634J7467203D01*
G03X8509339Y1635022I150887J1753643D01*
G03X8535063Y1633190I60407J666406D01*
G03X8538670Y1633191I1790J34498D01*
G03X8565680Y1635000I-49898J947554D01*
G03X8600093Y1638136I-27394J490918D01*
G01X8600614Y1638207D01*
G03X8635594Y1650862I-12811J90080D01*
G03X8706239Y1689741I-265091J565305D01*
G03X8716155Y1699164I-19258J30196D01*
G03X8787228Y1801420I-4457601J3174055D01*
G01X8787228Y1801420D01*
G03X8847936Y1889397I-7388346J5163264D01*
G01X8847936Y1889397D01*
G01X8848612Y1890427D01*
G01X8848612Y1890427D01*
G01X8917571Y2000096D01*
G01X8917571Y2000096D01*
G01X8980059Y2090092D01*
G01X8980059Y2090092D01*
G01X9033539Y2165243D01*
G03X9044557Y2179497I-304307J246608D01*
G02X9054241Y2186853I98266J-119317D01*
G02X9074635Y2197000I193454J-363258D01*
G02X9094937Y2201922I83713J-300954D01*
G01X9096170Y2202201D01*
G02X9116806Y2206190I50129J-203937D01*
G02X9177781Y2206119I30135J-301771D01*
G03X9182343Y2205956I3513J34365D01*
G02X9329924Y2209473I342819J-11287795D01*
G01X9330650Y2209493D01*
G02X9524180Y2214841I346726J-9042126D01*
G02X9692168Y2214967I87883J-5189569D01*
G02X9783965Y2213107I-146872J-9515303D01*
G01X9786212Y2213124D01*
G02X9815381Y2213146I14869J-371879D01*
G02X9838964Y2210376I-28064J-340714D01*
G01X9838964Y2210376D01*
G01X9838949Y2004926D01*
G01X9838949Y2004926D01*
G02X9835988Y1794648I-8599996J15941D01*
G01X9835988Y1794648D01*
G01X9835992Y1792691D01*
G01X9836725Y1766871D01*
G03X9779803Y1785612I-56922J-77073D01*
G01X9719803Y1785612D01*
G03X9719803Y1593985I0J-95814D01*
G01X9779803Y1593985D01*
G03X9838931Y1614405I0J95814D01*
G01X9838949Y1591563D01*
G01X9838951Y1591160D01*
G02X9838955Y1522255I-3234669J-34622D01*
G01X9835998Y1429242D01*
G01X9835998Y1429242D01*
G01X9835977Y1427937D01*
G01X9835977Y1427937D01*
G01X9835976Y1323850D01*
G01X9835976Y1323850D01*
G01X9835976Y1199155D01*
G01X9835976Y1199155D01*
G01X9834371Y903558D01*
G03X9779803Y920615I-54569J-78756D01*
G01X9719803Y920615D01*
G03X9719803Y728988I0J-95814D01*
G01X9779803Y728988D01*
G03X9833513Y745457I0J95814D01*
G01X9832113Y487637D01*
G02X9680046Y338702I-208888J61181D01*
G01X9678702Y338310D01*
G02X9330377Y256543I-725103J2306130D01*
G02X9294530Y256593I-16731J855165D01*
G01X9293568Y256602D01*
G01X9293568Y256602D01*
G01X8413202Y251407D01*
G01X8413202Y251407D01*
G03X8439584Y317434I-69432J66027D01*
G01X8439584Y377434D01*
G03X8247957Y377434I-95814J0D01*
G01X8247957Y317434D01*
G03X8275183Y250531I95814J0D01*
G01X8275183Y250531D01*
G01X7943079Y248354D01*
G01X7943079Y248354D01*
G03X7867408Y248357I-38003J-3910915D01*
G03X7809291Y248348I-28879J-1151466D01*
G02X7762365Y248351I-23327J2284754D01*
G01X7761590Y248350D01*
G01X7761590Y248350D01*
G02X7714847Y248350I-23373J1927763D01*
G01X7713887Y248348D01*
G02X7688248Y248348I-12821J818892D01*
G01X7686609Y248335D01*
G02X7645073Y248200I-23124J726505D01*
G03X7593074Y248236I-26064J-94691D01*
G01X7593074Y248236D01*
G01X7544744Y247949D01*
G01X7544744Y247949D01*
G03X7574587Y317434I-65970J69485D01*
G01X7574587Y377434D01*
G03X7382960Y377434I-95814J0D01*
G01X7382960Y317434D01*
G03X7413603Y247198I95814J0D01*
G01X7413603Y247198D01*
G01X7222353Y246177D01*
G01X7222353Y246177D01*
G01X6642167Y244549D01*
G01X6642167Y244549D01*
G01X6113044Y244544D01*
G03X6151115Y321004I-57743J76460D01*
G01X6151115Y451004D01*
G03X5959488Y451004I-95814J0D01*
G01X5959488Y321004D01*
G03X5997561Y244543I95814J0D01*
G01X4823013Y244532D01*
G03X4861100Y321004I-57726J76472D01*
G01X4861100Y451004D01*
G03X4669473Y451004I-95814J0D01*
G01X4669473Y321004D01*
G03X4707562Y244531I95814J0D01*
G01X4483208Y244529D01*
G03X4525007Y323666I-54014J79138D01*
G01X4525007Y453666D01*
G03X4333380Y453666I-95814J0D01*
G01X4333380Y323666D01*
G03X4375181Y244528I95814J0D01*
G01X3897187Y244523D01*
G01X3897187Y244523D01*
G01X3350900Y246181D01*
G01X3350900Y246181D01*
G01X3196782Y247102D01*
G01X3196782Y247102D01*
G03X3234992Y323666I-57604J76564D01*
G01X3234992Y453666D01*
G03X3043365Y453666I-95814J0D01*
G01X3043365Y323666D01*
G03X3080571Y247867I95814J0D01*
G01X3080571Y247867D01*
G01X3030962Y248213D01*
G01X3030962Y248213D01*
G01X3028986Y248333D01*
G01X3028986Y248333D01*
G01X3007595Y249032D01*
G01X3007595Y249032D01*
G03X2999405Y248352I-1152J-35795D01*
G01X2999405Y248352D01*
G01X2860689Y248351D01*
G01X2860689Y248351D01*
G03X2898899Y324916I-57604J76565D01*
G01X2898899Y454916D01*
G03X2707272Y454916I-95814J0D01*
G01X2707272Y324916D01*
G03X2745478Y248354I95814J0D01*
G01X2745478Y248354D01*
G01X1570968Y248573D01*
G01X1570968Y248573D01*
G03X1608884Y324916I-57897J76343D01*
G01X1608884Y454916D01*
G03X1417257Y454916I-95814J0D01*
G01X1417257Y324916D01*
G01X518086Y584200D02*
G03X929714Y584200I205814J0D01*
G03X518086Y584200I-205814J0D01*
G01X5775886Y1993900D02*
G03X6187514Y1993900I205814J0D01*
G03X5775886Y1993900I-205814J0D01*
G01X7692604Y707078D02*
G03X7569587Y762736I-70321J8352D01*
G01X7569587Y812448D01*
G03X7387960Y812448I-90814J0D01*
G01X7387960Y722449D01*
G03X7559973Y681781I90814J0D01*
G03X7692604Y707078I62311J33648D01*
G01X8129965Y707073D02*
G03X8262583Y681757I70320J8357D01*
G03X8434584Y722449I81187J40692D01*
G01X8434584Y812448D01*
G03X8252957Y812448I-90814J0D01*
G01X8252957Y762764D01*
G03X8129965Y707073I-52671J-47335D01*
G01X8823886Y520700D02*
G03X9235514Y520700I205814J0D01*
G03X8823886Y520700I-205814J0D01*
G01X9374788Y1780612D02*
G01X9284788Y1780612D01*
G03X9284788Y1598985I0J-90814D01*
G01X9334473Y1598985D01*
G03X9390164Y1475994I47335J-52671D01*
G03X9415480Y1608611I-8357J70320D01*
G03X9374788Y1780612I-40692J81187D01*
G01X9284788Y915615D02*
G03X9284788Y733988I0J-90814D01*
G01X9374788Y733988D01*
G03X9415455Y906001I0J90814D01*
G03X9390159Y1038633I-33648J62311D01*
G03X9334501Y915615I-8352J-70321D01*
G01X9284788Y915615D01*
G54D11*
G01X9329788Y1689799D02*
G01X9329788Y1609145D01*
G01X9329788Y1689799D02*
G01X9329788Y1770452D01*
G01X9329788Y1689799D02*
G01X9204135Y1689799D01*
G01X9329788Y1689799D02*
G01X9455442Y1689799D01*
G01X9329788Y824802D02*
G01X9329788Y744148D01*
G01X9329788Y824802D02*
G01X9329788Y905455D01*
G01X9329788Y824802D02*
G01X9204135Y824802D01*
G01X9329788Y824802D02*
G01X9455442Y824802D01*
G01X9749803Y1689799D02*
G01X9749803Y1604145D01*
G01X9749803Y1689799D02*
G01X9749803Y1775452D01*
G01X9749803Y1689799D02*
G01X9634149Y1689799D01*
G01X9749803Y824802D02*
G01X9749803Y739148D01*
G01X9749803Y824802D02*
G01X9749803Y910455D01*
G01X9749803Y824802D02*
G01X9634149Y824802D01*
G01X4429194Y388666D02*
G01X4343540Y388666D01*
G01X4429194Y388666D02*
G01X4514847Y388666D01*
G01X4429194Y388666D02*
G01X4429194Y539320D01*
G01X3139178Y388666D02*
G01X3053525Y388666D01*
G01X3139178Y388666D02*
G01X3224832Y388666D01*
G01X3139178Y388666D02*
G01X3139178Y539320D01*
G01X6055302Y386004D02*
G01X5969648Y386004D01*
G01X6055302Y386004D02*
G01X6140955Y386004D01*
G01X6055302Y386004D02*
G01X6055302Y536658D01*
G01X4765286Y386004D02*
G01X4679633Y386004D01*
G01X4765286Y386004D02*
G01X4850940Y386004D01*
G01X4765286Y386004D02*
G01X4765286Y536658D01*
G01X2803086Y389916D02*
G01X2717432Y389916D01*
G01X2803086Y389916D02*
G01X2888739Y389916D01*
G01X2803086Y389916D02*
G01X2803086Y540569D01*
G01X1513070Y389916D02*
G01X1427417Y389916D01*
G01X1513070Y389916D02*
G01X1598724Y389916D01*
G01X1513070Y389916D02*
G01X1513070Y540569D01*
G01X7478773Y767449D02*
G01X7398120Y767449D01*
G01X7478773Y767449D02*
G01X7559427Y767449D01*
G01X7478773Y767449D02*
G01X7478773Y893102D01*
G01X7478773Y767449D02*
G01X7478773Y641795D01*
G01X8343770Y767449D02*
G01X8263117Y767449D01*
G01X8343770Y767449D02*
G01X8424424Y767449D01*
G01X8343770Y767449D02*
G01X8343770Y893102D01*
G01X8343770Y767449D02*
G01X8343770Y641795D01*
G01X7478773Y347434D02*
G01X7393120Y347434D01*
G01X7478773Y347434D02*
G01X7564427Y347434D01*
G01X7478773Y347434D02*
G01X7478773Y463088D01*
G01X8343770Y347434D02*
G01X8258117Y347434D01*
G01X8343770Y347434D02*
G01X8429424Y347434D01*
G01X8343770Y347434D02*
G01X8343770Y463088D01*
G04 Copper End*

G04 Pad Start*
G54D12*
G01X7478773Y767449D03*
G01X8343770Y767449D03*
G54D13*
G01X7478773Y347434D03*
G01X8343770Y347434D03*
G54D14*
G01X6055302Y386004D03*
G01X4765286Y386004D03*
G01X4429194Y388666D03*
G01X3139178Y388666D03*
G01X2803086Y389916D03*
G01X1513070Y389916D03*
G54D15*
G01X9329788Y824802D03*
G01X9329788Y1689799D03*
G54D16*
G01X9749803Y824802D03*
G01X9749803Y1689799D03*
G04 Pad End*

G04 Via Start*
G54D18*
G01X9182100Y1854200D03*
G01X8890000Y1759102D03*
G01X8877300Y1587500D03*
G01X8877300Y939800D03*
G01X9080500Y937298D03*
G01X8305800Y1041400D03*
G01X7099300Y749300D03*
G01X7543800Y596900D03*
G01X7797800Y1714500D03*
G01X7162800Y1765300D03*
G01X7874000Y1550441D03*
G01X6705600Y1409700D03*
G01X6388100Y1981200D03*
G01X6235700Y1663700D03*
G01X6235700Y1536700D03*
G01X6108700Y1600200D03*
G01X5486400Y1587500D03*
G01X4838700Y1689100D03*
G01X4140200Y1536700D03*
G01X3657600Y1739900D03*
G01X2743200Y1268908D03*
G01X3073400Y1816100D03*
G04 Via End*

M02*

